M48
; DRILL file {KiCad (5.1.9-0-10_14)} date Friday, January 01, 2021 at 07:24:56 PM
; FORMAT={-:-/ absolute / inch / decimal}
; #@! TF.CreationDate,2021-01-01T19:24:56-08:00
; #@! TF.GenerationSoftware,Kicad,Pcbnew,(5.1.9-0-10_14)
; #@! TF.FileFunction,Plated,1,2,PTH
FMAT,2
INCH
T1C0.0157
T2C0.0315
T3C0.0394
T4C0.0472
T5C0.0512
%
G90
G05
T1
X5.5275Y-2.4089
X5.71Y-2.47
X5.86Y-2.4625
X5.9Y-2.505
X6.22Y-2.07
T2
X4.755Y-1.735
X4.755Y-3.915
X4.8975Y-2.4825
X4.8975Y-2.6794
X4.9Y-2.3425
X4.9Y-2.9631
X4.9Y-3.16
X4.9Y-3.305
X5.1122Y-2.62
X5.1122Y-3.045
X5.155Y-1.735
X5.155Y-3.915
X5.25Y-2.62
X5.25Y-3.045
X5.3Y-2.3425
X5.3Y-3.305
X5.44Y-2.575
X5.44Y-2.7075
X5.44Y-2.84
X5.44Y-2.98
X5.4431Y-3.3075
X5.445Y-2.34
X5.64Y-3.3075
X5.6419Y-2.34
X5.74Y-2.7075
X5.84Y-2.575
X5.84Y-2.84
X5.84Y-2.98
X5.9031Y-2.34
X5.905Y-3.305
X6.1Y-2.34
X6.1019Y-3.305
X6.3Y-1.74
X6.3Y-2.14
X6.3Y-3.525
X6.3Y-3.925
T3
X5.095Y-3.5131
X5.095Y-3.71
X5.0975Y-1.9406
X5.0975Y-2.1375
X5.3999Y-3.6001
X5.402Y-2.0866
X5.4499Y-3.8001
X5.452Y-1.8866
X5.4999Y-3.6001
X5.502Y-2.0866
X5.5499Y-3.8001
X5.552Y-1.8866
X5.5999Y-3.6001
X5.602Y-2.0866
X5.6499Y-3.8001
X5.652Y-1.8866
X5.6999Y-3.6001
X5.702Y-2.0866
X5.7499Y-3.8001
X5.752Y-1.8866
X5.7999Y-3.6001
X5.802Y-2.0866
X5.8499Y-3.8001
X5.852Y-1.8866
X5.8999Y-3.6001
X5.902Y-2.0866
X5.9499Y-3.8001
X5.952Y-1.8866
X5.9999Y-3.6001
X6.002Y-2.0866
X6.0499Y-3.8001
X6.052Y-1.8866
X6.0999Y-3.6001
X6.102Y-2.0866
X6.415Y-2.4025
X6.415Y-2.5994
X6.415Y-2.9281
X6.415Y-3.125
X6.975Y-2.5
X7.075Y-2.5
X7.175Y-2.5
T4
X6.71Y-1.865
X6.71Y-2.1603
X6.71Y-3.445
X6.71Y-3.7403
T5
X4.62Y-2.0131
X4.62Y-2.21
X4.62Y-2.4681
X4.62Y-2.665
X4.62Y-2.9481
X4.62Y-3.145
X4.62Y-3.4081
X4.62Y-3.605
X7.035Y-2.715
X7.035Y-2.9119
X7.035Y-3.1087
T0
M30
