G04 #@! TF.GenerationSoftware,KiCad,Pcbnew,(5.1.9-0-10_14)*
G04 #@! TF.CreationDate,2021-01-01T19:24:52-08:00*
G04 #@! TF.ProjectId,PedalBoardAmpSt,50656461-6c42-46f6-9172-64416d705374,rev?*
G04 #@! TF.SameCoordinates,Original*
G04 #@! TF.FileFunction,Copper,L2,Bot*
G04 #@! TF.FilePolarity,Positive*
%FSLAX46Y46*%
G04 Gerber Fmt 4.6, Leading zero omitted, Abs format (unit mm)*
G04 Created by KiCad (PCBNEW (5.1.9-0-10_14)) date 2021-01-01 19:24:52*
%MOMM*%
%LPD*%
G01*
G04 APERTURE LIST*
G04 #@! TA.AperFunction,ComponentPad*
%ADD10O,1.700000X1.700000*%
G04 #@! TD*
G04 #@! TA.AperFunction,ComponentPad*
%ADD11R,1.700000X1.700000*%
G04 #@! TD*
G04 #@! TA.AperFunction,ComponentPad*
%ADD12C,2.500000*%
G04 #@! TD*
G04 #@! TA.AperFunction,ComponentPad*
%ADD13R,2.500000X2.500000*%
G04 #@! TD*
G04 #@! TA.AperFunction,ComponentPad*
%ADD14C,2.000000*%
G04 #@! TD*
G04 #@! TA.AperFunction,ComponentPad*
%ADD15R,2.000000X2.000000*%
G04 #@! TD*
G04 #@! TA.AperFunction,ComponentPad*
%ADD16C,1.600000*%
G04 #@! TD*
G04 #@! TA.AperFunction,ComponentPad*
%ADD17R,1.600000X1.600000*%
G04 #@! TD*
G04 #@! TA.AperFunction,ComponentPad*
%ADD18O,1.600000X1.600000*%
G04 #@! TD*
G04 #@! TA.AperFunction,ComponentPad*
%ADD19O,1.800000X1.800000*%
G04 #@! TD*
G04 #@! TA.AperFunction,ComponentPad*
%ADD20R,1.800000X1.800000*%
G04 #@! TD*
G04 #@! TA.AperFunction,ComponentPad*
%ADD21C,2.400000*%
G04 #@! TD*
G04 #@! TA.AperFunction,ComponentPad*
%ADD22R,2.400000X2.400000*%
G04 #@! TD*
G04 #@! TA.AperFunction,ViaPad*
%ADD23C,0.800000*%
G04 #@! TD*
G04 #@! TA.AperFunction,Conductor*
%ADD24C,2.032000*%
G04 #@! TD*
G04 #@! TA.AperFunction,Conductor*
%ADD25C,0.508000*%
G04 #@! TD*
G04 #@! TA.AperFunction,Conductor*
%ADD26C,1.270000*%
G04 #@! TD*
G04 #@! TA.AperFunction,Conductor*
%ADD27C,0.254000*%
G04 #@! TD*
G04 #@! TA.AperFunction,Conductor*
%ADD28C,0.100000*%
G04 #@! TD*
G04 APERTURE END LIST*
D10*
X182245000Y-63500000D03*
X179705000Y-63500000D03*
D11*
X177165000Y-63500000D03*
D12*
X178689000Y-78961000D03*
X178689000Y-73961000D03*
D13*
X178689000Y-68961000D03*
D12*
X117348000Y-86567000D03*
D13*
X117348000Y-91567000D03*
D12*
X117348000Y-74883000D03*
D13*
X117348000Y-79883000D03*
D12*
X117348000Y-51134000D03*
D13*
X117348000Y-56134000D03*
D12*
X117348000Y-62691000D03*
D13*
X117348000Y-67691000D03*
D14*
X129413000Y-94234000D03*
D15*
X129413000Y-89234000D03*
D14*
X129476500Y-49292500D03*
D15*
X129476500Y-54292500D03*
D16*
X129850000Y-66548000D03*
D17*
X133350000Y-66548000D03*
D16*
X129850000Y-77343000D03*
D17*
X133350000Y-77343000D03*
D14*
X162941000Y-66023500D03*
D15*
X162941000Y-61023500D03*
D14*
X162941000Y-74375000D03*
D15*
X162941000Y-79375000D03*
D18*
X148336000Y-75692000D03*
D16*
X138176000Y-75692000D03*
X149987000Y-83947000D03*
X154987000Y-83947000D03*
D19*
X137156500Y-91443500D03*
X138426500Y-96523500D03*
X139696500Y-91443500D03*
X140966500Y-96523500D03*
X142236500Y-91443500D03*
X143506500Y-96523500D03*
X144776500Y-91443500D03*
X146046500Y-96523500D03*
X147316500Y-91443500D03*
X148586500Y-96523500D03*
X149856500Y-91443500D03*
X151126500Y-96523500D03*
X152396500Y-91443500D03*
X153666500Y-96523500D03*
D20*
X154936500Y-91443500D03*
D18*
X130937000Y-99441000D03*
D16*
X120777000Y-99441000D03*
D18*
X124460000Y-83947000D03*
D16*
X134620000Y-83947000D03*
D18*
X160020000Y-89535000D03*
D16*
X160020000Y-99695000D03*
X138256000Y-84010500D03*
X143256000Y-84010500D03*
X124460000Y-75264000D03*
X124460000Y-80264000D03*
D19*
X154990000Y-53000000D03*
X153720000Y-47920000D03*
X152450000Y-53000000D03*
X151180000Y-47920000D03*
X149910000Y-53000000D03*
X148640000Y-47920000D03*
X147370000Y-53000000D03*
X146100000Y-47920000D03*
X144830000Y-53000000D03*
X143560000Y-47920000D03*
X142290000Y-53000000D03*
X141020000Y-47920000D03*
X139750000Y-53000000D03*
X138480000Y-47920000D03*
D20*
X137210000Y-53000000D03*
D18*
X130937000Y-44069000D03*
D16*
X120777000Y-44069000D03*
D18*
X148336000Y-65405000D03*
D16*
X138176000Y-65405000D03*
D18*
X148336000Y-72136000D03*
D16*
X138176000Y-72136000D03*
D18*
X124460000Y-59499500D03*
D16*
X134620000Y-59499500D03*
D18*
X160020000Y-54356000D03*
D16*
X160020000Y-44196000D03*
D18*
X138176000Y-68770500D03*
D17*
X145796000Y-68770500D03*
D21*
X170434000Y-54871000D03*
D22*
X170434000Y-47371000D03*
D16*
X149940000Y-59436000D03*
X154940000Y-59436000D03*
D21*
X170434000Y-95003000D03*
D22*
X170434000Y-87503000D03*
D16*
X138303000Y-59436000D03*
X143303000Y-59436000D03*
X124396500Y-68055500D03*
X124396500Y-63055500D03*
D23*
X148844000Y-62547500D03*
X140398500Y-61185490D03*
X157988000Y-52578000D03*
X145034000Y-62738000D03*
X149860000Y-63627000D03*
D24*
X178689000Y-86748000D02*
X170434000Y-95003000D01*
X178689000Y-78961000D02*
X178689000Y-86748000D01*
X177165000Y-54102000D02*
X177165000Y-63500000D01*
X170434000Y-47371000D02*
X177165000Y-54102000D01*
D25*
X160020000Y-55499000D02*
X160020000Y-54356000D01*
X162941000Y-58420000D02*
X160020000Y-55499000D01*
X162941000Y-61023500D02*
X162941000Y-58420000D01*
X117395000Y-68055500D02*
X117348000Y-68008500D01*
D26*
X124396500Y-68055500D02*
X117395000Y-68055500D01*
D25*
X139750000Y-54560000D02*
X137922000Y-56388000D01*
X127571500Y-56388000D02*
X124460000Y-59499500D01*
X137922000Y-56388000D02*
X127571500Y-56388000D01*
X139750000Y-53000000D02*
X139750000Y-54560000D01*
X124396500Y-59563000D02*
X124460000Y-59499500D01*
X124396500Y-63055500D02*
X124396500Y-59563000D01*
X145859500Y-68770500D02*
X145224500Y-68770500D01*
X148336000Y-66294000D02*
X145859500Y-68770500D01*
X148336000Y-65405000D02*
X148336000Y-66294000D01*
X138480000Y-43511000D02*
X138480000Y-47920000D01*
X139319000Y-42672000D02*
X138480000Y-43511000D01*
X158496000Y-42672000D02*
X139319000Y-42672000D01*
X160020000Y-44196000D02*
X158496000Y-42672000D01*
X132905500Y-44069000D02*
X130937000Y-44069000D01*
X136756500Y-47920000D02*
X132905500Y-44069000D01*
X138480000Y-47920000D02*
X136756500Y-47920000D01*
X159893000Y-88011000D02*
X163004500Y-84899500D01*
X163004500Y-84899500D02*
X163004500Y-78994000D01*
X159893000Y-89535000D02*
X159893000Y-88011000D01*
D26*
X119904500Y-79883000D02*
X124523500Y-75264000D01*
X117348000Y-79883000D02*
X119904500Y-79883000D01*
D25*
X124523500Y-84010500D02*
X124523500Y-80264000D01*
X159893000Y-99949000D02*
X159893000Y-100012500D01*
X156467500Y-96523500D02*
X159893000Y-99949000D01*
X153666500Y-96523500D02*
X156467500Y-96523500D01*
X131000500Y-99504500D02*
X131000500Y-99631500D01*
X132334000Y-100838000D02*
X131000500Y-99504500D01*
X153162000Y-100838000D02*
X132334000Y-100838000D01*
X153666500Y-100333500D02*
X153162000Y-100838000D01*
X153666500Y-96523500D02*
X153666500Y-100333500D01*
D24*
X142240000Y-82994500D02*
X143256000Y-84010500D01*
X142240000Y-60499000D02*
X142240000Y-82994500D01*
X144830000Y-57909000D02*
X142240000Y-60499000D01*
X144830000Y-53000000D02*
X144830000Y-57909000D01*
X137156500Y-93214500D02*
X137156500Y-91443500D01*
X137985500Y-94043500D02*
X137156500Y-93214500D01*
X144716500Y-94043500D02*
X137985500Y-94043500D01*
X146046500Y-95373500D02*
X144716500Y-94043500D01*
X154990000Y-59386000D02*
X154940000Y-59436000D01*
X154990000Y-53000000D02*
X154990000Y-59386000D01*
X154990000Y-50771318D02*
X154990000Y-50898318D01*
X154990000Y-51279318D02*
X154990000Y-53000000D01*
X154990000Y-50898318D02*
X154990000Y-51279318D01*
X155836001Y-49925317D02*
X154990000Y-50771318D01*
X146100000Y-46647208D02*
X147154208Y-45593000D01*
X146100000Y-47920000D02*
X146100000Y-46647208D01*
X154813000Y-45593000D02*
X155836001Y-46616001D01*
X147154208Y-45593000D02*
X154813000Y-45593000D01*
D25*
X155836001Y-47886001D02*
X155829000Y-47879000D01*
D24*
X155829000Y-47879000D02*
X155836001Y-49925317D01*
X155836001Y-46616001D02*
X155836001Y-47886001D01*
X178689000Y-68961000D02*
X173228000Y-68961000D01*
X156196319Y-49564999D02*
X154990000Y-50771318D01*
X164880999Y-49564999D02*
X156196319Y-49564999D01*
X170187000Y-54871000D02*
X164880999Y-49564999D01*
X170434000Y-54871000D02*
X170187000Y-54871000D01*
X171450000Y-55887000D02*
X170434000Y-54871000D01*
X171450000Y-68961000D02*
X171450000Y-55887000D01*
X178689000Y-68961000D02*
X171450000Y-68961000D01*
X157353000Y-86313000D02*
X154987000Y-83947000D01*
X157353000Y-93345000D02*
X157353000Y-86313000D01*
X156654500Y-94043500D02*
X157353000Y-93345000D01*
X147510500Y-94043500D02*
X156654500Y-94043500D01*
X146046500Y-95507500D02*
X147510500Y-94043500D01*
X146046500Y-96523500D02*
X146046500Y-95507500D01*
X161544000Y-68961000D02*
X178689000Y-68961000D01*
X155067000Y-75438000D02*
X161544000Y-68961000D01*
X155067000Y-83867000D02*
X155067000Y-75438000D01*
X154987000Y-83947000D02*
X155067000Y-83867000D01*
D25*
X132461000Y-78232000D02*
X133350000Y-77343000D01*
X132461000Y-94488000D02*
X132461000Y-78232000D01*
X136461500Y-98488500D02*
X132461000Y-94488000D01*
X142811500Y-98488500D02*
X136461500Y-98488500D01*
X143506500Y-97793500D02*
X142811500Y-98488500D01*
X143506500Y-96523500D02*
X143506500Y-97793500D01*
X137985500Y-68770500D02*
X138176000Y-68770500D01*
X133350000Y-73406000D02*
X137985500Y-68770500D01*
X133350000Y-77343000D02*
X133350000Y-73406000D01*
X149517423Y-62147501D02*
X149917422Y-62547500D01*
X148844000Y-62547500D02*
X149243999Y-62147501D01*
X149243999Y-62147501D02*
X149517423Y-62147501D01*
X157988000Y-61214000D02*
X157988000Y-52578000D01*
X156654500Y-62547500D02*
X157988000Y-61214000D01*
X149917422Y-62547500D02*
X156654500Y-62547500D01*
X138176000Y-63407990D02*
X140398500Y-61185490D01*
X138176000Y-68770500D02*
X138176000Y-63407990D01*
X145034000Y-60706000D02*
X145034000Y-62738000D01*
X147370000Y-58370000D02*
X145034000Y-60706000D01*
X147370000Y-53000000D02*
X147370000Y-58370000D01*
X144776500Y-91443500D02*
X144776500Y-73282500D01*
X149860000Y-68199000D02*
X149860000Y-63627000D01*
X144776500Y-73282500D02*
X149860000Y-68199000D01*
D24*
X117411500Y-51388000D02*
X117348000Y-51451500D01*
X117411500Y-50800000D02*
X117411500Y-51388000D01*
X120777000Y-47705000D02*
X117348000Y-51134000D01*
X120777000Y-44069000D02*
X120777000Y-47705000D01*
D25*
X143560000Y-47920000D02*
X143560000Y-49607000D01*
X143129000Y-50038000D02*
X133731000Y-50038000D01*
X143560000Y-49607000D02*
X143129000Y-50038000D01*
X133731000Y-50038000D02*
X129476500Y-54292500D01*
D24*
X122047000Y-99441000D02*
X120777000Y-99441000D01*
X127254000Y-94234000D02*
X122047000Y-99441000D01*
X129413000Y-94234000D02*
X127254000Y-94234000D01*
D25*
X131191000Y-91012000D02*
X129413000Y-89234000D01*
X134366000Y-99568000D02*
X131191000Y-96393000D01*
X131191000Y-96393000D02*
X131191000Y-91012000D01*
X146939000Y-99568000D02*
X134366000Y-99568000D01*
X148586500Y-97920500D02*
X146939000Y-99568000D01*
X148586500Y-96523500D02*
X148586500Y-97920500D01*
X148336000Y-72199500D02*
X148336000Y-75692000D01*
D27*
X184760000Y-100940018D02*
X160738673Y-100940657D01*
X160934759Y-100809637D01*
X161134637Y-100609759D01*
X161291680Y-100374727D01*
X161399853Y-100113574D01*
X161455000Y-99836335D01*
X161455000Y-99553665D01*
X161399853Y-99276426D01*
X161291680Y-99015273D01*
X161134637Y-98780241D01*
X160934759Y-98580363D01*
X160699727Y-98423320D01*
X160438574Y-98315147D01*
X160161335Y-98260000D01*
X159878665Y-98260000D01*
X159601426Y-98315147D01*
X159541291Y-98340056D01*
X159025107Y-97823872D01*
X179629000Y-97823872D01*
X179629000Y-98264128D01*
X179714890Y-98695925D01*
X179883369Y-99102669D01*
X180127962Y-99468729D01*
X180439271Y-99780038D01*
X180805331Y-100024631D01*
X181212075Y-100193110D01*
X181643872Y-100279000D01*
X182084128Y-100279000D01*
X182515925Y-100193110D01*
X182922669Y-100024631D01*
X183288729Y-99780038D01*
X183600038Y-99468729D01*
X183844631Y-99102669D01*
X184013110Y-98695925D01*
X184099000Y-98264128D01*
X184099000Y-97823872D01*
X184013110Y-97392075D01*
X183844631Y-96985331D01*
X183600038Y-96619271D01*
X183288729Y-96307962D01*
X182922669Y-96063369D01*
X182515925Y-95894890D01*
X182084128Y-95809000D01*
X181643872Y-95809000D01*
X181212075Y-95894890D01*
X180805331Y-96063369D01*
X180439271Y-96307962D01*
X180127962Y-96619271D01*
X179883369Y-96985331D01*
X179714890Y-97392075D01*
X179629000Y-97823872D01*
X159025107Y-97823872D01*
X157482215Y-96280980D01*
X169335626Y-96280980D01*
X169455514Y-96565836D01*
X169779210Y-96726699D01*
X170128069Y-96821322D01*
X170488684Y-96846067D01*
X170847198Y-96799985D01*
X171189833Y-96684846D01*
X171412486Y-96565836D01*
X171532374Y-96280980D01*
X170434000Y-95182605D01*
X169335626Y-96280980D01*
X157482215Y-96280980D01*
X157126999Y-95925764D01*
X157099159Y-95891841D01*
X156963791Y-95780747D01*
X156809351Y-95698197D01*
X156782075Y-95689923D01*
X156978153Y-95670611D01*
X157289367Y-95576205D01*
X157576184Y-95422898D01*
X157827582Y-95216582D01*
X157879287Y-95153579D01*
X157975182Y-95057684D01*
X168590933Y-95057684D01*
X168637015Y-95416198D01*
X168752154Y-95758833D01*
X168871164Y-95981486D01*
X169156020Y-96101374D01*
X170254395Y-95003000D01*
X170613605Y-95003000D01*
X171711980Y-96101374D01*
X171996836Y-95981486D01*
X172157699Y-95657790D01*
X172252322Y-95308931D01*
X172277067Y-94948316D01*
X172230985Y-94589802D01*
X172115846Y-94247167D01*
X171996836Y-94024514D01*
X171711980Y-93904626D01*
X170613605Y-95003000D01*
X170254395Y-95003000D01*
X169156020Y-93904626D01*
X168871164Y-94024514D01*
X168710301Y-94348210D01*
X168615678Y-94697069D01*
X168590933Y-95057684D01*
X157975182Y-95057684D01*
X158463080Y-94569786D01*
X158526082Y-94518082D01*
X158732398Y-94266684D01*
X158885705Y-93979867D01*
X158963012Y-93725020D01*
X169335626Y-93725020D01*
X170434000Y-94823395D01*
X171532374Y-93725020D01*
X171412486Y-93440164D01*
X171088790Y-93279301D01*
X170739931Y-93184678D01*
X170379316Y-93159933D01*
X170020802Y-93206015D01*
X169678167Y-93321154D01*
X169455514Y-93440164D01*
X169335626Y-93725020D01*
X158963012Y-93725020D01*
X158980111Y-93668653D01*
X159004000Y-93426104D01*
X159004000Y-93426102D01*
X159011988Y-93345001D01*
X159004000Y-93263900D01*
X159004000Y-90548396D01*
X159105241Y-90649637D01*
X159340273Y-90806680D01*
X159601426Y-90914853D01*
X159878665Y-90970000D01*
X160161335Y-90970000D01*
X160438574Y-90914853D01*
X160699727Y-90806680D01*
X160934759Y-90649637D01*
X161134637Y-90449759D01*
X161291680Y-90214727D01*
X161399853Y-89953574D01*
X161455000Y-89676335D01*
X161455000Y-89393665D01*
X161399853Y-89116426D01*
X161291680Y-88855273D01*
X161134637Y-88620241D01*
X160934759Y-88420363D01*
X160818532Y-88342703D01*
X162858235Y-86303000D01*
X168595928Y-86303000D01*
X168595928Y-88703000D01*
X168608188Y-88827482D01*
X168644498Y-88947180D01*
X168703463Y-89057494D01*
X168782815Y-89154185D01*
X168879506Y-89233537D01*
X168989820Y-89292502D01*
X169109518Y-89328812D01*
X169234000Y-89341072D01*
X171634000Y-89341072D01*
X171758482Y-89328812D01*
X171878180Y-89292502D01*
X171988494Y-89233537D01*
X172085185Y-89154185D01*
X172164537Y-89057494D01*
X172223502Y-88947180D01*
X172259812Y-88827482D01*
X172272072Y-88703000D01*
X172272072Y-86303000D01*
X172259812Y-86178518D01*
X172223502Y-86058820D01*
X172164537Y-85948506D01*
X172085185Y-85851815D01*
X171988494Y-85772463D01*
X171878180Y-85713498D01*
X171758482Y-85677188D01*
X171634000Y-85664928D01*
X169234000Y-85664928D01*
X169109518Y-85677188D01*
X168989820Y-85713498D01*
X168879506Y-85772463D01*
X168782815Y-85851815D01*
X168703463Y-85948506D01*
X168644498Y-86058820D01*
X168608188Y-86178518D01*
X168595928Y-86303000D01*
X162858235Y-86303000D01*
X163602243Y-85558993D01*
X163636159Y-85531159D01*
X163747253Y-85395791D01*
X163829803Y-85241351D01*
X163860572Y-85139918D01*
X163880636Y-85073776D01*
X163890159Y-84977084D01*
X163893500Y-84943167D01*
X163893500Y-84943161D01*
X163897800Y-84899501D01*
X163893500Y-84855841D01*
X163893500Y-81013072D01*
X163941000Y-81013072D01*
X164065482Y-81000812D01*
X164185180Y-80964502D01*
X164295494Y-80905537D01*
X164392185Y-80826185D01*
X164471537Y-80729494D01*
X164530502Y-80619180D01*
X164566812Y-80499482D01*
X164579072Y-80375000D01*
X164579072Y-80274605D01*
X177555000Y-80274605D01*
X177680914Y-80564577D01*
X178013126Y-80730433D01*
X178371312Y-80828290D01*
X178741706Y-80854389D01*
X179110075Y-80807725D01*
X179462262Y-80690094D01*
X179697086Y-80564577D01*
X179823000Y-80274605D01*
X178689000Y-79140605D01*
X177555000Y-80274605D01*
X164579072Y-80274605D01*
X164579072Y-79013706D01*
X176795611Y-79013706D01*
X176842275Y-79382075D01*
X176959906Y-79734262D01*
X177085423Y-79969086D01*
X177375395Y-80095000D01*
X178509395Y-78961000D01*
X178868605Y-78961000D01*
X180002605Y-80095000D01*
X180292577Y-79969086D01*
X180458433Y-79636874D01*
X180556290Y-79278688D01*
X180582389Y-78908294D01*
X180535725Y-78539925D01*
X180418094Y-78187738D01*
X180292577Y-77952914D01*
X180002605Y-77827000D01*
X178868605Y-78961000D01*
X178509395Y-78961000D01*
X177375395Y-77827000D01*
X177085423Y-77952914D01*
X176919567Y-78285126D01*
X176821710Y-78643312D01*
X176795611Y-79013706D01*
X164579072Y-79013706D01*
X164579072Y-78375000D01*
X164566812Y-78250518D01*
X164530502Y-78130820D01*
X164471537Y-78020506D01*
X164392185Y-77923815D01*
X164295494Y-77844463D01*
X164185180Y-77785498D01*
X164065482Y-77749188D01*
X163941000Y-77736928D01*
X161941000Y-77736928D01*
X161816518Y-77749188D01*
X161696820Y-77785498D01*
X161586506Y-77844463D01*
X161489815Y-77923815D01*
X161410463Y-78020506D01*
X161351498Y-78130820D01*
X161315188Y-78250518D01*
X161302928Y-78375000D01*
X161302928Y-80375000D01*
X161315188Y-80499482D01*
X161351498Y-80619180D01*
X161410463Y-80729494D01*
X161489815Y-80826185D01*
X161586506Y-80905537D01*
X161696820Y-80964502D01*
X161816518Y-81000812D01*
X161941000Y-81013072D01*
X162115501Y-81013072D01*
X162115500Y-84531264D01*
X159295259Y-87351506D01*
X159261342Y-87379341D01*
X159233507Y-87413258D01*
X159233505Y-87413260D01*
X159150248Y-87514709D01*
X159067698Y-87669148D01*
X159016864Y-87836726D01*
X159004000Y-87967340D01*
X159004000Y-86394100D01*
X159011988Y-86312999D01*
X159004000Y-86231896D01*
X158980111Y-85989347D01*
X158885705Y-85678133D01*
X158787343Y-85494111D01*
X158732398Y-85391315D01*
X158577782Y-85202915D01*
X158526082Y-85139918D01*
X158463084Y-85088218D01*
X156718000Y-83343134D01*
X156718000Y-77647395D01*
X177555000Y-77647395D01*
X178689000Y-78781395D01*
X179823000Y-77647395D01*
X179697086Y-77357423D01*
X179364874Y-77191567D01*
X179006688Y-77093710D01*
X178636294Y-77067611D01*
X178267925Y-77114275D01*
X177915738Y-77231906D01*
X177680914Y-77357423D01*
X177555000Y-77647395D01*
X156718000Y-77647395D01*
X156718000Y-76121866D01*
X157329453Y-75510413D01*
X161985192Y-75510413D01*
X162080956Y-75774814D01*
X162370571Y-75915704D01*
X162682108Y-75997384D01*
X163003595Y-76016718D01*
X163322675Y-75972961D01*
X163627088Y-75867795D01*
X163801044Y-75774814D01*
X163896808Y-75510413D01*
X162941000Y-74554605D01*
X161985192Y-75510413D01*
X157329453Y-75510413D01*
X158402271Y-74437595D01*
X161299282Y-74437595D01*
X161343039Y-74756675D01*
X161448205Y-75061088D01*
X161541186Y-75235044D01*
X161805587Y-75330808D01*
X162761395Y-74375000D01*
X163120605Y-74375000D01*
X164076413Y-75330808D01*
X164340814Y-75235044D01*
X164481704Y-74945429D01*
X164563384Y-74633892D01*
X164582718Y-74312405D01*
X164538961Y-73993325D01*
X164463655Y-73775344D01*
X176804000Y-73775344D01*
X176804000Y-74146656D01*
X176876439Y-74510834D01*
X177018534Y-74853882D01*
X177224825Y-75162618D01*
X177487382Y-75425175D01*
X177796118Y-75631466D01*
X178139166Y-75773561D01*
X178503344Y-75846000D01*
X178874656Y-75846000D01*
X179238834Y-75773561D01*
X179581882Y-75631466D01*
X179890618Y-75425175D01*
X180153175Y-75162618D01*
X180359466Y-74853882D01*
X180501561Y-74510834D01*
X180574000Y-74146656D01*
X180574000Y-73775344D01*
X180501561Y-73411166D01*
X180359466Y-73068118D01*
X180153175Y-72759382D01*
X179890618Y-72496825D01*
X179581882Y-72290534D01*
X179238834Y-72148439D01*
X178874656Y-72076000D01*
X178503344Y-72076000D01*
X178139166Y-72148439D01*
X177796118Y-72290534D01*
X177487382Y-72496825D01*
X177224825Y-72759382D01*
X177018534Y-73068118D01*
X176876439Y-73411166D01*
X176804000Y-73775344D01*
X164463655Y-73775344D01*
X164433795Y-73688912D01*
X164340814Y-73514956D01*
X164076413Y-73419192D01*
X163120605Y-74375000D01*
X162761395Y-74375000D01*
X161805587Y-73419192D01*
X161541186Y-73514956D01*
X161400296Y-73804571D01*
X161318616Y-74116108D01*
X161299282Y-74437595D01*
X158402271Y-74437595D01*
X159600279Y-73239587D01*
X161985192Y-73239587D01*
X162941000Y-74195395D01*
X163896808Y-73239587D01*
X163801044Y-72975186D01*
X163511429Y-72834296D01*
X163199892Y-72752616D01*
X162878405Y-72733282D01*
X162559325Y-72777039D01*
X162254912Y-72882205D01*
X162080956Y-72975186D01*
X161985192Y-73239587D01*
X159600279Y-73239587D01*
X162227867Y-70612000D01*
X171368896Y-70612000D01*
X171450000Y-70619988D01*
X171531103Y-70612000D01*
X176946629Y-70612000D01*
X176987815Y-70662185D01*
X177084506Y-70741537D01*
X177194820Y-70800502D01*
X177314518Y-70836812D01*
X177439000Y-70849072D01*
X179939000Y-70849072D01*
X180063482Y-70836812D01*
X180183180Y-70800502D01*
X180293494Y-70741537D01*
X180390185Y-70662185D01*
X180469537Y-70565494D01*
X180528502Y-70455180D01*
X180564812Y-70335482D01*
X180577072Y-70211000D01*
X180577072Y-67711000D01*
X180564812Y-67586518D01*
X180528502Y-67466820D01*
X180469537Y-67356506D01*
X180390185Y-67259815D01*
X180293494Y-67180463D01*
X180183180Y-67121498D01*
X180063482Y-67085188D01*
X179939000Y-67072928D01*
X177439000Y-67072928D01*
X177314518Y-67085188D01*
X177194820Y-67121498D01*
X177084506Y-67180463D01*
X176987815Y-67259815D01*
X176946629Y-67310000D01*
X173101000Y-67310000D01*
X173101000Y-64350000D01*
X175676928Y-64350000D01*
X175689188Y-64474482D01*
X175725498Y-64594180D01*
X175784463Y-64704494D01*
X175863815Y-64801185D01*
X175960506Y-64880537D01*
X176070820Y-64939502D01*
X176190518Y-64975812D01*
X176315000Y-64988072D01*
X176879250Y-64985000D01*
X177038000Y-64826250D01*
X177038000Y-63627000D01*
X175838750Y-63627000D01*
X175680000Y-63785750D01*
X175676928Y-64350000D01*
X173101000Y-64350000D01*
X173101000Y-62650000D01*
X175676928Y-62650000D01*
X175680000Y-63214250D01*
X175838750Y-63373000D01*
X177038000Y-63373000D01*
X177038000Y-62173750D01*
X177292000Y-62173750D01*
X177292000Y-63373000D01*
X177312000Y-63373000D01*
X177312000Y-63627000D01*
X177292000Y-63627000D01*
X177292000Y-64826250D01*
X177450750Y-64985000D01*
X178015000Y-64988072D01*
X178139482Y-64975812D01*
X178259180Y-64939502D01*
X178369494Y-64880537D01*
X178466185Y-64801185D01*
X178545537Y-64704494D01*
X178604502Y-64594180D01*
X178626513Y-64521620D01*
X178758368Y-64653475D01*
X179001589Y-64815990D01*
X179271842Y-64927932D01*
X179558740Y-64985000D01*
X179851260Y-64985000D01*
X180138158Y-64927932D01*
X180408411Y-64815990D01*
X180651632Y-64653475D01*
X180858475Y-64446632D01*
X180975000Y-64272240D01*
X181091525Y-64446632D01*
X181298368Y-64653475D01*
X181541589Y-64815990D01*
X181811842Y-64927932D01*
X182098740Y-64985000D01*
X182391260Y-64985000D01*
X182678158Y-64927932D01*
X182948411Y-64815990D01*
X183191632Y-64653475D01*
X183398475Y-64446632D01*
X183560990Y-64203411D01*
X183672932Y-63933158D01*
X183730000Y-63646260D01*
X183730000Y-63353740D01*
X183672932Y-63066842D01*
X183560990Y-62796589D01*
X183398475Y-62553368D01*
X183191632Y-62346525D01*
X182948411Y-62184010D01*
X182678158Y-62072068D01*
X182391260Y-62015000D01*
X182098740Y-62015000D01*
X181811842Y-62072068D01*
X181541589Y-62184010D01*
X181298368Y-62346525D01*
X181091525Y-62553368D01*
X180975000Y-62727760D01*
X180858475Y-62553368D01*
X180651632Y-62346525D01*
X180408411Y-62184010D01*
X180138158Y-62072068D01*
X179851260Y-62015000D01*
X179558740Y-62015000D01*
X179271842Y-62072068D01*
X179001589Y-62184010D01*
X178758368Y-62346525D01*
X178626513Y-62478380D01*
X178604502Y-62405820D01*
X178545537Y-62295506D01*
X178466185Y-62198815D01*
X178369494Y-62119463D01*
X178259180Y-62060498D01*
X178139482Y-62024188D01*
X178015000Y-62011928D01*
X177450750Y-62015000D01*
X177292000Y-62173750D01*
X177038000Y-62173750D01*
X176879250Y-62015000D01*
X176315000Y-62011928D01*
X176190518Y-62024188D01*
X176070820Y-62060498D01*
X175960506Y-62119463D01*
X175863815Y-62198815D01*
X175784463Y-62295506D01*
X175725498Y-62405820D01*
X175689188Y-62525518D01*
X175676928Y-62650000D01*
X173101000Y-62650000D01*
X173101000Y-55968101D01*
X173108988Y-55887000D01*
X173101000Y-55805896D01*
X173077111Y-55563347D01*
X172982705Y-55252133D01*
X172829398Y-54965316D01*
X172623082Y-54713918D01*
X172560079Y-54662213D01*
X172173639Y-54275773D01*
X172060156Y-54001801D01*
X171859338Y-53701256D01*
X171603744Y-53445662D01*
X171303199Y-53244844D01*
X170969250Y-53106518D01*
X170704777Y-53053911D01*
X166221866Y-48571000D01*
X168595928Y-48571000D01*
X168608188Y-48695482D01*
X168644498Y-48815180D01*
X168703463Y-48925494D01*
X168782815Y-49022185D01*
X168879506Y-49101537D01*
X168989820Y-49160502D01*
X169109518Y-49196812D01*
X169234000Y-49209072D01*
X170148250Y-49206000D01*
X170307000Y-49047250D01*
X170307000Y-47498000D01*
X170561000Y-47498000D01*
X170561000Y-49047250D01*
X170719750Y-49206000D01*
X171634000Y-49209072D01*
X171758482Y-49196812D01*
X171878180Y-49160502D01*
X171988494Y-49101537D01*
X172085185Y-49022185D01*
X172164537Y-48925494D01*
X172223502Y-48815180D01*
X172259812Y-48695482D01*
X172272072Y-48571000D01*
X172269000Y-47656750D01*
X172110250Y-47498000D01*
X170561000Y-47498000D01*
X170307000Y-47498000D01*
X168757750Y-47498000D01*
X168599000Y-47656750D01*
X168595928Y-48571000D01*
X166221866Y-48571000D01*
X166105786Y-48454920D01*
X166054081Y-48391917D01*
X165802683Y-48185601D01*
X165515866Y-48032294D01*
X165204652Y-47937888D01*
X164962103Y-47913999D01*
X164962100Y-47913999D01*
X164880999Y-47906011D01*
X164799898Y-47913999D01*
X157487001Y-47913999D01*
X157487001Y-46697102D01*
X157494989Y-46616001D01*
X157487001Y-46534897D01*
X157463112Y-46292348D01*
X157426302Y-46171000D01*
X168595928Y-46171000D01*
X168599000Y-47085250D01*
X168757750Y-47244000D01*
X170307000Y-47244000D01*
X170307000Y-45694750D01*
X170561000Y-45694750D01*
X170561000Y-47244000D01*
X172110250Y-47244000D01*
X172269000Y-47085250D01*
X172272072Y-46171000D01*
X172259812Y-46046518D01*
X172223502Y-45926820D01*
X172164537Y-45816506D01*
X172085185Y-45719815D01*
X171988494Y-45640463D01*
X171878180Y-45581498D01*
X171758482Y-45545188D01*
X171634000Y-45532928D01*
X170719750Y-45536000D01*
X170561000Y-45694750D01*
X170307000Y-45694750D01*
X170148250Y-45536000D01*
X169234000Y-45532928D01*
X169109518Y-45545188D01*
X168989820Y-45581498D01*
X168879506Y-45640463D01*
X168782815Y-45719815D01*
X168703463Y-45816506D01*
X168644498Y-45926820D01*
X168608188Y-46046518D01*
X168595928Y-46171000D01*
X157426302Y-46171000D01*
X157368706Y-45981134D01*
X157215399Y-45694317D01*
X157009083Y-45442919D01*
X156946081Y-45391215D01*
X156037787Y-44482921D01*
X155986082Y-44419918D01*
X155734684Y-44213602D01*
X155447867Y-44060295D01*
X155136653Y-43965889D01*
X154894104Y-43942000D01*
X154894101Y-43942000D01*
X154813000Y-43934012D01*
X154731899Y-43942000D01*
X147235308Y-43942000D01*
X147154207Y-43934012D01*
X147073106Y-43942000D01*
X147073104Y-43942000D01*
X146830555Y-43965889D01*
X146519341Y-44060295D01*
X146385830Y-44131658D01*
X146232523Y-44213602D01*
X146141083Y-44288645D01*
X145981126Y-44419918D01*
X145929421Y-44482921D01*
X144989916Y-45422426D01*
X144926919Y-45474126D01*
X144875219Y-45537123D01*
X144875218Y-45537124D01*
X144720602Y-45725525D01*
X144583976Y-45981135D01*
X144567296Y-46012341D01*
X144472889Y-46323555D01*
X144452367Y-46531919D01*
X144441012Y-46647208D01*
X144442629Y-46663626D01*
X144287095Y-46559701D01*
X144007743Y-46443989D01*
X143711184Y-46385000D01*
X143408816Y-46385000D01*
X143112257Y-46443989D01*
X142832905Y-46559701D01*
X142581495Y-46727688D01*
X142367688Y-46941495D01*
X142290000Y-47057763D01*
X142212312Y-46941495D01*
X141998505Y-46727688D01*
X141747095Y-46559701D01*
X141467743Y-46443989D01*
X141171184Y-46385000D01*
X140868816Y-46385000D01*
X140572257Y-46443989D01*
X140292905Y-46559701D01*
X140041495Y-46727688D01*
X139827688Y-46941495D01*
X139750000Y-47057763D01*
X139672312Y-46941495D01*
X139458505Y-46727688D01*
X139369000Y-46667883D01*
X139369000Y-43879235D01*
X139687236Y-43561000D01*
X158127765Y-43561000D01*
X158591044Y-44024280D01*
X158585000Y-44054665D01*
X158585000Y-44337335D01*
X158640147Y-44614574D01*
X158748320Y-44875727D01*
X158905363Y-45110759D01*
X159105241Y-45310637D01*
X159340273Y-45467680D01*
X159601426Y-45575853D01*
X159878665Y-45631000D01*
X160161335Y-45631000D01*
X160438574Y-45575853D01*
X160699727Y-45467680D01*
X160934759Y-45310637D01*
X161134637Y-45110759D01*
X161291680Y-44875727D01*
X161399853Y-44614574D01*
X161451113Y-44356872D01*
X179629000Y-44356872D01*
X179629000Y-44797128D01*
X179714890Y-45228925D01*
X179883369Y-45635669D01*
X180127962Y-46001729D01*
X180439271Y-46313038D01*
X180805331Y-46557631D01*
X181212075Y-46726110D01*
X181643872Y-46812000D01*
X182084128Y-46812000D01*
X182515925Y-46726110D01*
X182922669Y-46557631D01*
X183288729Y-46313038D01*
X183600038Y-46001729D01*
X183844631Y-45635669D01*
X184013110Y-45228925D01*
X184099000Y-44797128D01*
X184099000Y-44356872D01*
X184013110Y-43925075D01*
X183844631Y-43518331D01*
X183600038Y-43152271D01*
X183288729Y-42840962D01*
X182922669Y-42596369D01*
X182515925Y-42427890D01*
X182084128Y-42342000D01*
X181643872Y-42342000D01*
X181212075Y-42427890D01*
X180805331Y-42596369D01*
X180439271Y-42840962D01*
X180127962Y-43152271D01*
X179883369Y-43518331D01*
X179714890Y-43925075D01*
X179629000Y-44356872D01*
X161451113Y-44356872D01*
X161455000Y-44337335D01*
X161455000Y-44054665D01*
X161399853Y-43777426D01*
X161291680Y-43516273D01*
X161134637Y-43281241D01*
X160934759Y-43081363D01*
X160699727Y-42924320D01*
X160438574Y-42816147D01*
X160161335Y-42761000D01*
X159878665Y-42761000D01*
X159848280Y-42767044D01*
X159155499Y-42074264D01*
X159127659Y-42040341D01*
X158992291Y-41929247D01*
X158837851Y-41846697D01*
X158670274Y-41795864D01*
X158539667Y-41783000D01*
X158539660Y-41783000D01*
X158496000Y-41778700D01*
X158452340Y-41783000D01*
X139362659Y-41783000D01*
X139318999Y-41778700D01*
X139275339Y-41783000D01*
X139275333Y-41783000D01*
X139177924Y-41792594D01*
X139144724Y-41795864D01*
X139043058Y-41826704D01*
X138977149Y-41846697D01*
X138822709Y-41929247D01*
X138687341Y-42040341D01*
X138659505Y-42074259D01*
X137882263Y-42851501D01*
X137848341Y-42879341D01*
X137737248Y-43014709D01*
X137654698Y-43169148D01*
X137607043Y-43326248D01*
X137603864Y-43336727D01*
X137591000Y-43467334D01*
X137591000Y-43467340D01*
X137586700Y-43511000D01*
X137591000Y-43554660D01*
X137591001Y-46667882D01*
X137501495Y-46727688D01*
X137287688Y-46941495D01*
X137227883Y-47031000D01*
X137124735Y-47031000D01*
X133564999Y-43471264D01*
X133537159Y-43437341D01*
X133401791Y-43326247D01*
X133247351Y-43243697D01*
X133079774Y-43192864D01*
X132949167Y-43180000D01*
X132949160Y-43180000D01*
X132905500Y-43175700D01*
X132861840Y-43180000D01*
X132068849Y-43180000D01*
X132051637Y-43154241D01*
X131851759Y-42954363D01*
X131616727Y-42797320D01*
X131355574Y-42689147D01*
X131078335Y-42634000D01*
X130795665Y-42634000D01*
X130518426Y-42689147D01*
X130257273Y-42797320D01*
X130022241Y-42954363D01*
X129822363Y-43154241D01*
X129665320Y-43389273D01*
X129557147Y-43650426D01*
X129502000Y-43927665D01*
X129502000Y-44210335D01*
X129557147Y-44487574D01*
X129665320Y-44748727D01*
X129822363Y-44983759D01*
X130022241Y-45183637D01*
X130257273Y-45340680D01*
X130518426Y-45448853D01*
X130795665Y-45504000D01*
X131078335Y-45504000D01*
X131355574Y-45448853D01*
X131616727Y-45340680D01*
X131851759Y-45183637D01*
X132051637Y-44983759D01*
X132068849Y-44958000D01*
X132537265Y-44958000D01*
X136097001Y-48517736D01*
X136124841Y-48551659D01*
X136260209Y-48662753D01*
X136414649Y-48745303D01*
X136470144Y-48762137D01*
X136582224Y-48796136D01*
X136615424Y-48799406D01*
X136712833Y-48809000D01*
X136712839Y-48809000D01*
X136756499Y-48813300D01*
X136800159Y-48809000D01*
X137227883Y-48809000D01*
X137287688Y-48898505D01*
X137501495Y-49112312D01*
X137556402Y-49149000D01*
X133774668Y-49149000D01*
X133731000Y-49144699D01*
X133556725Y-49161864D01*
X133505892Y-49177284D01*
X133389149Y-49212697D01*
X133234709Y-49295247D01*
X133099341Y-49406341D01*
X133071506Y-49440258D01*
X129857337Y-52654428D01*
X128476500Y-52654428D01*
X128352018Y-52666688D01*
X128232320Y-52702998D01*
X128122006Y-52761963D01*
X128025315Y-52841315D01*
X127945963Y-52938006D01*
X127886998Y-53048320D01*
X127850688Y-53168018D01*
X127838428Y-53292500D01*
X127838428Y-55292500D01*
X127850688Y-55416982D01*
X127875568Y-55499000D01*
X127615159Y-55499000D01*
X127571499Y-55494700D01*
X127527839Y-55499000D01*
X127527833Y-55499000D01*
X127430424Y-55508594D01*
X127397224Y-55511864D01*
X127315417Y-55536680D01*
X127229649Y-55562697D01*
X127075209Y-55645247D01*
X126939841Y-55756341D01*
X126912006Y-55790258D01*
X124631721Y-58070544D01*
X124601335Y-58064500D01*
X124318665Y-58064500D01*
X124041426Y-58119647D01*
X123780273Y-58227820D01*
X123545241Y-58384863D01*
X123345363Y-58584741D01*
X123188320Y-58819773D01*
X123080147Y-59080926D01*
X123025000Y-59358165D01*
X123025000Y-59640835D01*
X123080147Y-59918074D01*
X123188320Y-60179227D01*
X123345363Y-60414259D01*
X123507501Y-60576397D01*
X123507500Y-61923651D01*
X123481741Y-61940863D01*
X123281863Y-62140741D01*
X123124820Y-62375773D01*
X123016647Y-62636926D01*
X122961500Y-62914165D01*
X122961500Y-63196835D01*
X123016647Y-63474074D01*
X123124820Y-63735227D01*
X123281863Y-63970259D01*
X123481741Y-64170137D01*
X123716773Y-64327180D01*
X123977926Y-64435353D01*
X124255165Y-64490500D01*
X124537835Y-64490500D01*
X124815074Y-64435353D01*
X125076227Y-64327180D01*
X125311259Y-64170137D01*
X125511137Y-63970259D01*
X125668180Y-63735227D01*
X125776353Y-63474074D01*
X125831500Y-63196835D01*
X125831500Y-62914165D01*
X125776353Y-62636926D01*
X125668180Y-62375773D01*
X125511137Y-62140741D01*
X125311259Y-61940863D01*
X125285500Y-61923651D01*
X125285500Y-60673778D01*
X125374759Y-60614137D01*
X125496694Y-60492202D01*
X133806903Y-60492202D01*
X133878486Y-60736171D01*
X134133996Y-60857071D01*
X134408184Y-60925800D01*
X134690512Y-60939717D01*
X134970130Y-60898287D01*
X135236292Y-60803103D01*
X135361514Y-60736171D01*
X135433097Y-60492202D01*
X135369597Y-60428702D01*
X137489903Y-60428702D01*
X137561486Y-60672671D01*
X137816996Y-60793571D01*
X138091184Y-60862300D01*
X138373512Y-60876217D01*
X138653130Y-60834787D01*
X138919292Y-60739603D01*
X139044514Y-60672671D01*
X139116097Y-60428702D01*
X138303000Y-59615605D01*
X137489903Y-60428702D01*
X135369597Y-60428702D01*
X134620000Y-59679105D01*
X133806903Y-60492202D01*
X125496694Y-60492202D01*
X125574637Y-60414259D01*
X125731680Y-60179227D01*
X125839853Y-59918074D01*
X125895000Y-59640835D01*
X125895000Y-59570012D01*
X133179783Y-59570012D01*
X133221213Y-59849630D01*
X133316397Y-60115792D01*
X133383329Y-60241014D01*
X133627298Y-60312597D01*
X134440395Y-59499500D01*
X134799605Y-59499500D01*
X135612702Y-60312597D01*
X135856671Y-60241014D01*
X135977571Y-59985504D01*
X136046300Y-59711316D01*
X136056395Y-59506512D01*
X136862783Y-59506512D01*
X136904213Y-59786130D01*
X136999397Y-60052292D01*
X137066329Y-60177514D01*
X137310298Y-60249097D01*
X138123395Y-59436000D01*
X138482605Y-59436000D01*
X139295702Y-60249097D01*
X139539671Y-60177514D01*
X139660571Y-59922004D01*
X139729300Y-59647816D01*
X139743217Y-59365488D01*
X139701787Y-59085870D01*
X139606603Y-58819708D01*
X139539671Y-58694486D01*
X139295702Y-58622903D01*
X138482605Y-59436000D01*
X138123395Y-59436000D01*
X137310298Y-58622903D01*
X137066329Y-58694486D01*
X136945429Y-58949996D01*
X136876700Y-59224184D01*
X136862783Y-59506512D01*
X136056395Y-59506512D01*
X136060217Y-59428988D01*
X136018787Y-59149370D01*
X135923603Y-58883208D01*
X135856671Y-58757986D01*
X135612702Y-58686403D01*
X134799605Y-59499500D01*
X134440395Y-59499500D01*
X133627298Y-58686403D01*
X133383329Y-58757986D01*
X133262429Y-59013496D01*
X133193700Y-59287684D01*
X133179783Y-59570012D01*
X125895000Y-59570012D01*
X125895000Y-59358165D01*
X125888956Y-59327779D01*
X126709937Y-58506798D01*
X133806903Y-58506798D01*
X134620000Y-59319895D01*
X135433097Y-58506798D01*
X135414466Y-58443298D01*
X137489903Y-58443298D01*
X138303000Y-59256395D01*
X139116097Y-58443298D01*
X139044514Y-58199329D01*
X138789004Y-58078429D01*
X138514816Y-58009700D01*
X138232488Y-57995783D01*
X137952870Y-58037213D01*
X137686708Y-58132397D01*
X137561486Y-58199329D01*
X137489903Y-58443298D01*
X135414466Y-58443298D01*
X135361514Y-58262829D01*
X135106004Y-58141929D01*
X134831816Y-58073200D01*
X134549488Y-58059283D01*
X134269870Y-58100713D01*
X134003708Y-58195897D01*
X133878486Y-58262829D01*
X133806903Y-58506798D01*
X126709937Y-58506798D01*
X127939736Y-57277000D01*
X137878340Y-57277000D01*
X137922000Y-57281300D01*
X137965660Y-57277000D01*
X137965667Y-57277000D01*
X138096274Y-57264136D01*
X138263851Y-57213303D01*
X138418291Y-57130753D01*
X138553659Y-57019659D01*
X138581499Y-56985736D01*
X140347736Y-55219499D01*
X140381659Y-55191659D01*
X140492753Y-55056291D01*
X140575303Y-54901851D01*
X140613201Y-54776916D01*
X140626136Y-54734276D01*
X140635439Y-54639820D01*
X140639000Y-54603667D01*
X140639000Y-54603661D01*
X140643300Y-54560001D01*
X140639000Y-54516341D01*
X140639000Y-54252117D01*
X140728505Y-54192312D01*
X140942312Y-53978505D01*
X141020000Y-53862237D01*
X141097688Y-53978505D01*
X141311495Y-54192312D01*
X141562905Y-54360299D01*
X141842257Y-54476011D01*
X142138816Y-54535000D01*
X142441184Y-54535000D01*
X142737743Y-54476011D01*
X143017095Y-54360299D01*
X143179000Y-54252117D01*
X143179001Y-57225132D01*
X141129921Y-59274213D01*
X141066918Y-59325918D01*
X140860602Y-59577317D01*
X140707295Y-59864134D01*
X140613601Y-60172999D01*
X140500439Y-60150490D01*
X140296561Y-60150490D01*
X140096602Y-60190264D01*
X139908244Y-60268285D01*
X139738726Y-60381553D01*
X139594563Y-60525716D01*
X139481295Y-60695234D01*
X139403274Y-60883592D01*
X139393370Y-60933384D01*
X137578259Y-62748496D01*
X137544342Y-62776331D01*
X137516507Y-62810248D01*
X137516505Y-62810250D01*
X137433248Y-62911699D01*
X137350698Y-63066138D01*
X137299864Y-63233716D01*
X137282700Y-63407990D01*
X137287001Y-63451660D01*
X137287001Y-64273151D01*
X137261241Y-64290363D01*
X137061363Y-64490241D01*
X136904320Y-64725273D01*
X136796147Y-64986426D01*
X136741000Y-65263665D01*
X136741000Y-65546335D01*
X136796147Y-65823574D01*
X136904320Y-66084727D01*
X137061363Y-66319759D01*
X137261241Y-66519637D01*
X137287000Y-66536849D01*
X137287000Y-67638651D01*
X137261241Y-67655863D01*
X137061363Y-67855741D01*
X136904320Y-68090773D01*
X136796147Y-68351926D01*
X136741000Y-68629165D01*
X136741000Y-68757764D01*
X132752259Y-72746506D01*
X132718342Y-72774341D01*
X132690507Y-72808258D01*
X132690505Y-72808260D01*
X132607248Y-72909709D01*
X132524698Y-73064148D01*
X132473864Y-73231726D01*
X132456700Y-73406000D01*
X132461001Y-73449670D01*
X132461000Y-75913693D01*
X132425518Y-75917188D01*
X132305820Y-75953498D01*
X132195506Y-76012463D01*
X132098815Y-76091815D01*
X132019463Y-76188506D01*
X131960498Y-76298820D01*
X131924188Y-76418518D01*
X131911928Y-76543000D01*
X131911928Y-77523837D01*
X131863259Y-77572506D01*
X131829342Y-77600341D01*
X131801507Y-77634258D01*
X131801505Y-77634260D01*
X131718248Y-77735709D01*
X131635698Y-77890148D01*
X131584864Y-78057726D01*
X131567700Y-78232000D01*
X131572001Y-78275670D01*
X131572000Y-90135764D01*
X131051072Y-89614836D01*
X131051072Y-88234000D01*
X131038812Y-88109518D01*
X131002502Y-87989820D01*
X130943537Y-87879506D01*
X130864185Y-87782815D01*
X130767494Y-87703463D01*
X130657180Y-87644498D01*
X130537482Y-87608188D01*
X130413000Y-87595928D01*
X128413000Y-87595928D01*
X128288518Y-87608188D01*
X128168820Y-87644498D01*
X128058506Y-87703463D01*
X127961815Y-87782815D01*
X127882463Y-87879506D01*
X127823498Y-87989820D01*
X127787188Y-88109518D01*
X127774928Y-88234000D01*
X127774928Y-90234000D01*
X127787188Y-90358482D01*
X127823498Y-90478180D01*
X127882463Y-90588494D01*
X127961815Y-90685185D01*
X128058506Y-90764537D01*
X128168820Y-90823502D01*
X128288518Y-90859812D01*
X128413000Y-90872072D01*
X129793836Y-90872072D01*
X130302001Y-91380237D01*
X130302001Y-92837132D01*
X130047867Y-92701295D01*
X129736653Y-92606889D01*
X129494104Y-92583000D01*
X127335100Y-92583000D01*
X127253999Y-92575012D01*
X127172898Y-92583000D01*
X127172896Y-92583000D01*
X126930347Y-92606889D01*
X126619133Y-92701295D01*
X126485622Y-92772658D01*
X126332315Y-92854602D01*
X126192541Y-92969312D01*
X126080918Y-93060918D01*
X126029218Y-93123915D01*
X121363134Y-97790000D01*
X120695896Y-97790000D01*
X120453347Y-97813889D01*
X120142133Y-97908295D01*
X119855316Y-98061602D01*
X119603918Y-98267918D01*
X119397602Y-98519316D01*
X119244295Y-98806133D01*
X119149889Y-99117347D01*
X119118012Y-99441000D01*
X119149889Y-99764653D01*
X119244295Y-100075867D01*
X119397602Y-100362684D01*
X119603918Y-100614082D01*
X119855316Y-100820398D01*
X120082328Y-100941738D01*
X110896000Y-100941983D01*
X110896000Y-97823872D01*
X113081000Y-97823872D01*
X113081000Y-98264128D01*
X113166890Y-98695925D01*
X113335369Y-99102669D01*
X113579962Y-99468729D01*
X113891271Y-99780038D01*
X114257331Y-100024631D01*
X114664075Y-100193110D01*
X115095872Y-100279000D01*
X115536128Y-100279000D01*
X115967925Y-100193110D01*
X116374669Y-100024631D01*
X116740729Y-99780038D01*
X117052038Y-99468729D01*
X117296631Y-99102669D01*
X117465110Y-98695925D01*
X117551000Y-98264128D01*
X117551000Y-97823872D01*
X117465110Y-97392075D01*
X117296631Y-96985331D01*
X117052038Y-96619271D01*
X116740729Y-96307962D01*
X116374669Y-96063369D01*
X115967925Y-95894890D01*
X115536128Y-95809000D01*
X115095872Y-95809000D01*
X114664075Y-95894890D01*
X114257331Y-96063369D01*
X113891271Y-96307962D01*
X113579962Y-96619271D01*
X113335369Y-96985331D01*
X113166890Y-97392075D01*
X113081000Y-97823872D01*
X110896000Y-97823872D01*
X110896000Y-92817000D01*
X115459928Y-92817000D01*
X115472188Y-92941482D01*
X115508498Y-93061180D01*
X115567463Y-93171494D01*
X115646815Y-93268185D01*
X115743506Y-93347537D01*
X115853820Y-93406502D01*
X115973518Y-93442812D01*
X116098000Y-93455072D01*
X117062250Y-93452000D01*
X117221000Y-93293250D01*
X117221000Y-91694000D01*
X117475000Y-91694000D01*
X117475000Y-93293250D01*
X117633750Y-93452000D01*
X118598000Y-93455072D01*
X118722482Y-93442812D01*
X118842180Y-93406502D01*
X118952494Y-93347537D01*
X119049185Y-93268185D01*
X119128537Y-93171494D01*
X119187502Y-93061180D01*
X119223812Y-92941482D01*
X119236072Y-92817000D01*
X119233000Y-91852750D01*
X119074250Y-91694000D01*
X117475000Y-91694000D01*
X117221000Y-91694000D01*
X115621750Y-91694000D01*
X115463000Y-91852750D01*
X115459928Y-92817000D01*
X110896000Y-92817000D01*
X110896000Y-90317000D01*
X115459928Y-90317000D01*
X115463000Y-91281250D01*
X115621750Y-91440000D01*
X117221000Y-91440000D01*
X117221000Y-89840750D01*
X117475000Y-89840750D01*
X117475000Y-91440000D01*
X119074250Y-91440000D01*
X119233000Y-91281250D01*
X119236072Y-90317000D01*
X119223812Y-90192518D01*
X119187502Y-90072820D01*
X119128537Y-89962506D01*
X119049185Y-89865815D01*
X118952494Y-89786463D01*
X118842180Y-89727498D01*
X118722482Y-89691188D01*
X118598000Y-89678928D01*
X117633750Y-89682000D01*
X117475000Y-89840750D01*
X117221000Y-89840750D01*
X117062250Y-89682000D01*
X116098000Y-89678928D01*
X115973518Y-89691188D01*
X115853820Y-89727498D01*
X115743506Y-89786463D01*
X115646815Y-89865815D01*
X115567463Y-89962506D01*
X115508498Y-90072820D01*
X115472188Y-90192518D01*
X115459928Y-90317000D01*
X110896000Y-90317000D01*
X110896000Y-86381344D01*
X115463000Y-86381344D01*
X115463000Y-86752656D01*
X115535439Y-87116834D01*
X115677534Y-87459882D01*
X115883825Y-87768618D01*
X116146382Y-88031175D01*
X116455118Y-88237466D01*
X116798166Y-88379561D01*
X117162344Y-88452000D01*
X117533656Y-88452000D01*
X117897834Y-88379561D01*
X118240882Y-88237466D01*
X118549618Y-88031175D01*
X118812175Y-87768618D01*
X119018466Y-87459882D01*
X119160561Y-87116834D01*
X119233000Y-86752656D01*
X119233000Y-86381344D01*
X119160561Y-86017166D01*
X119018466Y-85674118D01*
X118812175Y-85365382D01*
X118549618Y-85102825D01*
X118240882Y-84896534D01*
X117897834Y-84754439D01*
X117533656Y-84682000D01*
X117162344Y-84682000D01*
X116798166Y-84754439D01*
X116455118Y-84896534D01*
X116146382Y-85102825D01*
X115883825Y-85365382D01*
X115677534Y-85674118D01*
X115535439Y-86017166D01*
X115463000Y-86381344D01*
X110896000Y-86381344D01*
X110896000Y-78633000D01*
X115459928Y-78633000D01*
X115459928Y-81133000D01*
X115472188Y-81257482D01*
X115508498Y-81377180D01*
X115567463Y-81487494D01*
X115646815Y-81584185D01*
X115743506Y-81663537D01*
X115853820Y-81722502D01*
X115973518Y-81758812D01*
X116098000Y-81771072D01*
X118598000Y-81771072D01*
X118722482Y-81758812D01*
X118842180Y-81722502D01*
X118952494Y-81663537D01*
X119049185Y-81584185D01*
X119128537Y-81487494D01*
X119187502Y-81377180D01*
X119223812Y-81257482D01*
X119234102Y-81153000D01*
X119842127Y-81153000D01*
X119904500Y-81159143D01*
X119966873Y-81153000D01*
X119966880Y-81153000D01*
X120153463Y-81134623D01*
X120392859Y-81062003D01*
X120613488Y-80944075D01*
X120806870Y-80785370D01*
X120846641Y-80736909D01*
X121460885Y-80122665D01*
X123025000Y-80122665D01*
X123025000Y-80405335D01*
X123080147Y-80682574D01*
X123188320Y-80943727D01*
X123345363Y-81178759D01*
X123545241Y-81378637D01*
X123634501Y-81438278D01*
X123634500Y-82772722D01*
X123545241Y-82832363D01*
X123345363Y-83032241D01*
X123188320Y-83267273D01*
X123080147Y-83528426D01*
X123025000Y-83805665D01*
X123025000Y-84088335D01*
X123080147Y-84365574D01*
X123188320Y-84626727D01*
X123345363Y-84861759D01*
X123545241Y-85061637D01*
X123780273Y-85218680D01*
X124041426Y-85326853D01*
X124318665Y-85382000D01*
X124601335Y-85382000D01*
X124878574Y-85326853D01*
X125139727Y-85218680D01*
X125374759Y-85061637D01*
X125574637Y-84861759D01*
X125731680Y-84626727D01*
X125839853Y-84365574D01*
X125895000Y-84088335D01*
X125895000Y-83805665D01*
X125839853Y-83528426D01*
X125731680Y-83267273D01*
X125574637Y-83032241D01*
X125412500Y-82870104D01*
X125412500Y-81340896D01*
X125574637Y-81178759D01*
X125731680Y-80943727D01*
X125839853Y-80682574D01*
X125895000Y-80405335D01*
X125895000Y-80122665D01*
X125839853Y-79845426D01*
X125731680Y-79584273D01*
X125574637Y-79349241D01*
X125374759Y-79149363D01*
X125139727Y-78992320D01*
X124878574Y-78884147D01*
X124601335Y-78829000D01*
X124318665Y-78829000D01*
X124041426Y-78884147D01*
X123780273Y-78992320D01*
X123545241Y-79149363D01*
X123345363Y-79349241D01*
X123188320Y-79584273D01*
X123080147Y-79845426D01*
X123025000Y-80122665D01*
X121460885Y-80122665D01*
X123247848Y-78335702D01*
X129036903Y-78335702D01*
X129108486Y-78579671D01*
X129363996Y-78700571D01*
X129638184Y-78769300D01*
X129920512Y-78783217D01*
X130200130Y-78741787D01*
X130466292Y-78646603D01*
X130591514Y-78579671D01*
X130663097Y-78335702D01*
X129850000Y-77522605D01*
X129036903Y-78335702D01*
X123247848Y-78335702D01*
X124170038Y-77413512D01*
X128409783Y-77413512D01*
X128451213Y-77693130D01*
X128546397Y-77959292D01*
X128613329Y-78084514D01*
X128857298Y-78156097D01*
X129670395Y-77343000D01*
X130029605Y-77343000D01*
X130842702Y-78156097D01*
X131086671Y-78084514D01*
X131207571Y-77829004D01*
X131276300Y-77554816D01*
X131290217Y-77272488D01*
X131248787Y-76992870D01*
X131153603Y-76726708D01*
X131086671Y-76601486D01*
X130842702Y-76529903D01*
X130029605Y-77343000D01*
X129670395Y-77343000D01*
X128857298Y-76529903D01*
X128613329Y-76601486D01*
X128492429Y-76856996D01*
X128423700Y-77131184D01*
X128409783Y-77413512D01*
X124170038Y-77413512D01*
X124982919Y-76600632D01*
X125139727Y-76535680D01*
X125374759Y-76378637D01*
X125403098Y-76350298D01*
X129036903Y-76350298D01*
X129850000Y-77163395D01*
X130663097Y-76350298D01*
X130591514Y-76106329D01*
X130336004Y-75985429D01*
X130061816Y-75916700D01*
X129779488Y-75902783D01*
X129499870Y-75944213D01*
X129233708Y-76039397D01*
X129108486Y-76106329D01*
X129036903Y-76350298D01*
X125403098Y-76350298D01*
X125574637Y-76178759D01*
X125731680Y-75943727D01*
X125839853Y-75682574D01*
X125895000Y-75405335D01*
X125895000Y-75122665D01*
X125839853Y-74845426D01*
X125731680Y-74584273D01*
X125574637Y-74349241D01*
X125374759Y-74149363D01*
X125139727Y-73992320D01*
X124878574Y-73884147D01*
X124601335Y-73829000D01*
X124318665Y-73829000D01*
X124041426Y-73884147D01*
X123780273Y-73992320D01*
X123545241Y-74149363D01*
X123345363Y-74349241D01*
X123188320Y-74584273D01*
X123080147Y-74845426D01*
X123063789Y-74927660D01*
X119378450Y-78613000D01*
X119234102Y-78613000D01*
X119223812Y-78508518D01*
X119187502Y-78388820D01*
X119128537Y-78278506D01*
X119049185Y-78181815D01*
X118952494Y-78102463D01*
X118842180Y-78043498D01*
X118722482Y-78007188D01*
X118598000Y-77994928D01*
X116098000Y-77994928D01*
X115973518Y-78007188D01*
X115853820Y-78043498D01*
X115743506Y-78102463D01*
X115646815Y-78181815D01*
X115567463Y-78278506D01*
X115508498Y-78388820D01*
X115472188Y-78508518D01*
X115459928Y-78633000D01*
X110896000Y-78633000D01*
X110896000Y-76196605D01*
X116214000Y-76196605D01*
X116339914Y-76486577D01*
X116672126Y-76652433D01*
X117030312Y-76750290D01*
X117400706Y-76776389D01*
X117769075Y-76729725D01*
X118121262Y-76612094D01*
X118356086Y-76486577D01*
X118482000Y-76196605D01*
X117348000Y-75062605D01*
X116214000Y-76196605D01*
X110896000Y-76196605D01*
X110896000Y-74935706D01*
X115454611Y-74935706D01*
X115501275Y-75304075D01*
X115618906Y-75656262D01*
X115744423Y-75891086D01*
X116034395Y-76017000D01*
X117168395Y-74883000D01*
X117527605Y-74883000D01*
X118661605Y-76017000D01*
X118951577Y-75891086D01*
X119117433Y-75558874D01*
X119215290Y-75200688D01*
X119241389Y-74830294D01*
X119194725Y-74461925D01*
X119077094Y-74109738D01*
X118951577Y-73874914D01*
X118661605Y-73749000D01*
X117527605Y-74883000D01*
X117168395Y-74883000D01*
X116034395Y-73749000D01*
X115744423Y-73874914D01*
X115578567Y-74207126D01*
X115480710Y-74565312D01*
X115454611Y-74935706D01*
X110896000Y-74935706D01*
X110896000Y-73569395D01*
X116214000Y-73569395D01*
X117348000Y-74703395D01*
X118482000Y-73569395D01*
X118356086Y-73279423D01*
X118023874Y-73113567D01*
X117665688Y-73015710D01*
X117295294Y-72989611D01*
X116926925Y-73036275D01*
X116574738Y-73153906D01*
X116339914Y-73279423D01*
X116214000Y-73569395D01*
X110896000Y-73569395D01*
X110896000Y-66441000D01*
X115459928Y-66441000D01*
X115459928Y-68941000D01*
X115472188Y-69065482D01*
X115508498Y-69185180D01*
X115567463Y-69295494D01*
X115646815Y-69392185D01*
X115743506Y-69471537D01*
X115853820Y-69530502D01*
X115973518Y-69566812D01*
X116098000Y-69579072D01*
X118598000Y-69579072D01*
X118722482Y-69566812D01*
X118842180Y-69530502D01*
X118952494Y-69471537D01*
X119049185Y-69392185D01*
X119103912Y-69325500D01*
X123714259Y-69325500D01*
X123716773Y-69327180D01*
X123977926Y-69435353D01*
X124255165Y-69490500D01*
X124537835Y-69490500D01*
X124815074Y-69435353D01*
X125076227Y-69327180D01*
X125311259Y-69170137D01*
X125511137Y-68970259D01*
X125668180Y-68735227D01*
X125776353Y-68474074D01*
X125831500Y-68196835D01*
X125831500Y-67914165D01*
X125776353Y-67636926D01*
X125736496Y-67540702D01*
X129036903Y-67540702D01*
X129108486Y-67784671D01*
X129363996Y-67905571D01*
X129638184Y-67974300D01*
X129920512Y-67988217D01*
X130200130Y-67946787D01*
X130466292Y-67851603D01*
X130591514Y-67784671D01*
X130663097Y-67540702D01*
X129850000Y-66727605D01*
X129036903Y-67540702D01*
X125736496Y-67540702D01*
X125668180Y-67375773D01*
X125511137Y-67140741D01*
X125311259Y-66940863D01*
X125076227Y-66783820D01*
X124815074Y-66675647D01*
X124537835Y-66620500D01*
X124255165Y-66620500D01*
X123977926Y-66675647D01*
X123716773Y-66783820D01*
X123714259Y-66785500D01*
X119236072Y-66785500D01*
X119236072Y-66618512D01*
X128409783Y-66618512D01*
X128451213Y-66898130D01*
X128546397Y-67164292D01*
X128613329Y-67289514D01*
X128857298Y-67361097D01*
X129670395Y-66548000D01*
X130029605Y-66548000D01*
X130842702Y-67361097D01*
X131086671Y-67289514D01*
X131207571Y-67034004D01*
X131276300Y-66759816D01*
X131290217Y-66477488D01*
X131248787Y-66197870D01*
X131153603Y-65931708D01*
X131086671Y-65806486D01*
X130887340Y-65748000D01*
X131911928Y-65748000D01*
X131911928Y-67348000D01*
X131924188Y-67472482D01*
X131960498Y-67592180D01*
X132019463Y-67702494D01*
X132098815Y-67799185D01*
X132195506Y-67878537D01*
X132305820Y-67937502D01*
X132425518Y-67973812D01*
X132550000Y-67986072D01*
X134150000Y-67986072D01*
X134274482Y-67973812D01*
X134394180Y-67937502D01*
X134504494Y-67878537D01*
X134601185Y-67799185D01*
X134680537Y-67702494D01*
X134739502Y-67592180D01*
X134775812Y-67472482D01*
X134788072Y-67348000D01*
X134788072Y-65748000D01*
X134775812Y-65623518D01*
X134739502Y-65503820D01*
X134680537Y-65393506D01*
X134601185Y-65296815D01*
X134504494Y-65217463D01*
X134394180Y-65158498D01*
X134274482Y-65122188D01*
X134150000Y-65109928D01*
X132550000Y-65109928D01*
X132425518Y-65122188D01*
X132305820Y-65158498D01*
X132195506Y-65217463D01*
X132098815Y-65296815D01*
X132019463Y-65393506D01*
X131960498Y-65503820D01*
X131924188Y-65623518D01*
X131911928Y-65748000D01*
X130887340Y-65748000D01*
X130842702Y-65734903D01*
X130029605Y-66548000D01*
X129670395Y-66548000D01*
X128857298Y-65734903D01*
X128613329Y-65806486D01*
X128492429Y-66061996D01*
X128423700Y-66336184D01*
X128409783Y-66618512D01*
X119236072Y-66618512D01*
X119236072Y-66441000D01*
X119223812Y-66316518D01*
X119187502Y-66196820D01*
X119128537Y-66086506D01*
X119049185Y-65989815D01*
X118952494Y-65910463D01*
X118842180Y-65851498D01*
X118722482Y-65815188D01*
X118598000Y-65802928D01*
X116098000Y-65802928D01*
X115973518Y-65815188D01*
X115853820Y-65851498D01*
X115743506Y-65910463D01*
X115646815Y-65989815D01*
X115567463Y-66086506D01*
X115508498Y-66196820D01*
X115472188Y-66316518D01*
X115459928Y-66441000D01*
X110896000Y-66441000D01*
X110896000Y-65555298D01*
X129036903Y-65555298D01*
X129850000Y-66368395D01*
X130663097Y-65555298D01*
X130591514Y-65311329D01*
X130336004Y-65190429D01*
X130061816Y-65121700D01*
X129779488Y-65107783D01*
X129499870Y-65149213D01*
X129233708Y-65244397D01*
X129108486Y-65311329D01*
X129036903Y-65555298D01*
X110896000Y-65555298D01*
X110896000Y-64004605D01*
X116214000Y-64004605D01*
X116339914Y-64294577D01*
X116672126Y-64460433D01*
X117030312Y-64558290D01*
X117400706Y-64584389D01*
X117769075Y-64537725D01*
X118121262Y-64420094D01*
X118356086Y-64294577D01*
X118482000Y-64004605D01*
X117348000Y-62870605D01*
X116214000Y-64004605D01*
X110896000Y-64004605D01*
X110896000Y-62743706D01*
X115454611Y-62743706D01*
X115501275Y-63112075D01*
X115618906Y-63464262D01*
X115744423Y-63699086D01*
X116034395Y-63825000D01*
X117168395Y-62691000D01*
X117527605Y-62691000D01*
X118661605Y-63825000D01*
X118951577Y-63699086D01*
X119117433Y-63366874D01*
X119215290Y-63008688D01*
X119241389Y-62638294D01*
X119194725Y-62269925D01*
X119077094Y-61917738D01*
X118951577Y-61682914D01*
X118661605Y-61557000D01*
X117527605Y-62691000D01*
X117168395Y-62691000D01*
X116034395Y-61557000D01*
X115744423Y-61682914D01*
X115578567Y-62015126D01*
X115480710Y-62373312D01*
X115454611Y-62743706D01*
X110896000Y-62743706D01*
X110896000Y-61377395D01*
X116214000Y-61377395D01*
X117348000Y-62511395D01*
X118482000Y-61377395D01*
X118356086Y-61087423D01*
X118023874Y-60921567D01*
X117665688Y-60823710D01*
X117295294Y-60797611D01*
X116926925Y-60844275D01*
X116574738Y-60961906D01*
X116339914Y-61087423D01*
X116214000Y-61377395D01*
X110896000Y-61377395D01*
X110896000Y-57384000D01*
X115459928Y-57384000D01*
X115472188Y-57508482D01*
X115508498Y-57628180D01*
X115567463Y-57738494D01*
X115646815Y-57835185D01*
X115743506Y-57914537D01*
X115853820Y-57973502D01*
X115973518Y-58009812D01*
X116098000Y-58022072D01*
X117062250Y-58019000D01*
X117221000Y-57860250D01*
X117221000Y-56261000D01*
X117475000Y-56261000D01*
X117475000Y-57860250D01*
X117633750Y-58019000D01*
X118598000Y-58022072D01*
X118722482Y-58009812D01*
X118842180Y-57973502D01*
X118952494Y-57914537D01*
X119049185Y-57835185D01*
X119128537Y-57738494D01*
X119187502Y-57628180D01*
X119223812Y-57508482D01*
X119236072Y-57384000D01*
X119233000Y-56419750D01*
X119074250Y-56261000D01*
X117475000Y-56261000D01*
X117221000Y-56261000D01*
X115621750Y-56261000D01*
X115463000Y-56419750D01*
X115459928Y-57384000D01*
X110896000Y-57384000D01*
X110896000Y-54884000D01*
X115459928Y-54884000D01*
X115463000Y-55848250D01*
X115621750Y-56007000D01*
X117221000Y-56007000D01*
X117221000Y-54407750D01*
X117475000Y-54407750D01*
X117475000Y-56007000D01*
X119074250Y-56007000D01*
X119233000Y-55848250D01*
X119236072Y-54884000D01*
X119223812Y-54759518D01*
X119187502Y-54639820D01*
X119128537Y-54529506D01*
X119049185Y-54432815D01*
X118952494Y-54353463D01*
X118842180Y-54294498D01*
X118722482Y-54258188D01*
X118598000Y-54245928D01*
X117633750Y-54249000D01*
X117475000Y-54407750D01*
X117221000Y-54407750D01*
X117062250Y-54249000D01*
X116098000Y-54245928D01*
X115973518Y-54258188D01*
X115853820Y-54294498D01*
X115743506Y-54353463D01*
X115646815Y-54432815D01*
X115567463Y-54529506D01*
X115508498Y-54639820D01*
X115472188Y-54759518D01*
X115459928Y-54884000D01*
X110896000Y-54884000D01*
X110896000Y-50948344D01*
X115463000Y-50948344D01*
X115463000Y-51319656D01*
X115535439Y-51683834D01*
X115677534Y-52026882D01*
X115883825Y-52335618D01*
X116146382Y-52598175D01*
X116161585Y-52608333D01*
X116174919Y-52624581D01*
X116426317Y-52830898D01*
X116713133Y-52984204D01*
X117024348Y-53078610D01*
X117348000Y-53110488D01*
X117671652Y-53078610D01*
X117982867Y-52984204D01*
X118269683Y-52830898D01*
X118458084Y-52676282D01*
X118509153Y-52625213D01*
X118549618Y-52598175D01*
X118812175Y-52335618D01*
X119018466Y-52026882D01*
X119160561Y-51683834D01*
X119167396Y-51649470D01*
X121685399Y-49131467D01*
X127841500Y-49131467D01*
X127841500Y-49453533D01*
X127904332Y-49769412D01*
X128027582Y-50066963D01*
X128206513Y-50334752D01*
X128434248Y-50562487D01*
X128702037Y-50741418D01*
X128999588Y-50864668D01*
X129315467Y-50927500D01*
X129637533Y-50927500D01*
X129953412Y-50864668D01*
X130250963Y-50741418D01*
X130518752Y-50562487D01*
X130746487Y-50334752D01*
X130925418Y-50066963D01*
X131048668Y-49769412D01*
X131111500Y-49453533D01*
X131111500Y-49131467D01*
X131048668Y-48815588D01*
X130925418Y-48518037D01*
X130746487Y-48250248D01*
X130518752Y-48022513D01*
X130250963Y-47843582D01*
X129953412Y-47720332D01*
X129637533Y-47657500D01*
X129315467Y-47657500D01*
X128999588Y-47720332D01*
X128702037Y-47843582D01*
X128434248Y-48022513D01*
X128206513Y-48250248D01*
X128027582Y-48518037D01*
X127904332Y-48815588D01*
X127841500Y-49131467D01*
X121685399Y-49131467D01*
X121887085Y-48929782D01*
X121950082Y-48878082D01*
X122053361Y-48752236D01*
X122156398Y-48626685D01*
X122268855Y-48416291D01*
X122309705Y-48339867D01*
X122404111Y-48028653D01*
X122428000Y-47786104D01*
X122428000Y-47786102D01*
X122435988Y-47705001D01*
X122428000Y-47623900D01*
X122428000Y-43987896D01*
X122404111Y-43745347D01*
X122309705Y-43434133D01*
X122156398Y-43147316D01*
X121950082Y-42895918D01*
X121698683Y-42689602D01*
X121411866Y-42536295D01*
X121100652Y-42441889D01*
X120777000Y-42410012D01*
X120453347Y-42441889D01*
X120142133Y-42536295D01*
X119855316Y-42689602D01*
X119603918Y-42895918D01*
X119397602Y-43147317D01*
X119244295Y-43434134D01*
X119149889Y-43745348D01*
X119126000Y-43987897D01*
X119126001Y-47021132D01*
X116924778Y-49222355D01*
X116776633Y-49267295D01*
X116489816Y-49420602D01*
X116360320Y-49526876D01*
X116146382Y-49669825D01*
X115883825Y-49932382D01*
X115677534Y-50241118D01*
X115535439Y-50584166D01*
X115463000Y-50948344D01*
X110896000Y-50948344D01*
X110896000Y-44356872D01*
X112954000Y-44356872D01*
X112954000Y-44797128D01*
X113039890Y-45228925D01*
X113208369Y-45635669D01*
X113452962Y-46001729D01*
X113764271Y-46313038D01*
X114130331Y-46557631D01*
X114537075Y-46726110D01*
X114968872Y-46812000D01*
X115409128Y-46812000D01*
X115840925Y-46726110D01*
X116247669Y-46557631D01*
X116613729Y-46313038D01*
X116925038Y-46001729D01*
X117169631Y-45635669D01*
X117338110Y-45228925D01*
X117424000Y-44797128D01*
X117424000Y-44356872D01*
X117338110Y-43925075D01*
X117169631Y-43518331D01*
X116925038Y-43152271D01*
X116613729Y-42840962D01*
X116247669Y-42596369D01*
X115840925Y-42427890D01*
X115409128Y-42342000D01*
X114968872Y-42342000D01*
X114537075Y-42427890D01*
X114130331Y-42596369D01*
X113764271Y-42840962D01*
X113452962Y-43152271D01*
X113208369Y-43518331D01*
X113039890Y-43925075D01*
X112954000Y-44356872D01*
X110896000Y-44356872D01*
X110896000Y-41681000D01*
X184760001Y-41681000D01*
X184760000Y-100940018D01*
G04 #@! TA.AperFunction,Conductor*
D28*
G36*
X184760000Y-100940018D02*
G01*
X160738673Y-100940657D01*
X160934759Y-100809637D01*
X161134637Y-100609759D01*
X161291680Y-100374727D01*
X161399853Y-100113574D01*
X161455000Y-99836335D01*
X161455000Y-99553665D01*
X161399853Y-99276426D01*
X161291680Y-99015273D01*
X161134637Y-98780241D01*
X160934759Y-98580363D01*
X160699727Y-98423320D01*
X160438574Y-98315147D01*
X160161335Y-98260000D01*
X159878665Y-98260000D01*
X159601426Y-98315147D01*
X159541291Y-98340056D01*
X159025107Y-97823872D01*
X179629000Y-97823872D01*
X179629000Y-98264128D01*
X179714890Y-98695925D01*
X179883369Y-99102669D01*
X180127962Y-99468729D01*
X180439271Y-99780038D01*
X180805331Y-100024631D01*
X181212075Y-100193110D01*
X181643872Y-100279000D01*
X182084128Y-100279000D01*
X182515925Y-100193110D01*
X182922669Y-100024631D01*
X183288729Y-99780038D01*
X183600038Y-99468729D01*
X183844631Y-99102669D01*
X184013110Y-98695925D01*
X184099000Y-98264128D01*
X184099000Y-97823872D01*
X184013110Y-97392075D01*
X183844631Y-96985331D01*
X183600038Y-96619271D01*
X183288729Y-96307962D01*
X182922669Y-96063369D01*
X182515925Y-95894890D01*
X182084128Y-95809000D01*
X181643872Y-95809000D01*
X181212075Y-95894890D01*
X180805331Y-96063369D01*
X180439271Y-96307962D01*
X180127962Y-96619271D01*
X179883369Y-96985331D01*
X179714890Y-97392075D01*
X179629000Y-97823872D01*
X159025107Y-97823872D01*
X157482215Y-96280980D01*
X169335626Y-96280980D01*
X169455514Y-96565836D01*
X169779210Y-96726699D01*
X170128069Y-96821322D01*
X170488684Y-96846067D01*
X170847198Y-96799985D01*
X171189833Y-96684846D01*
X171412486Y-96565836D01*
X171532374Y-96280980D01*
X170434000Y-95182605D01*
X169335626Y-96280980D01*
X157482215Y-96280980D01*
X157126999Y-95925764D01*
X157099159Y-95891841D01*
X156963791Y-95780747D01*
X156809351Y-95698197D01*
X156782075Y-95689923D01*
X156978153Y-95670611D01*
X157289367Y-95576205D01*
X157576184Y-95422898D01*
X157827582Y-95216582D01*
X157879287Y-95153579D01*
X157975182Y-95057684D01*
X168590933Y-95057684D01*
X168637015Y-95416198D01*
X168752154Y-95758833D01*
X168871164Y-95981486D01*
X169156020Y-96101374D01*
X170254395Y-95003000D01*
X170613605Y-95003000D01*
X171711980Y-96101374D01*
X171996836Y-95981486D01*
X172157699Y-95657790D01*
X172252322Y-95308931D01*
X172277067Y-94948316D01*
X172230985Y-94589802D01*
X172115846Y-94247167D01*
X171996836Y-94024514D01*
X171711980Y-93904626D01*
X170613605Y-95003000D01*
X170254395Y-95003000D01*
X169156020Y-93904626D01*
X168871164Y-94024514D01*
X168710301Y-94348210D01*
X168615678Y-94697069D01*
X168590933Y-95057684D01*
X157975182Y-95057684D01*
X158463080Y-94569786D01*
X158526082Y-94518082D01*
X158732398Y-94266684D01*
X158885705Y-93979867D01*
X158963012Y-93725020D01*
X169335626Y-93725020D01*
X170434000Y-94823395D01*
X171532374Y-93725020D01*
X171412486Y-93440164D01*
X171088790Y-93279301D01*
X170739931Y-93184678D01*
X170379316Y-93159933D01*
X170020802Y-93206015D01*
X169678167Y-93321154D01*
X169455514Y-93440164D01*
X169335626Y-93725020D01*
X158963012Y-93725020D01*
X158980111Y-93668653D01*
X159004000Y-93426104D01*
X159004000Y-93426102D01*
X159011988Y-93345001D01*
X159004000Y-93263900D01*
X159004000Y-90548396D01*
X159105241Y-90649637D01*
X159340273Y-90806680D01*
X159601426Y-90914853D01*
X159878665Y-90970000D01*
X160161335Y-90970000D01*
X160438574Y-90914853D01*
X160699727Y-90806680D01*
X160934759Y-90649637D01*
X161134637Y-90449759D01*
X161291680Y-90214727D01*
X161399853Y-89953574D01*
X161455000Y-89676335D01*
X161455000Y-89393665D01*
X161399853Y-89116426D01*
X161291680Y-88855273D01*
X161134637Y-88620241D01*
X160934759Y-88420363D01*
X160818532Y-88342703D01*
X162858235Y-86303000D01*
X168595928Y-86303000D01*
X168595928Y-88703000D01*
X168608188Y-88827482D01*
X168644498Y-88947180D01*
X168703463Y-89057494D01*
X168782815Y-89154185D01*
X168879506Y-89233537D01*
X168989820Y-89292502D01*
X169109518Y-89328812D01*
X169234000Y-89341072D01*
X171634000Y-89341072D01*
X171758482Y-89328812D01*
X171878180Y-89292502D01*
X171988494Y-89233537D01*
X172085185Y-89154185D01*
X172164537Y-89057494D01*
X172223502Y-88947180D01*
X172259812Y-88827482D01*
X172272072Y-88703000D01*
X172272072Y-86303000D01*
X172259812Y-86178518D01*
X172223502Y-86058820D01*
X172164537Y-85948506D01*
X172085185Y-85851815D01*
X171988494Y-85772463D01*
X171878180Y-85713498D01*
X171758482Y-85677188D01*
X171634000Y-85664928D01*
X169234000Y-85664928D01*
X169109518Y-85677188D01*
X168989820Y-85713498D01*
X168879506Y-85772463D01*
X168782815Y-85851815D01*
X168703463Y-85948506D01*
X168644498Y-86058820D01*
X168608188Y-86178518D01*
X168595928Y-86303000D01*
X162858235Y-86303000D01*
X163602243Y-85558993D01*
X163636159Y-85531159D01*
X163747253Y-85395791D01*
X163829803Y-85241351D01*
X163860572Y-85139918D01*
X163880636Y-85073776D01*
X163890159Y-84977084D01*
X163893500Y-84943167D01*
X163893500Y-84943161D01*
X163897800Y-84899501D01*
X163893500Y-84855841D01*
X163893500Y-81013072D01*
X163941000Y-81013072D01*
X164065482Y-81000812D01*
X164185180Y-80964502D01*
X164295494Y-80905537D01*
X164392185Y-80826185D01*
X164471537Y-80729494D01*
X164530502Y-80619180D01*
X164566812Y-80499482D01*
X164579072Y-80375000D01*
X164579072Y-80274605D01*
X177555000Y-80274605D01*
X177680914Y-80564577D01*
X178013126Y-80730433D01*
X178371312Y-80828290D01*
X178741706Y-80854389D01*
X179110075Y-80807725D01*
X179462262Y-80690094D01*
X179697086Y-80564577D01*
X179823000Y-80274605D01*
X178689000Y-79140605D01*
X177555000Y-80274605D01*
X164579072Y-80274605D01*
X164579072Y-79013706D01*
X176795611Y-79013706D01*
X176842275Y-79382075D01*
X176959906Y-79734262D01*
X177085423Y-79969086D01*
X177375395Y-80095000D01*
X178509395Y-78961000D01*
X178868605Y-78961000D01*
X180002605Y-80095000D01*
X180292577Y-79969086D01*
X180458433Y-79636874D01*
X180556290Y-79278688D01*
X180582389Y-78908294D01*
X180535725Y-78539925D01*
X180418094Y-78187738D01*
X180292577Y-77952914D01*
X180002605Y-77827000D01*
X178868605Y-78961000D01*
X178509395Y-78961000D01*
X177375395Y-77827000D01*
X177085423Y-77952914D01*
X176919567Y-78285126D01*
X176821710Y-78643312D01*
X176795611Y-79013706D01*
X164579072Y-79013706D01*
X164579072Y-78375000D01*
X164566812Y-78250518D01*
X164530502Y-78130820D01*
X164471537Y-78020506D01*
X164392185Y-77923815D01*
X164295494Y-77844463D01*
X164185180Y-77785498D01*
X164065482Y-77749188D01*
X163941000Y-77736928D01*
X161941000Y-77736928D01*
X161816518Y-77749188D01*
X161696820Y-77785498D01*
X161586506Y-77844463D01*
X161489815Y-77923815D01*
X161410463Y-78020506D01*
X161351498Y-78130820D01*
X161315188Y-78250518D01*
X161302928Y-78375000D01*
X161302928Y-80375000D01*
X161315188Y-80499482D01*
X161351498Y-80619180D01*
X161410463Y-80729494D01*
X161489815Y-80826185D01*
X161586506Y-80905537D01*
X161696820Y-80964502D01*
X161816518Y-81000812D01*
X161941000Y-81013072D01*
X162115501Y-81013072D01*
X162115500Y-84531264D01*
X159295259Y-87351506D01*
X159261342Y-87379341D01*
X159233507Y-87413258D01*
X159233505Y-87413260D01*
X159150248Y-87514709D01*
X159067698Y-87669148D01*
X159016864Y-87836726D01*
X159004000Y-87967340D01*
X159004000Y-86394100D01*
X159011988Y-86312999D01*
X159004000Y-86231896D01*
X158980111Y-85989347D01*
X158885705Y-85678133D01*
X158787343Y-85494111D01*
X158732398Y-85391315D01*
X158577782Y-85202915D01*
X158526082Y-85139918D01*
X158463084Y-85088218D01*
X156718000Y-83343134D01*
X156718000Y-77647395D01*
X177555000Y-77647395D01*
X178689000Y-78781395D01*
X179823000Y-77647395D01*
X179697086Y-77357423D01*
X179364874Y-77191567D01*
X179006688Y-77093710D01*
X178636294Y-77067611D01*
X178267925Y-77114275D01*
X177915738Y-77231906D01*
X177680914Y-77357423D01*
X177555000Y-77647395D01*
X156718000Y-77647395D01*
X156718000Y-76121866D01*
X157329453Y-75510413D01*
X161985192Y-75510413D01*
X162080956Y-75774814D01*
X162370571Y-75915704D01*
X162682108Y-75997384D01*
X163003595Y-76016718D01*
X163322675Y-75972961D01*
X163627088Y-75867795D01*
X163801044Y-75774814D01*
X163896808Y-75510413D01*
X162941000Y-74554605D01*
X161985192Y-75510413D01*
X157329453Y-75510413D01*
X158402271Y-74437595D01*
X161299282Y-74437595D01*
X161343039Y-74756675D01*
X161448205Y-75061088D01*
X161541186Y-75235044D01*
X161805587Y-75330808D01*
X162761395Y-74375000D01*
X163120605Y-74375000D01*
X164076413Y-75330808D01*
X164340814Y-75235044D01*
X164481704Y-74945429D01*
X164563384Y-74633892D01*
X164582718Y-74312405D01*
X164538961Y-73993325D01*
X164463655Y-73775344D01*
X176804000Y-73775344D01*
X176804000Y-74146656D01*
X176876439Y-74510834D01*
X177018534Y-74853882D01*
X177224825Y-75162618D01*
X177487382Y-75425175D01*
X177796118Y-75631466D01*
X178139166Y-75773561D01*
X178503344Y-75846000D01*
X178874656Y-75846000D01*
X179238834Y-75773561D01*
X179581882Y-75631466D01*
X179890618Y-75425175D01*
X180153175Y-75162618D01*
X180359466Y-74853882D01*
X180501561Y-74510834D01*
X180574000Y-74146656D01*
X180574000Y-73775344D01*
X180501561Y-73411166D01*
X180359466Y-73068118D01*
X180153175Y-72759382D01*
X179890618Y-72496825D01*
X179581882Y-72290534D01*
X179238834Y-72148439D01*
X178874656Y-72076000D01*
X178503344Y-72076000D01*
X178139166Y-72148439D01*
X177796118Y-72290534D01*
X177487382Y-72496825D01*
X177224825Y-72759382D01*
X177018534Y-73068118D01*
X176876439Y-73411166D01*
X176804000Y-73775344D01*
X164463655Y-73775344D01*
X164433795Y-73688912D01*
X164340814Y-73514956D01*
X164076413Y-73419192D01*
X163120605Y-74375000D01*
X162761395Y-74375000D01*
X161805587Y-73419192D01*
X161541186Y-73514956D01*
X161400296Y-73804571D01*
X161318616Y-74116108D01*
X161299282Y-74437595D01*
X158402271Y-74437595D01*
X159600279Y-73239587D01*
X161985192Y-73239587D01*
X162941000Y-74195395D01*
X163896808Y-73239587D01*
X163801044Y-72975186D01*
X163511429Y-72834296D01*
X163199892Y-72752616D01*
X162878405Y-72733282D01*
X162559325Y-72777039D01*
X162254912Y-72882205D01*
X162080956Y-72975186D01*
X161985192Y-73239587D01*
X159600279Y-73239587D01*
X162227867Y-70612000D01*
X171368896Y-70612000D01*
X171450000Y-70619988D01*
X171531103Y-70612000D01*
X176946629Y-70612000D01*
X176987815Y-70662185D01*
X177084506Y-70741537D01*
X177194820Y-70800502D01*
X177314518Y-70836812D01*
X177439000Y-70849072D01*
X179939000Y-70849072D01*
X180063482Y-70836812D01*
X180183180Y-70800502D01*
X180293494Y-70741537D01*
X180390185Y-70662185D01*
X180469537Y-70565494D01*
X180528502Y-70455180D01*
X180564812Y-70335482D01*
X180577072Y-70211000D01*
X180577072Y-67711000D01*
X180564812Y-67586518D01*
X180528502Y-67466820D01*
X180469537Y-67356506D01*
X180390185Y-67259815D01*
X180293494Y-67180463D01*
X180183180Y-67121498D01*
X180063482Y-67085188D01*
X179939000Y-67072928D01*
X177439000Y-67072928D01*
X177314518Y-67085188D01*
X177194820Y-67121498D01*
X177084506Y-67180463D01*
X176987815Y-67259815D01*
X176946629Y-67310000D01*
X173101000Y-67310000D01*
X173101000Y-64350000D01*
X175676928Y-64350000D01*
X175689188Y-64474482D01*
X175725498Y-64594180D01*
X175784463Y-64704494D01*
X175863815Y-64801185D01*
X175960506Y-64880537D01*
X176070820Y-64939502D01*
X176190518Y-64975812D01*
X176315000Y-64988072D01*
X176879250Y-64985000D01*
X177038000Y-64826250D01*
X177038000Y-63627000D01*
X175838750Y-63627000D01*
X175680000Y-63785750D01*
X175676928Y-64350000D01*
X173101000Y-64350000D01*
X173101000Y-62650000D01*
X175676928Y-62650000D01*
X175680000Y-63214250D01*
X175838750Y-63373000D01*
X177038000Y-63373000D01*
X177038000Y-62173750D01*
X177292000Y-62173750D01*
X177292000Y-63373000D01*
X177312000Y-63373000D01*
X177312000Y-63627000D01*
X177292000Y-63627000D01*
X177292000Y-64826250D01*
X177450750Y-64985000D01*
X178015000Y-64988072D01*
X178139482Y-64975812D01*
X178259180Y-64939502D01*
X178369494Y-64880537D01*
X178466185Y-64801185D01*
X178545537Y-64704494D01*
X178604502Y-64594180D01*
X178626513Y-64521620D01*
X178758368Y-64653475D01*
X179001589Y-64815990D01*
X179271842Y-64927932D01*
X179558740Y-64985000D01*
X179851260Y-64985000D01*
X180138158Y-64927932D01*
X180408411Y-64815990D01*
X180651632Y-64653475D01*
X180858475Y-64446632D01*
X180975000Y-64272240D01*
X181091525Y-64446632D01*
X181298368Y-64653475D01*
X181541589Y-64815990D01*
X181811842Y-64927932D01*
X182098740Y-64985000D01*
X182391260Y-64985000D01*
X182678158Y-64927932D01*
X182948411Y-64815990D01*
X183191632Y-64653475D01*
X183398475Y-64446632D01*
X183560990Y-64203411D01*
X183672932Y-63933158D01*
X183730000Y-63646260D01*
X183730000Y-63353740D01*
X183672932Y-63066842D01*
X183560990Y-62796589D01*
X183398475Y-62553368D01*
X183191632Y-62346525D01*
X182948411Y-62184010D01*
X182678158Y-62072068D01*
X182391260Y-62015000D01*
X182098740Y-62015000D01*
X181811842Y-62072068D01*
X181541589Y-62184010D01*
X181298368Y-62346525D01*
X181091525Y-62553368D01*
X180975000Y-62727760D01*
X180858475Y-62553368D01*
X180651632Y-62346525D01*
X180408411Y-62184010D01*
X180138158Y-62072068D01*
X179851260Y-62015000D01*
X179558740Y-62015000D01*
X179271842Y-62072068D01*
X179001589Y-62184010D01*
X178758368Y-62346525D01*
X178626513Y-62478380D01*
X178604502Y-62405820D01*
X178545537Y-62295506D01*
X178466185Y-62198815D01*
X178369494Y-62119463D01*
X178259180Y-62060498D01*
X178139482Y-62024188D01*
X178015000Y-62011928D01*
X177450750Y-62015000D01*
X177292000Y-62173750D01*
X177038000Y-62173750D01*
X176879250Y-62015000D01*
X176315000Y-62011928D01*
X176190518Y-62024188D01*
X176070820Y-62060498D01*
X175960506Y-62119463D01*
X175863815Y-62198815D01*
X175784463Y-62295506D01*
X175725498Y-62405820D01*
X175689188Y-62525518D01*
X175676928Y-62650000D01*
X173101000Y-62650000D01*
X173101000Y-55968101D01*
X173108988Y-55887000D01*
X173101000Y-55805896D01*
X173077111Y-55563347D01*
X172982705Y-55252133D01*
X172829398Y-54965316D01*
X172623082Y-54713918D01*
X172560079Y-54662213D01*
X172173639Y-54275773D01*
X172060156Y-54001801D01*
X171859338Y-53701256D01*
X171603744Y-53445662D01*
X171303199Y-53244844D01*
X170969250Y-53106518D01*
X170704777Y-53053911D01*
X166221866Y-48571000D01*
X168595928Y-48571000D01*
X168608188Y-48695482D01*
X168644498Y-48815180D01*
X168703463Y-48925494D01*
X168782815Y-49022185D01*
X168879506Y-49101537D01*
X168989820Y-49160502D01*
X169109518Y-49196812D01*
X169234000Y-49209072D01*
X170148250Y-49206000D01*
X170307000Y-49047250D01*
X170307000Y-47498000D01*
X170561000Y-47498000D01*
X170561000Y-49047250D01*
X170719750Y-49206000D01*
X171634000Y-49209072D01*
X171758482Y-49196812D01*
X171878180Y-49160502D01*
X171988494Y-49101537D01*
X172085185Y-49022185D01*
X172164537Y-48925494D01*
X172223502Y-48815180D01*
X172259812Y-48695482D01*
X172272072Y-48571000D01*
X172269000Y-47656750D01*
X172110250Y-47498000D01*
X170561000Y-47498000D01*
X170307000Y-47498000D01*
X168757750Y-47498000D01*
X168599000Y-47656750D01*
X168595928Y-48571000D01*
X166221866Y-48571000D01*
X166105786Y-48454920D01*
X166054081Y-48391917D01*
X165802683Y-48185601D01*
X165515866Y-48032294D01*
X165204652Y-47937888D01*
X164962103Y-47913999D01*
X164962100Y-47913999D01*
X164880999Y-47906011D01*
X164799898Y-47913999D01*
X157487001Y-47913999D01*
X157487001Y-46697102D01*
X157494989Y-46616001D01*
X157487001Y-46534897D01*
X157463112Y-46292348D01*
X157426302Y-46171000D01*
X168595928Y-46171000D01*
X168599000Y-47085250D01*
X168757750Y-47244000D01*
X170307000Y-47244000D01*
X170307000Y-45694750D01*
X170561000Y-45694750D01*
X170561000Y-47244000D01*
X172110250Y-47244000D01*
X172269000Y-47085250D01*
X172272072Y-46171000D01*
X172259812Y-46046518D01*
X172223502Y-45926820D01*
X172164537Y-45816506D01*
X172085185Y-45719815D01*
X171988494Y-45640463D01*
X171878180Y-45581498D01*
X171758482Y-45545188D01*
X171634000Y-45532928D01*
X170719750Y-45536000D01*
X170561000Y-45694750D01*
X170307000Y-45694750D01*
X170148250Y-45536000D01*
X169234000Y-45532928D01*
X169109518Y-45545188D01*
X168989820Y-45581498D01*
X168879506Y-45640463D01*
X168782815Y-45719815D01*
X168703463Y-45816506D01*
X168644498Y-45926820D01*
X168608188Y-46046518D01*
X168595928Y-46171000D01*
X157426302Y-46171000D01*
X157368706Y-45981134D01*
X157215399Y-45694317D01*
X157009083Y-45442919D01*
X156946081Y-45391215D01*
X156037787Y-44482921D01*
X155986082Y-44419918D01*
X155734684Y-44213602D01*
X155447867Y-44060295D01*
X155136653Y-43965889D01*
X154894104Y-43942000D01*
X154894101Y-43942000D01*
X154813000Y-43934012D01*
X154731899Y-43942000D01*
X147235308Y-43942000D01*
X147154207Y-43934012D01*
X147073106Y-43942000D01*
X147073104Y-43942000D01*
X146830555Y-43965889D01*
X146519341Y-44060295D01*
X146385830Y-44131658D01*
X146232523Y-44213602D01*
X146141083Y-44288645D01*
X145981126Y-44419918D01*
X145929421Y-44482921D01*
X144989916Y-45422426D01*
X144926919Y-45474126D01*
X144875219Y-45537123D01*
X144875218Y-45537124D01*
X144720602Y-45725525D01*
X144583976Y-45981135D01*
X144567296Y-46012341D01*
X144472889Y-46323555D01*
X144452367Y-46531919D01*
X144441012Y-46647208D01*
X144442629Y-46663626D01*
X144287095Y-46559701D01*
X144007743Y-46443989D01*
X143711184Y-46385000D01*
X143408816Y-46385000D01*
X143112257Y-46443989D01*
X142832905Y-46559701D01*
X142581495Y-46727688D01*
X142367688Y-46941495D01*
X142290000Y-47057763D01*
X142212312Y-46941495D01*
X141998505Y-46727688D01*
X141747095Y-46559701D01*
X141467743Y-46443989D01*
X141171184Y-46385000D01*
X140868816Y-46385000D01*
X140572257Y-46443989D01*
X140292905Y-46559701D01*
X140041495Y-46727688D01*
X139827688Y-46941495D01*
X139750000Y-47057763D01*
X139672312Y-46941495D01*
X139458505Y-46727688D01*
X139369000Y-46667883D01*
X139369000Y-43879235D01*
X139687236Y-43561000D01*
X158127765Y-43561000D01*
X158591044Y-44024280D01*
X158585000Y-44054665D01*
X158585000Y-44337335D01*
X158640147Y-44614574D01*
X158748320Y-44875727D01*
X158905363Y-45110759D01*
X159105241Y-45310637D01*
X159340273Y-45467680D01*
X159601426Y-45575853D01*
X159878665Y-45631000D01*
X160161335Y-45631000D01*
X160438574Y-45575853D01*
X160699727Y-45467680D01*
X160934759Y-45310637D01*
X161134637Y-45110759D01*
X161291680Y-44875727D01*
X161399853Y-44614574D01*
X161451113Y-44356872D01*
X179629000Y-44356872D01*
X179629000Y-44797128D01*
X179714890Y-45228925D01*
X179883369Y-45635669D01*
X180127962Y-46001729D01*
X180439271Y-46313038D01*
X180805331Y-46557631D01*
X181212075Y-46726110D01*
X181643872Y-46812000D01*
X182084128Y-46812000D01*
X182515925Y-46726110D01*
X182922669Y-46557631D01*
X183288729Y-46313038D01*
X183600038Y-46001729D01*
X183844631Y-45635669D01*
X184013110Y-45228925D01*
X184099000Y-44797128D01*
X184099000Y-44356872D01*
X184013110Y-43925075D01*
X183844631Y-43518331D01*
X183600038Y-43152271D01*
X183288729Y-42840962D01*
X182922669Y-42596369D01*
X182515925Y-42427890D01*
X182084128Y-42342000D01*
X181643872Y-42342000D01*
X181212075Y-42427890D01*
X180805331Y-42596369D01*
X180439271Y-42840962D01*
X180127962Y-43152271D01*
X179883369Y-43518331D01*
X179714890Y-43925075D01*
X179629000Y-44356872D01*
X161451113Y-44356872D01*
X161455000Y-44337335D01*
X161455000Y-44054665D01*
X161399853Y-43777426D01*
X161291680Y-43516273D01*
X161134637Y-43281241D01*
X160934759Y-43081363D01*
X160699727Y-42924320D01*
X160438574Y-42816147D01*
X160161335Y-42761000D01*
X159878665Y-42761000D01*
X159848280Y-42767044D01*
X159155499Y-42074264D01*
X159127659Y-42040341D01*
X158992291Y-41929247D01*
X158837851Y-41846697D01*
X158670274Y-41795864D01*
X158539667Y-41783000D01*
X158539660Y-41783000D01*
X158496000Y-41778700D01*
X158452340Y-41783000D01*
X139362659Y-41783000D01*
X139318999Y-41778700D01*
X139275339Y-41783000D01*
X139275333Y-41783000D01*
X139177924Y-41792594D01*
X139144724Y-41795864D01*
X139043058Y-41826704D01*
X138977149Y-41846697D01*
X138822709Y-41929247D01*
X138687341Y-42040341D01*
X138659505Y-42074259D01*
X137882263Y-42851501D01*
X137848341Y-42879341D01*
X137737248Y-43014709D01*
X137654698Y-43169148D01*
X137607043Y-43326248D01*
X137603864Y-43336727D01*
X137591000Y-43467334D01*
X137591000Y-43467340D01*
X137586700Y-43511000D01*
X137591000Y-43554660D01*
X137591001Y-46667882D01*
X137501495Y-46727688D01*
X137287688Y-46941495D01*
X137227883Y-47031000D01*
X137124735Y-47031000D01*
X133564999Y-43471264D01*
X133537159Y-43437341D01*
X133401791Y-43326247D01*
X133247351Y-43243697D01*
X133079774Y-43192864D01*
X132949167Y-43180000D01*
X132949160Y-43180000D01*
X132905500Y-43175700D01*
X132861840Y-43180000D01*
X132068849Y-43180000D01*
X132051637Y-43154241D01*
X131851759Y-42954363D01*
X131616727Y-42797320D01*
X131355574Y-42689147D01*
X131078335Y-42634000D01*
X130795665Y-42634000D01*
X130518426Y-42689147D01*
X130257273Y-42797320D01*
X130022241Y-42954363D01*
X129822363Y-43154241D01*
X129665320Y-43389273D01*
X129557147Y-43650426D01*
X129502000Y-43927665D01*
X129502000Y-44210335D01*
X129557147Y-44487574D01*
X129665320Y-44748727D01*
X129822363Y-44983759D01*
X130022241Y-45183637D01*
X130257273Y-45340680D01*
X130518426Y-45448853D01*
X130795665Y-45504000D01*
X131078335Y-45504000D01*
X131355574Y-45448853D01*
X131616727Y-45340680D01*
X131851759Y-45183637D01*
X132051637Y-44983759D01*
X132068849Y-44958000D01*
X132537265Y-44958000D01*
X136097001Y-48517736D01*
X136124841Y-48551659D01*
X136260209Y-48662753D01*
X136414649Y-48745303D01*
X136470144Y-48762137D01*
X136582224Y-48796136D01*
X136615424Y-48799406D01*
X136712833Y-48809000D01*
X136712839Y-48809000D01*
X136756499Y-48813300D01*
X136800159Y-48809000D01*
X137227883Y-48809000D01*
X137287688Y-48898505D01*
X137501495Y-49112312D01*
X137556402Y-49149000D01*
X133774668Y-49149000D01*
X133731000Y-49144699D01*
X133556725Y-49161864D01*
X133505892Y-49177284D01*
X133389149Y-49212697D01*
X133234709Y-49295247D01*
X133099341Y-49406341D01*
X133071506Y-49440258D01*
X129857337Y-52654428D01*
X128476500Y-52654428D01*
X128352018Y-52666688D01*
X128232320Y-52702998D01*
X128122006Y-52761963D01*
X128025315Y-52841315D01*
X127945963Y-52938006D01*
X127886998Y-53048320D01*
X127850688Y-53168018D01*
X127838428Y-53292500D01*
X127838428Y-55292500D01*
X127850688Y-55416982D01*
X127875568Y-55499000D01*
X127615159Y-55499000D01*
X127571499Y-55494700D01*
X127527839Y-55499000D01*
X127527833Y-55499000D01*
X127430424Y-55508594D01*
X127397224Y-55511864D01*
X127315417Y-55536680D01*
X127229649Y-55562697D01*
X127075209Y-55645247D01*
X126939841Y-55756341D01*
X126912006Y-55790258D01*
X124631721Y-58070544D01*
X124601335Y-58064500D01*
X124318665Y-58064500D01*
X124041426Y-58119647D01*
X123780273Y-58227820D01*
X123545241Y-58384863D01*
X123345363Y-58584741D01*
X123188320Y-58819773D01*
X123080147Y-59080926D01*
X123025000Y-59358165D01*
X123025000Y-59640835D01*
X123080147Y-59918074D01*
X123188320Y-60179227D01*
X123345363Y-60414259D01*
X123507501Y-60576397D01*
X123507500Y-61923651D01*
X123481741Y-61940863D01*
X123281863Y-62140741D01*
X123124820Y-62375773D01*
X123016647Y-62636926D01*
X122961500Y-62914165D01*
X122961500Y-63196835D01*
X123016647Y-63474074D01*
X123124820Y-63735227D01*
X123281863Y-63970259D01*
X123481741Y-64170137D01*
X123716773Y-64327180D01*
X123977926Y-64435353D01*
X124255165Y-64490500D01*
X124537835Y-64490500D01*
X124815074Y-64435353D01*
X125076227Y-64327180D01*
X125311259Y-64170137D01*
X125511137Y-63970259D01*
X125668180Y-63735227D01*
X125776353Y-63474074D01*
X125831500Y-63196835D01*
X125831500Y-62914165D01*
X125776353Y-62636926D01*
X125668180Y-62375773D01*
X125511137Y-62140741D01*
X125311259Y-61940863D01*
X125285500Y-61923651D01*
X125285500Y-60673778D01*
X125374759Y-60614137D01*
X125496694Y-60492202D01*
X133806903Y-60492202D01*
X133878486Y-60736171D01*
X134133996Y-60857071D01*
X134408184Y-60925800D01*
X134690512Y-60939717D01*
X134970130Y-60898287D01*
X135236292Y-60803103D01*
X135361514Y-60736171D01*
X135433097Y-60492202D01*
X135369597Y-60428702D01*
X137489903Y-60428702D01*
X137561486Y-60672671D01*
X137816996Y-60793571D01*
X138091184Y-60862300D01*
X138373512Y-60876217D01*
X138653130Y-60834787D01*
X138919292Y-60739603D01*
X139044514Y-60672671D01*
X139116097Y-60428702D01*
X138303000Y-59615605D01*
X137489903Y-60428702D01*
X135369597Y-60428702D01*
X134620000Y-59679105D01*
X133806903Y-60492202D01*
X125496694Y-60492202D01*
X125574637Y-60414259D01*
X125731680Y-60179227D01*
X125839853Y-59918074D01*
X125895000Y-59640835D01*
X125895000Y-59570012D01*
X133179783Y-59570012D01*
X133221213Y-59849630D01*
X133316397Y-60115792D01*
X133383329Y-60241014D01*
X133627298Y-60312597D01*
X134440395Y-59499500D01*
X134799605Y-59499500D01*
X135612702Y-60312597D01*
X135856671Y-60241014D01*
X135977571Y-59985504D01*
X136046300Y-59711316D01*
X136056395Y-59506512D01*
X136862783Y-59506512D01*
X136904213Y-59786130D01*
X136999397Y-60052292D01*
X137066329Y-60177514D01*
X137310298Y-60249097D01*
X138123395Y-59436000D01*
X138482605Y-59436000D01*
X139295702Y-60249097D01*
X139539671Y-60177514D01*
X139660571Y-59922004D01*
X139729300Y-59647816D01*
X139743217Y-59365488D01*
X139701787Y-59085870D01*
X139606603Y-58819708D01*
X139539671Y-58694486D01*
X139295702Y-58622903D01*
X138482605Y-59436000D01*
X138123395Y-59436000D01*
X137310298Y-58622903D01*
X137066329Y-58694486D01*
X136945429Y-58949996D01*
X136876700Y-59224184D01*
X136862783Y-59506512D01*
X136056395Y-59506512D01*
X136060217Y-59428988D01*
X136018787Y-59149370D01*
X135923603Y-58883208D01*
X135856671Y-58757986D01*
X135612702Y-58686403D01*
X134799605Y-59499500D01*
X134440395Y-59499500D01*
X133627298Y-58686403D01*
X133383329Y-58757986D01*
X133262429Y-59013496D01*
X133193700Y-59287684D01*
X133179783Y-59570012D01*
X125895000Y-59570012D01*
X125895000Y-59358165D01*
X125888956Y-59327779D01*
X126709937Y-58506798D01*
X133806903Y-58506798D01*
X134620000Y-59319895D01*
X135433097Y-58506798D01*
X135414466Y-58443298D01*
X137489903Y-58443298D01*
X138303000Y-59256395D01*
X139116097Y-58443298D01*
X139044514Y-58199329D01*
X138789004Y-58078429D01*
X138514816Y-58009700D01*
X138232488Y-57995783D01*
X137952870Y-58037213D01*
X137686708Y-58132397D01*
X137561486Y-58199329D01*
X137489903Y-58443298D01*
X135414466Y-58443298D01*
X135361514Y-58262829D01*
X135106004Y-58141929D01*
X134831816Y-58073200D01*
X134549488Y-58059283D01*
X134269870Y-58100713D01*
X134003708Y-58195897D01*
X133878486Y-58262829D01*
X133806903Y-58506798D01*
X126709937Y-58506798D01*
X127939736Y-57277000D01*
X137878340Y-57277000D01*
X137922000Y-57281300D01*
X137965660Y-57277000D01*
X137965667Y-57277000D01*
X138096274Y-57264136D01*
X138263851Y-57213303D01*
X138418291Y-57130753D01*
X138553659Y-57019659D01*
X138581499Y-56985736D01*
X140347736Y-55219499D01*
X140381659Y-55191659D01*
X140492753Y-55056291D01*
X140575303Y-54901851D01*
X140613201Y-54776916D01*
X140626136Y-54734276D01*
X140635439Y-54639820D01*
X140639000Y-54603667D01*
X140639000Y-54603661D01*
X140643300Y-54560001D01*
X140639000Y-54516341D01*
X140639000Y-54252117D01*
X140728505Y-54192312D01*
X140942312Y-53978505D01*
X141020000Y-53862237D01*
X141097688Y-53978505D01*
X141311495Y-54192312D01*
X141562905Y-54360299D01*
X141842257Y-54476011D01*
X142138816Y-54535000D01*
X142441184Y-54535000D01*
X142737743Y-54476011D01*
X143017095Y-54360299D01*
X143179000Y-54252117D01*
X143179001Y-57225132D01*
X141129921Y-59274213D01*
X141066918Y-59325918D01*
X140860602Y-59577317D01*
X140707295Y-59864134D01*
X140613601Y-60172999D01*
X140500439Y-60150490D01*
X140296561Y-60150490D01*
X140096602Y-60190264D01*
X139908244Y-60268285D01*
X139738726Y-60381553D01*
X139594563Y-60525716D01*
X139481295Y-60695234D01*
X139403274Y-60883592D01*
X139393370Y-60933384D01*
X137578259Y-62748496D01*
X137544342Y-62776331D01*
X137516507Y-62810248D01*
X137516505Y-62810250D01*
X137433248Y-62911699D01*
X137350698Y-63066138D01*
X137299864Y-63233716D01*
X137282700Y-63407990D01*
X137287001Y-63451660D01*
X137287001Y-64273151D01*
X137261241Y-64290363D01*
X137061363Y-64490241D01*
X136904320Y-64725273D01*
X136796147Y-64986426D01*
X136741000Y-65263665D01*
X136741000Y-65546335D01*
X136796147Y-65823574D01*
X136904320Y-66084727D01*
X137061363Y-66319759D01*
X137261241Y-66519637D01*
X137287000Y-66536849D01*
X137287000Y-67638651D01*
X137261241Y-67655863D01*
X137061363Y-67855741D01*
X136904320Y-68090773D01*
X136796147Y-68351926D01*
X136741000Y-68629165D01*
X136741000Y-68757764D01*
X132752259Y-72746506D01*
X132718342Y-72774341D01*
X132690507Y-72808258D01*
X132690505Y-72808260D01*
X132607248Y-72909709D01*
X132524698Y-73064148D01*
X132473864Y-73231726D01*
X132456700Y-73406000D01*
X132461001Y-73449670D01*
X132461000Y-75913693D01*
X132425518Y-75917188D01*
X132305820Y-75953498D01*
X132195506Y-76012463D01*
X132098815Y-76091815D01*
X132019463Y-76188506D01*
X131960498Y-76298820D01*
X131924188Y-76418518D01*
X131911928Y-76543000D01*
X131911928Y-77523837D01*
X131863259Y-77572506D01*
X131829342Y-77600341D01*
X131801507Y-77634258D01*
X131801505Y-77634260D01*
X131718248Y-77735709D01*
X131635698Y-77890148D01*
X131584864Y-78057726D01*
X131567700Y-78232000D01*
X131572001Y-78275670D01*
X131572000Y-90135764D01*
X131051072Y-89614836D01*
X131051072Y-88234000D01*
X131038812Y-88109518D01*
X131002502Y-87989820D01*
X130943537Y-87879506D01*
X130864185Y-87782815D01*
X130767494Y-87703463D01*
X130657180Y-87644498D01*
X130537482Y-87608188D01*
X130413000Y-87595928D01*
X128413000Y-87595928D01*
X128288518Y-87608188D01*
X128168820Y-87644498D01*
X128058506Y-87703463D01*
X127961815Y-87782815D01*
X127882463Y-87879506D01*
X127823498Y-87989820D01*
X127787188Y-88109518D01*
X127774928Y-88234000D01*
X127774928Y-90234000D01*
X127787188Y-90358482D01*
X127823498Y-90478180D01*
X127882463Y-90588494D01*
X127961815Y-90685185D01*
X128058506Y-90764537D01*
X128168820Y-90823502D01*
X128288518Y-90859812D01*
X128413000Y-90872072D01*
X129793836Y-90872072D01*
X130302001Y-91380237D01*
X130302001Y-92837132D01*
X130047867Y-92701295D01*
X129736653Y-92606889D01*
X129494104Y-92583000D01*
X127335100Y-92583000D01*
X127253999Y-92575012D01*
X127172898Y-92583000D01*
X127172896Y-92583000D01*
X126930347Y-92606889D01*
X126619133Y-92701295D01*
X126485622Y-92772658D01*
X126332315Y-92854602D01*
X126192541Y-92969312D01*
X126080918Y-93060918D01*
X126029218Y-93123915D01*
X121363134Y-97790000D01*
X120695896Y-97790000D01*
X120453347Y-97813889D01*
X120142133Y-97908295D01*
X119855316Y-98061602D01*
X119603918Y-98267918D01*
X119397602Y-98519316D01*
X119244295Y-98806133D01*
X119149889Y-99117347D01*
X119118012Y-99441000D01*
X119149889Y-99764653D01*
X119244295Y-100075867D01*
X119397602Y-100362684D01*
X119603918Y-100614082D01*
X119855316Y-100820398D01*
X120082328Y-100941738D01*
X110896000Y-100941983D01*
X110896000Y-97823872D01*
X113081000Y-97823872D01*
X113081000Y-98264128D01*
X113166890Y-98695925D01*
X113335369Y-99102669D01*
X113579962Y-99468729D01*
X113891271Y-99780038D01*
X114257331Y-100024631D01*
X114664075Y-100193110D01*
X115095872Y-100279000D01*
X115536128Y-100279000D01*
X115967925Y-100193110D01*
X116374669Y-100024631D01*
X116740729Y-99780038D01*
X117052038Y-99468729D01*
X117296631Y-99102669D01*
X117465110Y-98695925D01*
X117551000Y-98264128D01*
X117551000Y-97823872D01*
X117465110Y-97392075D01*
X117296631Y-96985331D01*
X117052038Y-96619271D01*
X116740729Y-96307962D01*
X116374669Y-96063369D01*
X115967925Y-95894890D01*
X115536128Y-95809000D01*
X115095872Y-95809000D01*
X114664075Y-95894890D01*
X114257331Y-96063369D01*
X113891271Y-96307962D01*
X113579962Y-96619271D01*
X113335369Y-96985331D01*
X113166890Y-97392075D01*
X113081000Y-97823872D01*
X110896000Y-97823872D01*
X110896000Y-92817000D01*
X115459928Y-92817000D01*
X115472188Y-92941482D01*
X115508498Y-93061180D01*
X115567463Y-93171494D01*
X115646815Y-93268185D01*
X115743506Y-93347537D01*
X115853820Y-93406502D01*
X115973518Y-93442812D01*
X116098000Y-93455072D01*
X117062250Y-93452000D01*
X117221000Y-93293250D01*
X117221000Y-91694000D01*
X117475000Y-91694000D01*
X117475000Y-93293250D01*
X117633750Y-93452000D01*
X118598000Y-93455072D01*
X118722482Y-93442812D01*
X118842180Y-93406502D01*
X118952494Y-93347537D01*
X119049185Y-93268185D01*
X119128537Y-93171494D01*
X119187502Y-93061180D01*
X119223812Y-92941482D01*
X119236072Y-92817000D01*
X119233000Y-91852750D01*
X119074250Y-91694000D01*
X117475000Y-91694000D01*
X117221000Y-91694000D01*
X115621750Y-91694000D01*
X115463000Y-91852750D01*
X115459928Y-92817000D01*
X110896000Y-92817000D01*
X110896000Y-90317000D01*
X115459928Y-90317000D01*
X115463000Y-91281250D01*
X115621750Y-91440000D01*
X117221000Y-91440000D01*
X117221000Y-89840750D01*
X117475000Y-89840750D01*
X117475000Y-91440000D01*
X119074250Y-91440000D01*
X119233000Y-91281250D01*
X119236072Y-90317000D01*
X119223812Y-90192518D01*
X119187502Y-90072820D01*
X119128537Y-89962506D01*
X119049185Y-89865815D01*
X118952494Y-89786463D01*
X118842180Y-89727498D01*
X118722482Y-89691188D01*
X118598000Y-89678928D01*
X117633750Y-89682000D01*
X117475000Y-89840750D01*
X117221000Y-89840750D01*
X117062250Y-89682000D01*
X116098000Y-89678928D01*
X115973518Y-89691188D01*
X115853820Y-89727498D01*
X115743506Y-89786463D01*
X115646815Y-89865815D01*
X115567463Y-89962506D01*
X115508498Y-90072820D01*
X115472188Y-90192518D01*
X115459928Y-90317000D01*
X110896000Y-90317000D01*
X110896000Y-86381344D01*
X115463000Y-86381344D01*
X115463000Y-86752656D01*
X115535439Y-87116834D01*
X115677534Y-87459882D01*
X115883825Y-87768618D01*
X116146382Y-88031175D01*
X116455118Y-88237466D01*
X116798166Y-88379561D01*
X117162344Y-88452000D01*
X117533656Y-88452000D01*
X117897834Y-88379561D01*
X118240882Y-88237466D01*
X118549618Y-88031175D01*
X118812175Y-87768618D01*
X119018466Y-87459882D01*
X119160561Y-87116834D01*
X119233000Y-86752656D01*
X119233000Y-86381344D01*
X119160561Y-86017166D01*
X119018466Y-85674118D01*
X118812175Y-85365382D01*
X118549618Y-85102825D01*
X118240882Y-84896534D01*
X117897834Y-84754439D01*
X117533656Y-84682000D01*
X117162344Y-84682000D01*
X116798166Y-84754439D01*
X116455118Y-84896534D01*
X116146382Y-85102825D01*
X115883825Y-85365382D01*
X115677534Y-85674118D01*
X115535439Y-86017166D01*
X115463000Y-86381344D01*
X110896000Y-86381344D01*
X110896000Y-78633000D01*
X115459928Y-78633000D01*
X115459928Y-81133000D01*
X115472188Y-81257482D01*
X115508498Y-81377180D01*
X115567463Y-81487494D01*
X115646815Y-81584185D01*
X115743506Y-81663537D01*
X115853820Y-81722502D01*
X115973518Y-81758812D01*
X116098000Y-81771072D01*
X118598000Y-81771072D01*
X118722482Y-81758812D01*
X118842180Y-81722502D01*
X118952494Y-81663537D01*
X119049185Y-81584185D01*
X119128537Y-81487494D01*
X119187502Y-81377180D01*
X119223812Y-81257482D01*
X119234102Y-81153000D01*
X119842127Y-81153000D01*
X119904500Y-81159143D01*
X119966873Y-81153000D01*
X119966880Y-81153000D01*
X120153463Y-81134623D01*
X120392859Y-81062003D01*
X120613488Y-80944075D01*
X120806870Y-80785370D01*
X120846641Y-80736909D01*
X121460885Y-80122665D01*
X123025000Y-80122665D01*
X123025000Y-80405335D01*
X123080147Y-80682574D01*
X123188320Y-80943727D01*
X123345363Y-81178759D01*
X123545241Y-81378637D01*
X123634501Y-81438278D01*
X123634500Y-82772722D01*
X123545241Y-82832363D01*
X123345363Y-83032241D01*
X123188320Y-83267273D01*
X123080147Y-83528426D01*
X123025000Y-83805665D01*
X123025000Y-84088335D01*
X123080147Y-84365574D01*
X123188320Y-84626727D01*
X123345363Y-84861759D01*
X123545241Y-85061637D01*
X123780273Y-85218680D01*
X124041426Y-85326853D01*
X124318665Y-85382000D01*
X124601335Y-85382000D01*
X124878574Y-85326853D01*
X125139727Y-85218680D01*
X125374759Y-85061637D01*
X125574637Y-84861759D01*
X125731680Y-84626727D01*
X125839853Y-84365574D01*
X125895000Y-84088335D01*
X125895000Y-83805665D01*
X125839853Y-83528426D01*
X125731680Y-83267273D01*
X125574637Y-83032241D01*
X125412500Y-82870104D01*
X125412500Y-81340896D01*
X125574637Y-81178759D01*
X125731680Y-80943727D01*
X125839853Y-80682574D01*
X125895000Y-80405335D01*
X125895000Y-80122665D01*
X125839853Y-79845426D01*
X125731680Y-79584273D01*
X125574637Y-79349241D01*
X125374759Y-79149363D01*
X125139727Y-78992320D01*
X124878574Y-78884147D01*
X124601335Y-78829000D01*
X124318665Y-78829000D01*
X124041426Y-78884147D01*
X123780273Y-78992320D01*
X123545241Y-79149363D01*
X123345363Y-79349241D01*
X123188320Y-79584273D01*
X123080147Y-79845426D01*
X123025000Y-80122665D01*
X121460885Y-80122665D01*
X123247848Y-78335702D01*
X129036903Y-78335702D01*
X129108486Y-78579671D01*
X129363996Y-78700571D01*
X129638184Y-78769300D01*
X129920512Y-78783217D01*
X130200130Y-78741787D01*
X130466292Y-78646603D01*
X130591514Y-78579671D01*
X130663097Y-78335702D01*
X129850000Y-77522605D01*
X129036903Y-78335702D01*
X123247848Y-78335702D01*
X124170038Y-77413512D01*
X128409783Y-77413512D01*
X128451213Y-77693130D01*
X128546397Y-77959292D01*
X128613329Y-78084514D01*
X128857298Y-78156097D01*
X129670395Y-77343000D01*
X130029605Y-77343000D01*
X130842702Y-78156097D01*
X131086671Y-78084514D01*
X131207571Y-77829004D01*
X131276300Y-77554816D01*
X131290217Y-77272488D01*
X131248787Y-76992870D01*
X131153603Y-76726708D01*
X131086671Y-76601486D01*
X130842702Y-76529903D01*
X130029605Y-77343000D01*
X129670395Y-77343000D01*
X128857298Y-76529903D01*
X128613329Y-76601486D01*
X128492429Y-76856996D01*
X128423700Y-77131184D01*
X128409783Y-77413512D01*
X124170038Y-77413512D01*
X124982919Y-76600632D01*
X125139727Y-76535680D01*
X125374759Y-76378637D01*
X125403098Y-76350298D01*
X129036903Y-76350298D01*
X129850000Y-77163395D01*
X130663097Y-76350298D01*
X130591514Y-76106329D01*
X130336004Y-75985429D01*
X130061816Y-75916700D01*
X129779488Y-75902783D01*
X129499870Y-75944213D01*
X129233708Y-76039397D01*
X129108486Y-76106329D01*
X129036903Y-76350298D01*
X125403098Y-76350298D01*
X125574637Y-76178759D01*
X125731680Y-75943727D01*
X125839853Y-75682574D01*
X125895000Y-75405335D01*
X125895000Y-75122665D01*
X125839853Y-74845426D01*
X125731680Y-74584273D01*
X125574637Y-74349241D01*
X125374759Y-74149363D01*
X125139727Y-73992320D01*
X124878574Y-73884147D01*
X124601335Y-73829000D01*
X124318665Y-73829000D01*
X124041426Y-73884147D01*
X123780273Y-73992320D01*
X123545241Y-74149363D01*
X123345363Y-74349241D01*
X123188320Y-74584273D01*
X123080147Y-74845426D01*
X123063789Y-74927660D01*
X119378450Y-78613000D01*
X119234102Y-78613000D01*
X119223812Y-78508518D01*
X119187502Y-78388820D01*
X119128537Y-78278506D01*
X119049185Y-78181815D01*
X118952494Y-78102463D01*
X118842180Y-78043498D01*
X118722482Y-78007188D01*
X118598000Y-77994928D01*
X116098000Y-77994928D01*
X115973518Y-78007188D01*
X115853820Y-78043498D01*
X115743506Y-78102463D01*
X115646815Y-78181815D01*
X115567463Y-78278506D01*
X115508498Y-78388820D01*
X115472188Y-78508518D01*
X115459928Y-78633000D01*
X110896000Y-78633000D01*
X110896000Y-76196605D01*
X116214000Y-76196605D01*
X116339914Y-76486577D01*
X116672126Y-76652433D01*
X117030312Y-76750290D01*
X117400706Y-76776389D01*
X117769075Y-76729725D01*
X118121262Y-76612094D01*
X118356086Y-76486577D01*
X118482000Y-76196605D01*
X117348000Y-75062605D01*
X116214000Y-76196605D01*
X110896000Y-76196605D01*
X110896000Y-74935706D01*
X115454611Y-74935706D01*
X115501275Y-75304075D01*
X115618906Y-75656262D01*
X115744423Y-75891086D01*
X116034395Y-76017000D01*
X117168395Y-74883000D01*
X117527605Y-74883000D01*
X118661605Y-76017000D01*
X118951577Y-75891086D01*
X119117433Y-75558874D01*
X119215290Y-75200688D01*
X119241389Y-74830294D01*
X119194725Y-74461925D01*
X119077094Y-74109738D01*
X118951577Y-73874914D01*
X118661605Y-73749000D01*
X117527605Y-74883000D01*
X117168395Y-74883000D01*
X116034395Y-73749000D01*
X115744423Y-73874914D01*
X115578567Y-74207126D01*
X115480710Y-74565312D01*
X115454611Y-74935706D01*
X110896000Y-74935706D01*
X110896000Y-73569395D01*
X116214000Y-73569395D01*
X117348000Y-74703395D01*
X118482000Y-73569395D01*
X118356086Y-73279423D01*
X118023874Y-73113567D01*
X117665688Y-73015710D01*
X117295294Y-72989611D01*
X116926925Y-73036275D01*
X116574738Y-73153906D01*
X116339914Y-73279423D01*
X116214000Y-73569395D01*
X110896000Y-73569395D01*
X110896000Y-66441000D01*
X115459928Y-66441000D01*
X115459928Y-68941000D01*
X115472188Y-69065482D01*
X115508498Y-69185180D01*
X115567463Y-69295494D01*
X115646815Y-69392185D01*
X115743506Y-69471537D01*
X115853820Y-69530502D01*
X115973518Y-69566812D01*
X116098000Y-69579072D01*
X118598000Y-69579072D01*
X118722482Y-69566812D01*
X118842180Y-69530502D01*
X118952494Y-69471537D01*
X119049185Y-69392185D01*
X119103912Y-69325500D01*
X123714259Y-69325500D01*
X123716773Y-69327180D01*
X123977926Y-69435353D01*
X124255165Y-69490500D01*
X124537835Y-69490500D01*
X124815074Y-69435353D01*
X125076227Y-69327180D01*
X125311259Y-69170137D01*
X125511137Y-68970259D01*
X125668180Y-68735227D01*
X125776353Y-68474074D01*
X125831500Y-68196835D01*
X125831500Y-67914165D01*
X125776353Y-67636926D01*
X125736496Y-67540702D01*
X129036903Y-67540702D01*
X129108486Y-67784671D01*
X129363996Y-67905571D01*
X129638184Y-67974300D01*
X129920512Y-67988217D01*
X130200130Y-67946787D01*
X130466292Y-67851603D01*
X130591514Y-67784671D01*
X130663097Y-67540702D01*
X129850000Y-66727605D01*
X129036903Y-67540702D01*
X125736496Y-67540702D01*
X125668180Y-67375773D01*
X125511137Y-67140741D01*
X125311259Y-66940863D01*
X125076227Y-66783820D01*
X124815074Y-66675647D01*
X124537835Y-66620500D01*
X124255165Y-66620500D01*
X123977926Y-66675647D01*
X123716773Y-66783820D01*
X123714259Y-66785500D01*
X119236072Y-66785500D01*
X119236072Y-66618512D01*
X128409783Y-66618512D01*
X128451213Y-66898130D01*
X128546397Y-67164292D01*
X128613329Y-67289514D01*
X128857298Y-67361097D01*
X129670395Y-66548000D01*
X130029605Y-66548000D01*
X130842702Y-67361097D01*
X131086671Y-67289514D01*
X131207571Y-67034004D01*
X131276300Y-66759816D01*
X131290217Y-66477488D01*
X131248787Y-66197870D01*
X131153603Y-65931708D01*
X131086671Y-65806486D01*
X130887340Y-65748000D01*
X131911928Y-65748000D01*
X131911928Y-67348000D01*
X131924188Y-67472482D01*
X131960498Y-67592180D01*
X132019463Y-67702494D01*
X132098815Y-67799185D01*
X132195506Y-67878537D01*
X132305820Y-67937502D01*
X132425518Y-67973812D01*
X132550000Y-67986072D01*
X134150000Y-67986072D01*
X134274482Y-67973812D01*
X134394180Y-67937502D01*
X134504494Y-67878537D01*
X134601185Y-67799185D01*
X134680537Y-67702494D01*
X134739502Y-67592180D01*
X134775812Y-67472482D01*
X134788072Y-67348000D01*
X134788072Y-65748000D01*
X134775812Y-65623518D01*
X134739502Y-65503820D01*
X134680537Y-65393506D01*
X134601185Y-65296815D01*
X134504494Y-65217463D01*
X134394180Y-65158498D01*
X134274482Y-65122188D01*
X134150000Y-65109928D01*
X132550000Y-65109928D01*
X132425518Y-65122188D01*
X132305820Y-65158498D01*
X132195506Y-65217463D01*
X132098815Y-65296815D01*
X132019463Y-65393506D01*
X131960498Y-65503820D01*
X131924188Y-65623518D01*
X131911928Y-65748000D01*
X130887340Y-65748000D01*
X130842702Y-65734903D01*
X130029605Y-66548000D01*
X129670395Y-66548000D01*
X128857298Y-65734903D01*
X128613329Y-65806486D01*
X128492429Y-66061996D01*
X128423700Y-66336184D01*
X128409783Y-66618512D01*
X119236072Y-66618512D01*
X119236072Y-66441000D01*
X119223812Y-66316518D01*
X119187502Y-66196820D01*
X119128537Y-66086506D01*
X119049185Y-65989815D01*
X118952494Y-65910463D01*
X118842180Y-65851498D01*
X118722482Y-65815188D01*
X118598000Y-65802928D01*
X116098000Y-65802928D01*
X115973518Y-65815188D01*
X115853820Y-65851498D01*
X115743506Y-65910463D01*
X115646815Y-65989815D01*
X115567463Y-66086506D01*
X115508498Y-66196820D01*
X115472188Y-66316518D01*
X115459928Y-66441000D01*
X110896000Y-66441000D01*
X110896000Y-65555298D01*
X129036903Y-65555298D01*
X129850000Y-66368395D01*
X130663097Y-65555298D01*
X130591514Y-65311329D01*
X130336004Y-65190429D01*
X130061816Y-65121700D01*
X129779488Y-65107783D01*
X129499870Y-65149213D01*
X129233708Y-65244397D01*
X129108486Y-65311329D01*
X129036903Y-65555298D01*
X110896000Y-65555298D01*
X110896000Y-64004605D01*
X116214000Y-64004605D01*
X116339914Y-64294577D01*
X116672126Y-64460433D01*
X117030312Y-64558290D01*
X117400706Y-64584389D01*
X117769075Y-64537725D01*
X118121262Y-64420094D01*
X118356086Y-64294577D01*
X118482000Y-64004605D01*
X117348000Y-62870605D01*
X116214000Y-64004605D01*
X110896000Y-64004605D01*
X110896000Y-62743706D01*
X115454611Y-62743706D01*
X115501275Y-63112075D01*
X115618906Y-63464262D01*
X115744423Y-63699086D01*
X116034395Y-63825000D01*
X117168395Y-62691000D01*
X117527605Y-62691000D01*
X118661605Y-63825000D01*
X118951577Y-63699086D01*
X119117433Y-63366874D01*
X119215290Y-63008688D01*
X119241389Y-62638294D01*
X119194725Y-62269925D01*
X119077094Y-61917738D01*
X118951577Y-61682914D01*
X118661605Y-61557000D01*
X117527605Y-62691000D01*
X117168395Y-62691000D01*
X116034395Y-61557000D01*
X115744423Y-61682914D01*
X115578567Y-62015126D01*
X115480710Y-62373312D01*
X115454611Y-62743706D01*
X110896000Y-62743706D01*
X110896000Y-61377395D01*
X116214000Y-61377395D01*
X117348000Y-62511395D01*
X118482000Y-61377395D01*
X118356086Y-61087423D01*
X118023874Y-60921567D01*
X117665688Y-60823710D01*
X117295294Y-60797611D01*
X116926925Y-60844275D01*
X116574738Y-60961906D01*
X116339914Y-61087423D01*
X116214000Y-61377395D01*
X110896000Y-61377395D01*
X110896000Y-57384000D01*
X115459928Y-57384000D01*
X115472188Y-57508482D01*
X115508498Y-57628180D01*
X115567463Y-57738494D01*
X115646815Y-57835185D01*
X115743506Y-57914537D01*
X115853820Y-57973502D01*
X115973518Y-58009812D01*
X116098000Y-58022072D01*
X117062250Y-58019000D01*
X117221000Y-57860250D01*
X117221000Y-56261000D01*
X117475000Y-56261000D01*
X117475000Y-57860250D01*
X117633750Y-58019000D01*
X118598000Y-58022072D01*
X118722482Y-58009812D01*
X118842180Y-57973502D01*
X118952494Y-57914537D01*
X119049185Y-57835185D01*
X119128537Y-57738494D01*
X119187502Y-57628180D01*
X119223812Y-57508482D01*
X119236072Y-57384000D01*
X119233000Y-56419750D01*
X119074250Y-56261000D01*
X117475000Y-56261000D01*
X117221000Y-56261000D01*
X115621750Y-56261000D01*
X115463000Y-56419750D01*
X115459928Y-57384000D01*
X110896000Y-57384000D01*
X110896000Y-54884000D01*
X115459928Y-54884000D01*
X115463000Y-55848250D01*
X115621750Y-56007000D01*
X117221000Y-56007000D01*
X117221000Y-54407750D01*
X117475000Y-54407750D01*
X117475000Y-56007000D01*
X119074250Y-56007000D01*
X119233000Y-55848250D01*
X119236072Y-54884000D01*
X119223812Y-54759518D01*
X119187502Y-54639820D01*
X119128537Y-54529506D01*
X119049185Y-54432815D01*
X118952494Y-54353463D01*
X118842180Y-54294498D01*
X118722482Y-54258188D01*
X118598000Y-54245928D01*
X117633750Y-54249000D01*
X117475000Y-54407750D01*
X117221000Y-54407750D01*
X117062250Y-54249000D01*
X116098000Y-54245928D01*
X115973518Y-54258188D01*
X115853820Y-54294498D01*
X115743506Y-54353463D01*
X115646815Y-54432815D01*
X115567463Y-54529506D01*
X115508498Y-54639820D01*
X115472188Y-54759518D01*
X115459928Y-54884000D01*
X110896000Y-54884000D01*
X110896000Y-50948344D01*
X115463000Y-50948344D01*
X115463000Y-51319656D01*
X115535439Y-51683834D01*
X115677534Y-52026882D01*
X115883825Y-52335618D01*
X116146382Y-52598175D01*
X116161585Y-52608333D01*
X116174919Y-52624581D01*
X116426317Y-52830898D01*
X116713133Y-52984204D01*
X117024348Y-53078610D01*
X117348000Y-53110488D01*
X117671652Y-53078610D01*
X117982867Y-52984204D01*
X118269683Y-52830898D01*
X118458084Y-52676282D01*
X118509153Y-52625213D01*
X118549618Y-52598175D01*
X118812175Y-52335618D01*
X119018466Y-52026882D01*
X119160561Y-51683834D01*
X119167396Y-51649470D01*
X121685399Y-49131467D01*
X127841500Y-49131467D01*
X127841500Y-49453533D01*
X127904332Y-49769412D01*
X128027582Y-50066963D01*
X128206513Y-50334752D01*
X128434248Y-50562487D01*
X128702037Y-50741418D01*
X128999588Y-50864668D01*
X129315467Y-50927500D01*
X129637533Y-50927500D01*
X129953412Y-50864668D01*
X130250963Y-50741418D01*
X130518752Y-50562487D01*
X130746487Y-50334752D01*
X130925418Y-50066963D01*
X131048668Y-49769412D01*
X131111500Y-49453533D01*
X131111500Y-49131467D01*
X131048668Y-48815588D01*
X130925418Y-48518037D01*
X130746487Y-48250248D01*
X130518752Y-48022513D01*
X130250963Y-47843582D01*
X129953412Y-47720332D01*
X129637533Y-47657500D01*
X129315467Y-47657500D01*
X128999588Y-47720332D01*
X128702037Y-47843582D01*
X128434248Y-48022513D01*
X128206513Y-48250248D01*
X128027582Y-48518037D01*
X127904332Y-48815588D01*
X127841500Y-49131467D01*
X121685399Y-49131467D01*
X121887085Y-48929782D01*
X121950082Y-48878082D01*
X122053361Y-48752236D01*
X122156398Y-48626685D01*
X122268855Y-48416291D01*
X122309705Y-48339867D01*
X122404111Y-48028653D01*
X122428000Y-47786104D01*
X122428000Y-47786102D01*
X122435988Y-47705001D01*
X122428000Y-47623900D01*
X122428000Y-43987896D01*
X122404111Y-43745347D01*
X122309705Y-43434133D01*
X122156398Y-43147316D01*
X121950082Y-42895918D01*
X121698683Y-42689602D01*
X121411866Y-42536295D01*
X121100652Y-42441889D01*
X120777000Y-42410012D01*
X120453347Y-42441889D01*
X120142133Y-42536295D01*
X119855316Y-42689602D01*
X119603918Y-42895918D01*
X119397602Y-43147317D01*
X119244295Y-43434134D01*
X119149889Y-43745348D01*
X119126000Y-43987897D01*
X119126001Y-47021132D01*
X116924778Y-49222355D01*
X116776633Y-49267295D01*
X116489816Y-49420602D01*
X116360320Y-49526876D01*
X116146382Y-49669825D01*
X115883825Y-49932382D01*
X115677534Y-50241118D01*
X115535439Y-50584166D01*
X115463000Y-50948344D01*
X110896000Y-50948344D01*
X110896000Y-44356872D01*
X112954000Y-44356872D01*
X112954000Y-44797128D01*
X113039890Y-45228925D01*
X113208369Y-45635669D01*
X113452962Y-46001729D01*
X113764271Y-46313038D01*
X114130331Y-46557631D01*
X114537075Y-46726110D01*
X114968872Y-46812000D01*
X115409128Y-46812000D01*
X115840925Y-46726110D01*
X116247669Y-46557631D01*
X116613729Y-46313038D01*
X116925038Y-46001729D01*
X117169631Y-45635669D01*
X117338110Y-45228925D01*
X117424000Y-44797128D01*
X117424000Y-44356872D01*
X117338110Y-43925075D01*
X117169631Y-43518331D01*
X116925038Y-43152271D01*
X116613729Y-42840962D01*
X116247669Y-42596369D01*
X115840925Y-42427890D01*
X115409128Y-42342000D01*
X114968872Y-42342000D01*
X114537075Y-42427890D01*
X114130331Y-42596369D01*
X113764271Y-42840962D01*
X113452962Y-43152271D01*
X113208369Y-43518331D01*
X113039890Y-43925075D01*
X112954000Y-44356872D01*
X110896000Y-44356872D01*
X110896000Y-41681000D01*
X184760001Y-41681000D01*
X184760000Y-100940018D01*
G37*
G04 #@! TD.AperFunction*
D27*
X151253500Y-96396500D02*
X151273500Y-96396500D01*
X151273500Y-96650500D01*
X151253500Y-96650500D01*
X151253500Y-97894492D01*
X151491241Y-98014541D01*
X151775120Y-97914734D01*
X152034073Y-97761462D01*
X152258149Y-97560616D01*
X152393133Y-97380698D01*
X152474188Y-97502005D01*
X152687995Y-97715812D01*
X152777500Y-97775618D01*
X152777501Y-99949000D01*
X147815235Y-99949000D01*
X149184242Y-98579994D01*
X149218159Y-98552159D01*
X149329253Y-98416791D01*
X149411803Y-98262351D01*
X149446900Y-98146649D01*
X149462636Y-98094775D01*
X149470538Y-98014541D01*
X149475500Y-97964167D01*
X149475500Y-97964160D01*
X149479800Y-97920500D01*
X149475500Y-97876840D01*
X149475500Y-97775617D01*
X149565005Y-97715812D01*
X149778812Y-97502005D01*
X149859867Y-97380698D01*
X149994851Y-97560616D01*
X150218927Y-97761462D01*
X150477880Y-97914734D01*
X150761759Y-98014541D01*
X150999500Y-97894492D01*
X150999500Y-96650500D01*
X150979500Y-96650500D01*
X150979500Y-96396500D01*
X150999500Y-96396500D01*
X150999500Y-96376500D01*
X151253500Y-96376500D01*
X151253500Y-96396500D01*
G04 #@! TA.AperFunction,Conductor*
D28*
G36*
X151253500Y-96396500D02*
G01*
X151273500Y-96396500D01*
X151273500Y-96650500D01*
X151253500Y-96650500D01*
X151253500Y-97894492D01*
X151491241Y-98014541D01*
X151775120Y-97914734D01*
X152034073Y-97761462D01*
X152258149Y-97560616D01*
X152393133Y-97380698D01*
X152474188Y-97502005D01*
X152687995Y-97715812D01*
X152777500Y-97775618D01*
X152777501Y-99949000D01*
X147815235Y-99949000D01*
X149184242Y-98579994D01*
X149218159Y-98552159D01*
X149329253Y-98416791D01*
X149411803Y-98262351D01*
X149446900Y-98146649D01*
X149462636Y-98094775D01*
X149470538Y-98014541D01*
X149475500Y-97964167D01*
X149475500Y-97964160D01*
X149479800Y-97920500D01*
X149475500Y-97876840D01*
X149475500Y-97775617D01*
X149565005Y-97715812D01*
X149778812Y-97502005D01*
X149859867Y-97380698D01*
X149994851Y-97560616D01*
X150218927Y-97761462D01*
X150477880Y-97914734D01*
X150761759Y-98014541D01*
X150999500Y-97894492D01*
X150999500Y-96650500D01*
X150979500Y-96650500D01*
X150979500Y-96396500D01*
X150999500Y-96396500D01*
X150999500Y-96376500D01*
X151253500Y-96376500D01*
X151253500Y-96396500D01*
G37*
G04 #@! TD.AperFunction*
D27*
X140589001Y-82913389D02*
X140581012Y-82994500D01*
X140600997Y-83197403D01*
X140612890Y-83318153D01*
X140630326Y-83375632D01*
X140707296Y-83629367D01*
X140835471Y-83869165D01*
X140860603Y-83916184D01*
X141066919Y-84167582D01*
X141129916Y-84219282D01*
X142145916Y-85235282D01*
X142334316Y-85389898D01*
X142621132Y-85543204D01*
X142932347Y-85637610D01*
X143256000Y-85669488D01*
X143579652Y-85637610D01*
X143887500Y-85544225D01*
X143887500Y-90191383D01*
X143797995Y-90251188D01*
X143584188Y-90464995D01*
X143506500Y-90581263D01*
X143428812Y-90464995D01*
X143215005Y-90251188D01*
X142963595Y-90083201D01*
X142684243Y-89967489D01*
X142387684Y-89908500D01*
X142085316Y-89908500D01*
X141788757Y-89967489D01*
X141509405Y-90083201D01*
X141257995Y-90251188D01*
X141044188Y-90464995D01*
X140966500Y-90581263D01*
X140888812Y-90464995D01*
X140675005Y-90251188D01*
X140423595Y-90083201D01*
X140144243Y-89967489D01*
X139847684Y-89908500D01*
X139545316Y-89908500D01*
X139248757Y-89967489D01*
X138969405Y-90083201D01*
X138717995Y-90251188D01*
X138504188Y-90464995D01*
X138497491Y-90475017D01*
X138329582Y-90270418D01*
X138078184Y-90064102D01*
X137791367Y-89910795D01*
X137480153Y-89816389D01*
X137156500Y-89784512D01*
X136832848Y-89816389D01*
X136521634Y-89910795D01*
X136234817Y-90064102D01*
X135983419Y-90270418D01*
X135777103Y-90521816D01*
X135623796Y-90808633D01*
X135529390Y-91119847D01*
X135505500Y-91362396D01*
X135505500Y-93133399D01*
X135497512Y-93214500D01*
X135505500Y-93295601D01*
X135505500Y-93295603D01*
X135529389Y-93538152D01*
X135623795Y-93849366D01*
X135777102Y-94136183D01*
X135983418Y-94387582D01*
X136046421Y-94439287D01*
X136760713Y-95153579D01*
X136812418Y-95216582D01*
X137063816Y-95422898D01*
X137254410Y-95524773D01*
X137234188Y-95544995D01*
X137066201Y-95796405D01*
X136950489Y-96075757D01*
X136891500Y-96372316D01*
X136891500Y-96674684D01*
X136950489Y-96971243D01*
X137066201Y-97250595D01*
X137234188Y-97502005D01*
X137331683Y-97599500D01*
X136829735Y-97599500D01*
X133350000Y-94119765D01*
X133350000Y-84939702D01*
X133806903Y-84939702D01*
X133878486Y-85183671D01*
X134133996Y-85304571D01*
X134408184Y-85373300D01*
X134690512Y-85387217D01*
X134970130Y-85345787D01*
X135236292Y-85250603D01*
X135361514Y-85183671D01*
X135414465Y-85003202D01*
X137442903Y-85003202D01*
X137514486Y-85247171D01*
X137769996Y-85368071D01*
X138044184Y-85436800D01*
X138326512Y-85450717D01*
X138606130Y-85409287D01*
X138872292Y-85314103D01*
X138997514Y-85247171D01*
X139069097Y-85003202D01*
X138256000Y-84190105D01*
X137442903Y-85003202D01*
X135414465Y-85003202D01*
X135433097Y-84939702D01*
X134620000Y-84126605D01*
X133806903Y-84939702D01*
X133350000Y-84939702D01*
X133350000Y-84626159D01*
X133383329Y-84688514D01*
X133627298Y-84760097D01*
X134440395Y-83947000D01*
X134799605Y-83947000D01*
X135612702Y-84760097D01*
X135856671Y-84688514D01*
X135977571Y-84433004D01*
X136046300Y-84158816D01*
X136050135Y-84081012D01*
X136815783Y-84081012D01*
X136857213Y-84360630D01*
X136952397Y-84626792D01*
X137019329Y-84752014D01*
X137263298Y-84823597D01*
X138076395Y-84010500D01*
X138435605Y-84010500D01*
X139248702Y-84823597D01*
X139492671Y-84752014D01*
X139613571Y-84496504D01*
X139682300Y-84222316D01*
X139696217Y-83939988D01*
X139654787Y-83660370D01*
X139559603Y-83394208D01*
X139492671Y-83268986D01*
X139248702Y-83197403D01*
X138435605Y-84010500D01*
X138076395Y-84010500D01*
X137263298Y-83197403D01*
X137019329Y-83268986D01*
X136898429Y-83524496D01*
X136829700Y-83798684D01*
X136815783Y-84081012D01*
X136050135Y-84081012D01*
X136060217Y-83876488D01*
X136018787Y-83596870D01*
X135923603Y-83330708D01*
X135856671Y-83205486D01*
X135612702Y-83133903D01*
X134799605Y-83947000D01*
X134440395Y-83947000D01*
X133627298Y-83133903D01*
X133383329Y-83205486D01*
X133350000Y-83275923D01*
X133350000Y-82954298D01*
X133806903Y-82954298D01*
X134620000Y-83767395D01*
X135369597Y-83017798D01*
X137442903Y-83017798D01*
X138256000Y-83830895D01*
X139069097Y-83017798D01*
X138997514Y-82773829D01*
X138742004Y-82652929D01*
X138467816Y-82584200D01*
X138185488Y-82570283D01*
X137905870Y-82611713D01*
X137639708Y-82706897D01*
X137514486Y-82773829D01*
X137442903Y-83017798D01*
X135369597Y-83017798D01*
X135433097Y-82954298D01*
X135361514Y-82710329D01*
X135106004Y-82589429D01*
X134831816Y-82520700D01*
X134549488Y-82506783D01*
X134269870Y-82548213D01*
X134003708Y-82643397D01*
X133878486Y-82710329D01*
X133806903Y-82954298D01*
X133350000Y-82954298D01*
X133350000Y-78781072D01*
X134150000Y-78781072D01*
X134274482Y-78768812D01*
X134394180Y-78732502D01*
X134504494Y-78673537D01*
X134601185Y-78594185D01*
X134680537Y-78497494D01*
X134739502Y-78387180D01*
X134775812Y-78267482D01*
X134788072Y-78143000D01*
X134788072Y-76543000D01*
X134775812Y-76418518D01*
X134739502Y-76298820D01*
X134680537Y-76188506D01*
X134601185Y-76091815D01*
X134504494Y-76012463D01*
X134394180Y-75953498D01*
X134274482Y-75917188D01*
X134239000Y-75913693D01*
X134239000Y-75550665D01*
X136741000Y-75550665D01*
X136741000Y-75833335D01*
X136796147Y-76110574D01*
X136904320Y-76371727D01*
X137061363Y-76606759D01*
X137261241Y-76806637D01*
X137496273Y-76963680D01*
X137757426Y-77071853D01*
X138034665Y-77127000D01*
X138317335Y-77127000D01*
X138594574Y-77071853D01*
X138855727Y-76963680D01*
X139090759Y-76806637D01*
X139290637Y-76606759D01*
X139447680Y-76371727D01*
X139555853Y-76110574D01*
X139611000Y-75833335D01*
X139611000Y-75550665D01*
X139555853Y-75273426D01*
X139447680Y-75012273D01*
X139290637Y-74777241D01*
X139090759Y-74577363D01*
X138855727Y-74420320D01*
X138594574Y-74312147D01*
X138317335Y-74257000D01*
X138034665Y-74257000D01*
X137757426Y-74312147D01*
X137496273Y-74420320D01*
X137261241Y-74577363D01*
X137061363Y-74777241D01*
X136904320Y-75012273D01*
X136796147Y-75273426D01*
X136741000Y-75550665D01*
X134239000Y-75550665D01*
X134239000Y-73774235D01*
X136018570Y-71994665D01*
X136741000Y-71994665D01*
X136741000Y-72277335D01*
X136796147Y-72554574D01*
X136904320Y-72815727D01*
X137061363Y-73050759D01*
X137261241Y-73250637D01*
X137496273Y-73407680D01*
X137757426Y-73515853D01*
X138034665Y-73571000D01*
X138317335Y-73571000D01*
X138594574Y-73515853D01*
X138855727Y-73407680D01*
X139090759Y-73250637D01*
X139290637Y-73050759D01*
X139447680Y-72815727D01*
X139555853Y-72554574D01*
X139611000Y-72277335D01*
X139611000Y-71994665D01*
X139555853Y-71717426D01*
X139447680Y-71456273D01*
X139290637Y-71221241D01*
X139090759Y-71021363D01*
X138855727Y-70864320D01*
X138594574Y-70756147D01*
X138317335Y-70701000D01*
X138034665Y-70701000D01*
X137757426Y-70756147D01*
X137496273Y-70864320D01*
X137261241Y-71021363D01*
X137061363Y-71221241D01*
X136904320Y-71456273D01*
X136796147Y-71717426D01*
X136741000Y-71994665D01*
X136018570Y-71994665D01*
X137845386Y-70167850D01*
X138034665Y-70205500D01*
X138317335Y-70205500D01*
X138594574Y-70150353D01*
X138855727Y-70042180D01*
X139090759Y-69885137D01*
X139290637Y-69685259D01*
X139447680Y-69450227D01*
X139555853Y-69189074D01*
X139611000Y-68911835D01*
X139611000Y-68629165D01*
X139555853Y-68351926D01*
X139447680Y-68090773D01*
X139290637Y-67855741D01*
X139090759Y-67655863D01*
X139065000Y-67638651D01*
X139065000Y-66536849D01*
X139090759Y-66519637D01*
X139290637Y-66319759D01*
X139447680Y-66084727D01*
X139555853Y-65823574D01*
X139611000Y-65546335D01*
X139611000Y-65263665D01*
X139555853Y-64986426D01*
X139447680Y-64725273D01*
X139290637Y-64490241D01*
X139090759Y-64290363D01*
X139065000Y-64273151D01*
X139065000Y-63776225D01*
X140589000Y-62252226D01*
X140589001Y-82913389D01*
G04 #@! TA.AperFunction,Conductor*
D28*
G36*
X140589001Y-82913389D02*
G01*
X140581012Y-82994500D01*
X140600997Y-83197403D01*
X140612890Y-83318153D01*
X140630326Y-83375632D01*
X140707296Y-83629367D01*
X140835471Y-83869165D01*
X140860603Y-83916184D01*
X141066919Y-84167582D01*
X141129916Y-84219282D01*
X142145916Y-85235282D01*
X142334316Y-85389898D01*
X142621132Y-85543204D01*
X142932347Y-85637610D01*
X143256000Y-85669488D01*
X143579652Y-85637610D01*
X143887500Y-85544225D01*
X143887500Y-90191383D01*
X143797995Y-90251188D01*
X143584188Y-90464995D01*
X143506500Y-90581263D01*
X143428812Y-90464995D01*
X143215005Y-90251188D01*
X142963595Y-90083201D01*
X142684243Y-89967489D01*
X142387684Y-89908500D01*
X142085316Y-89908500D01*
X141788757Y-89967489D01*
X141509405Y-90083201D01*
X141257995Y-90251188D01*
X141044188Y-90464995D01*
X140966500Y-90581263D01*
X140888812Y-90464995D01*
X140675005Y-90251188D01*
X140423595Y-90083201D01*
X140144243Y-89967489D01*
X139847684Y-89908500D01*
X139545316Y-89908500D01*
X139248757Y-89967489D01*
X138969405Y-90083201D01*
X138717995Y-90251188D01*
X138504188Y-90464995D01*
X138497491Y-90475017D01*
X138329582Y-90270418D01*
X138078184Y-90064102D01*
X137791367Y-89910795D01*
X137480153Y-89816389D01*
X137156500Y-89784512D01*
X136832848Y-89816389D01*
X136521634Y-89910795D01*
X136234817Y-90064102D01*
X135983419Y-90270418D01*
X135777103Y-90521816D01*
X135623796Y-90808633D01*
X135529390Y-91119847D01*
X135505500Y-91362396D01*
X135505500Y-93133399D01*
X135497512Y-93214500D01*
X135505500Y-93295601D01*
X135505500Y-93295603D01*
X135529389Y-93538152D01*
X135623795Y-93849366D01*
X135777102Y-94136183D01*
X135983418Y-94387582D01*
X136046421Y-94439287D01*
X136760713Y-95153579D01*
X136812418Y-95216582D01*
X137063816Y-95422898D01*
X137254410Y-95524773D01*
X137234188Y-95544995D01*
X137066201Y-95796405D01*
X136950489Y-96075757D01*
X136891500Y-96372316D01*
X136891500Y-96674684D01*
X136950489Y-96971243D01*
X137066201Y-97250595D01*
X137234188Y-97502005D01*
X137331683Y-97599500D01*
X136829735Y-97599500D01*
X133350000Y-94119765D01*
X133350000Y-84939702D01*
X133806903Y-84939702D01*
X133878486Y-85183671D01*
X134133996Y-85304571D01*
X134408184Y-85373300D01*
X134690512Y-85387217D01*
X134970130Y-85345787D01*
X135236292Y-85250603D01*
X135361514Y-85183671D01*
X135414465Y-85003202D01*
X137442903Y-85003202D01*
X137514486Y-85247171D01*
X137769996Y-85368071D01*
X138044184Y-85436800D01*
X138326512Y-85450717D01*
X138606130Y-85409287D01*
X138872292Y-85314103D01*
X138997514Y-85247171D01*
X139069097Y-85003202D01*
X138256000Y-84190105D01*
X137442903Y-85003202D01*
X135414465Y-85003202D01*
X135433097Y-84939702D01*
X134620000Y-84126605D01*
X133806903Y-84939702D01*
X133350000Y-84939702D01*
X133350000Y-84626159D01*
X133383329Y-84688514D01*
X133627298Y-84760097D01*
X134440395Y-83947000D01*
X134799605Y-83947000D01*
X135612702Y-84760097D01*
X135856671Y-84688514D01*
X135977571Y-84433004D01*
X136046300Y-84158816D01*
X136050135Y-84081012D01*
X136815783Y-84081012D01*
X136857213Y-84360630D01*
X136952397Y-84626792D01*
X137019329Y-84752014D01*
X137263298Y-84823597D01*
X138076395Y-84010500D01*
X138435605Y-84010500D01*
X139248702Y-84823597D01*
X139492671Y-84752014D01*
X139613571Y-84496504D01*
X139682300Y-84222316D01*
X139696217Y-83939988D01*
X139654787Y-83660370D01*
X139559603Y-83394208D01*
X139492671Y-83268986D01*
X139248702Y-83197403D01*
X138435605Y-84010500D01*
X138076395Y-84010500D01*
X137263298Y-83197403D01*
X137019329Y-83268986D01*
X136898429Y-83524496D01*
X136829700Y-83798684D01*
X136815783Y-84081012D01*
X136050135Y-84081012D01*
X136060217Y-83876488D01*
X136018787Y-83596870D01*
X135923603Y-83330708D01*
X135856671Y-83205486D01*
X135612702Y-83133903D01*
X134799605Y-83947000D01*
X134440395Y-83947000D01*
X133627298Y-83133903D01*
X133383329Y-83205486D01*
X133350000Y-83275923D01*
X133350000Y-82954298D01*
X133806903Y-82954298D01*
X134620000Y-83767395D01*
X135369597Y-83017798D01*
X137442903Y-83017798D01*
X138256000Y-83830895D01*
X139069097Y-83017798D01*
X138997514Y-82773829D01*
X138742004Y-82652929D01*
X138467816Y-82584200D01*
X138185488Y-82570283D01*
X137905870Y-82611713D01*
X137639708Y-82706897D01*
X137514486Y-82773829D01*
X137442903Y-83017798D01*
X135369597Y-83017798D01*
X135433097Y-82954298D01*
X135361514Y-82710329D01*
X135106004Y-82589429D01*
X134831816Y-82520700D01*
X134549488Y-82506783D01*
X134269870Y-82548213D01*
X134003708Y-82643397D01*
X133878486Y-82710329D01*
X133806903Y-82954298D01*
X133350000Y-82954298D01*
X133350000Y-78781072D01*
X134150000Y-78781072D01*
X134274482Y-78768812D01*
X134394180Y-78732502D01*
X134504494Y-78673537D01*
X134601185Y-78594185D01*
X134680537Y-78497494D01*
X134739502Y-78387180D01*
X134775812Y-78267482D01*
X134788072Y-78143000D01*
X134788072Y-76543000D01*
X134775812Y-76418518D01*
X134739502Y-76298820D01*
X134680537Y-76188506D01*
X134601185Y-76091815D01*
X134504494Y-76012463D01*
X134394180Y-75953498D01*
X134274482Y-75917188D01*
X134239000Y-75913693D01*
X134239000Y-75550665D01*
X136741000Y-75550665D01*
X136741000Y-75833335D01*
X136796147Y-76110574D01*
X136904320Y-76371727D01*
X137061363Y-76606759D01*
X137261241Y-76806637D01*
X137496273Y-76963680D01*
X137757426Y-77071853D01*
X138034665Y-77127000D01*
X138317335Y-77127000D01*
X138594574Y-77071853D01*
X138855727Y-76963680D01*
X139090759Y-76806637D01*
X139290637Y-76606759D01*
X139447680Y-76371727D01*
X139555853Y-76110574D01*
X139611000Y-75833335D01*
X139611000Y-75550665D01*
X139555853Y-75273426D01*
X139447680Y-75012273D01*
X139290637Y-74777241D01*
X139090759Y-74577363D01*
X138855727Y-74420320D01*
X138594574Y-74312147D01*
X138317335Y-74257000D01*
X138034665Y-74257000D01*
X137757426Y-74312147D01*
X137496273Y-74420320D01*
X137261241Y-74577363D01*
X137061363Y-74777241D01*
X136904320Y-75012273D01*
X136796147Y-75273426D01*
X136741000Y-75550665D01*
X134239000Y-75550665D01*
X134239000Y-73774235D01*
X136018570Y-71994665D01*
X136741000Y-71994665D01*
X136741000Y-72277335D01*
X136796147Y-72554574D01*
X136904320Y-72815727D01*
X137061363Y-73050759D01*
X137261241Y-73250637D01*
X137496273Y-73407680D01*
X137757426Y-73515853D01*
X138034665Y-73571000D01*
X138317335Y-73571000D01*
X138594574Y-73515853D01*
X138855727Y-73407680D01*
X139090759Y-73250637D01*
X139290637Y-73050759D01*
X139447680Y-72815727D01*
X139555853Y-72554574D01*
X139611000Y-72277335D01*
X139611000Y-71994665D01*
X139555853Y-71717426D01*
X139447680Y-71456273D01*
X139290637Y-71221241D01*
X139090759Y-71021363D01*
X138855727Y-70864320D01*
X138594574Y-70756147D01*
X138317335Y-70701000D01*
X138034665Y-70701000D01*
X137757426Y-70756147D01*
X137496273Y-70864320D01*
X137261241Y-71021363D01*
X137061363Y-71221241D01*
X136904320Y-71456273D01*
X136796147Y-71717426D01*
X136741000Y-71994665D01*
X136018570Y-71994665D01*
X137845386Y-70167850D01*
X138034665Y-70205500D01*
X138317335Y-70205500D01*
X138594574Y-70150353D01*
X138855727Y-70042180D01*
X139090759Y-69885137D01*
X139290637Y-69685259D01*
X139447680Y-69450227D01*
X139555853Y-69189074D01*
X139611000Y-68911835D01*
X139611000Y-68629165D01*
X139555853Y-68351926D01*
X139447680Y-68090773D01*
X139290637Y-67855741D01*
X139090759Y-67655863D01*
X139065000Y-67638651D01*
X139065000Y-66536849D01*
X139090759Y-66519637D01*
X139290637Y-66319759D01*
X139447680Y-66084727D01*
X139555853Y-65823574D01*
X139611000Y-65546335D01*
X139611000Y-65263665D01*
X139555853Y-64986426D01*
X139447680Y-64725273D01*
X139290637Y-64490241D01*
X139090759Y-64290363D01*
X139065000Y-64273151D01*
X139065000Y-63776225D01*
X140589000Y-62252226D01*
X140589001Y-82913389D01*
G37*
G04 #@! TD.AperFunction*
D27*
X168962213Y-55981079D02*
X168997635Y-56024241D01*
X169008662Y-56040744D01*
X169264256Y-56296338D01*
X169564801Y-56497156D01*
X169799001Y-56594165D01*
X169799000Y-67310000D01*
X163842085Y-67310000D01*
X163896808Y-67158913D01*
X162941000Y-66203105D01*
X161985192Y-67158913D01*
X162039915Y-67310000D01*
X161625100Y-67310000D01*
X161543999Y-67302012D01*
X161462898Y-67310000D01*
X161462896Y-67310000D01*
X161220347Y-67333889D01*
X160909133Y-67428295D01*
X160887304Y-67439963D01*
X160622315Y-67581602D01*
X160475008Y-67702494D01*
X160370918Y-67787918D01*
X160319218Y-67850915D01*
X153956916Y-74213218D01*
X153893919Y-74264918D01*
X153842219Y-74327915D01*
X153842218Y-74327916D01*
X153687602Y-74516317D01*
X153534296Y-74803133D01*
X153439890Y-75114348D01*
X153408012Y-75438000D01*
X153416001Y-75519111D01*
X153416000Y-83438378D01*
X153359890Y-83623348D01*
X153328012Y-83947000D01*
X153359890Y-84270652D01*
X153454296Y-84581867D01*
X153607602Y-84868683D01*
X153762218Y-85057084D01*
X153762222Y-85057088D01*
X153813919Y-85120081D01*
X153876912Y-85171778D01*
X155702001Y-86996868D01*
X155702000Y-89906101D01*
X155222250Y-89908500D01*
X155063500Y-90067250D01*
X155063500Y-91316500D01*
X155083500Y-91316500D01*
X155083500Y-91570500D01*
X155063500Y-91570500D01*
X155063500Y-91590500D01*
X154809500Y-91590500D01*
X154809500Y-91570500D01*
X154789500Y-91570500D01*
X154789500Y-91316500D01*
X154809500Y-91316500D01*
X154809500Y-90067250D01*
X154650750Y-89908500D01*
X154036500Y-89905428D01*
X153912018Y-89917688D01*
X153792320Y-89953998D01*
X153682006Y-90012963D01*
X153585315Y-90092315D01*
X153505963Y-90189006D01*
X153446998Y-90299320D01*
X153441444Y-90317627D01*
X153375005Y-90251188D01*
X153123595Y-90083201D01*
X152844243Y-89967489D01*
X152547684Y-89908500D01*
X152245316Y-89908500D01*
X151948757Y-89967489D01*
X151669405Y-90083201D01*
X151417995Y-90251188D01*
X151204188Y-90464995D01*
X151126500Y-90581263D01*
X151048812Y-90464995D01*
X150835005Y-90251188D01*
X150583595Y-90083201D01*
X150304243Y-89967489D01*
X150007684Y-89908500D01*
X149705316Y-89908500D01*
X149408757Y-89967489D01*
X149129405Y-90083201D01*
X148877995Y-90251188D01*
X148664188Y-90464995D01*
X148586500Y-90581263D01*
X148508812Y-90464995D01*
X148295005Y-90251188D01*
X148043595Y-90083201D01*
X147764243Y-89967489D01*
X147467684Y-89908500D01*
X147165316Y-89908500D01*
X146868757Y-89967489D01*
X146589405Y-90083201D01*
X146337995Y-90251188D01*
X146124188Y-90464995D01*
X146046500Y-90581263D01*
X145968812Y-90464995D01*
X145755005Y-90251188D01*
X145665500Y-90191383D01*
X145665500Y-84939702D01*
X149173903Y-84939702D01*
X149245486Y-85183671D01*
X149500996Y-85304571D01*
X149775184Y-85373300D01*
X150057512Y-85387217D01*
X150337130Y-85345787D01*
X150603292Y-85250603D01*
X150728514Y-85183671D01*
X150800097Y-84939702D01*
X149987000Y-84126605D01*
X149173903Y-84939702D01*
X145665500Y-84939702D01*
X145665500Y-84017512D01*
X148546783Y-84017512D01*
X148588213Y-84297130D01*
X148683397Y-84563292D01*
X148750329Y-84688514D01*
X148994298Y-84760097D01*
X149807395Y-83947000D01*
X150166605Y-83947000D01*
X150979702Y-84760097D01*
X151223671Y-84688514D01*
X151344571Y-84433004D01*
X151413300Y-84158816D01*
X151427217Y-83876488D01*
X151385787Y-83596870D01*
X151290603Y-83330708D01*
X151223671Y-83205486D01*
X150979702Y-83133903D01*
X150166605Y-83947000D01*
X149807395Y-83947000D01*
X148994298Y-83133903D01*
X148750329Y-83205486D01*
X148629429Y-83460996D01*
X148560700Y-83735184D01*
X148546783Y-84017512D01*
X145665500Y-84017512D01*
X145665500Y-82954298D01*
X149173903Y-82954298D01*
X149987000Y-83767395D01*
X150800097Y-82954298D01*
X150728514Y-82710329D01*
X150473004Y-82589429D01*
X150198816Y-82520700D01*
X149916488Y-82506783D01*
X149636870Y-82548213D01*
X149370708Y-82643397D01*
X149245486Y-82710329D01*
X149173903Y-82954298D01*
X145665500Y-82954298D01*
X145665500Y-73650735D01*
X146923879Y-72392356D01*
X146956147Y-72554574D01*
X147064320Y-72815727D01*
X147221363Y-73050759D01*
X147421241Y-73250637D01*
X147447000Y-73267849D01*
X147447001Y-74560151D01*
X147421241Y-74577363D01*
X147221363Y-74777241D01*
X147064320Y-75012273D01*
X146956147Y-75273426D01*
X146901000Y-75550665D01*
X146901000Y-75833335D01*
X146956147Y-76110574D01*
X147064320Y-76371727D01*
X147221363Y-76606759D01*
X147421241Y-76806637D01*
X147656273Y-76963680D01*
X147917426Y-77071853D01*
X148194665Y-77127000D01*
X148477335Y-77127000D01*
X148754574Y-77071853D01*
X149015727Y-76963680D01*
X149250759Y-76806637D01*
X149450637Y-76606759D01*
X149607680Y-76371727D01*
X149715853Y-76110574D01*
X149771000Y-75833335D01*
X149771000Y-75550665D01*
X149715853Y-75273426D01*
X149607680Y-75012273D01*
X149450637Y-74777241D01*
X149250759Y-74577363D01*
X149225000Y-74560151D01*
X149225000Y-73267849D01*
X149250759Y-73250637D01*
X149450637Y-73050759D01*
X149607680Y-72815727D01*
X149715853Y-72554574D01*
X149771000Y-72277335D01*
X149771000Y-71994665D01*
X149715853Y-71717426D01*
X149607680Y-71456273D01*
X149450637Y-71221241D01*
X149250759Y-71021363D01*
X149015727Y-70864320D01*
X148754574Y-70756147D01*
X148592356Y-70723879D01*
X150457743Y-68858493D01*
X150491659Y-68830659D01*
X150602753Y-68695291D01*
X150685303Y-68540851D01*
X150736136Y-68373274D01*
X150749000Y-68242667D01*
X150749000Y-68242660D01*
X150753300Y-68199000D01*
X150749000Y-68155340D01*
X150749000Y-66086095D01*
X161299282Y-66086095D01*
X161343039Y-66405175D01*
X161448205Y-66709588D01*
X161541186Y-66883544D01*
X161805587Y-66979308D01*
X162761395Y-66023500D01*
X163120605Y-66023500D01*
X164076413Y-66979308D01*
X164340814Y-66883544D01*
X164481704Y-66593929D01*
X164563384Y-66282392D01*
X164582718Y-65960905D01*
X164538961Y-65641825D01*
X164433795Y-65337412D01*
X164340814Y-65163456D01*
X164076413Y-65067692D01*
X163120605Y-66023500D01*
X162761395Y-66023500D01*
X161805587Y-65067692D01*
X161541186Y-65163456D01*
X161400296Y-65453071D01*
X161318616Y-65764608D01*
X161299282Y-66086095D01*
X150749000Y-66086095D01*
X150749000Y-64888087D01*
X161985192Y-64888087D01*
X162941000Y-65843895D01*
X163896808Y-64888087D01*
X163801044Y-64623686D01*
X163511429Y-64482796D01*
X163199892Y-64401116D01*
X162878405Y-64381782D01*
X162559325Y-64425539D01*
X162254912Y-64530705D01*
X162080956Y-64623686D01*
X161985192Y-64888087D01*
X150749000Y-64888087D01*
X150749000Y-64159468D01*
X150777205Y-64117256D01*
X150855226Y-63928898D01*
X150895000Y-63728939D01*
X150895000Y-63525061D01*
X150877384Y-63436500D01*
X156610840Y-63436500D01*
X156654500Y-63440800D01*
X156698160Y-63436500D01*
X156698167Y-63436500D01*
X156828774Y-63423636D01*
X156996351Y-63372803D01*
X157150791Y-63290253D01*
X157286159Y-63179159D01*
X157313999Y-63145236D01*
X158585743Y-61873493D01*
X158619659Y-61845659D01*
X158652495Y-61805649D01*
X158730752Y-61710292D01*
X158730754Y-61710290D01*
X158813303Y-61555851D01*
X158854305Y-61420683D01*
X158864136Y-61388275D01*
X158870644Y-61322198D01*
X158877000Y-61257667D01*
X158877000Y-61257660D01*
X158881300Y-61214000D01*
X158877000Y-61170340D01*
X158877000Y-55228311D01*
X158905363Y-55270759D01*
X159105241Y-55470637D01*
X159127996Y-55485841D01*
X159126700Y-55499000D01*
X159131000Y-55542660D01*
X159131000Y-55542666D01*
X159143864Y-55673273D01*
X159194697Y-55840850D01*
X159277247Y-55995290D01*
X159388341Y-56130659D01*
X159422264Y-56158499D01*
X162052001Y-58788237D01*
X162052001Y-59385428D01*
X161941000Y-59385428D01*
X161816518Y-59397688D01*
X161696820Y-59433998D01*
X161586506Y-59492963D01*
X161489815Y-59572315D01*
X161410463Y-59669006D01*
X161351498Y-59779320D01*
X161315188Y-59899018D01*
X161302928Y-60023500D01*
X161302928Y-62023500D01*
X161315188Y-62147982D01*
X161351498Y-62267680D01*
X161410463Y-62377994D01*
X161489815Y-62474685D01*
X161586506Y-62554037D01*
X161696820Y-62613002D01*
X161816518Y-62649312D01*
X161941000Y-62661572D01*
X163941000Y-62661572D01*
X164065482Y-62649312D01*
X164185180Y-62613002D01*
X164295494Y-62554037D01*
X164392185Y-62474685D01*
X164471537Y-62377994D01*
X164530502Y-62267680D01*
X164566812Y-62147982D01*
X164579072Y-62023500D01*
X164579072Y-60023500D01*
X164566812Y-59899018D01*
X164530502Y-59779320D01*
X164471537Y-59669006D01*
X164392185Y-59572315D01*
X164295494Y-59492963D01*
X164185180Y-59433998D01*
X164065482Y-59397688D01*
X163941000Y-59385428D01*
X163830000Y-59385428D01*
X163830000Y-58463660D01*
X163834300Y-58420000D01*
X163830000Y-58376340D01*
X163830000Y-58376333D01*
X163817136Y-58245726D01*
X163813171Y-58232653D01*
X163785650Y-58141929D01*
X163766303Y-58078149D01*
X163683753Y-57923709D01*
X163572659Y-57788341D01*
X163538742Y-57760506D01*
X161091816Y-55313580D01*
X161134637Y-55270759D01*
X161291680Y-55035727D01*
X161399853Y-54774574D01*
X161455000Y-54497335D01*
X161455000Y-54214665D01*
X161399853Y-53937426D01*
X161291680Y-53676273D01*
X161134637Y-53441241D01*
X160934759Y-53241363D01*
X160699727Y-53084320D01*
X160438574Y-52976147D01*
X160161335Y-52921000D01*
X159878665Y-52921000D01*
X159601426Y-52976147D01*
X159340273Y-53084320D01*
X159105241Y-53241363D01*
X158905363Y-53441241D01*
X158877000Y-53483689D01*
X158877000Y-53110468D01*
X158905205Y-53068256D01*
X158983226Y-52879898D01*
X159023000Y-52679939D01*
X159023000Y-52476061D01*
X158983226Y-52276102D01*
X158905205Y-52087744D01*
X158791937Y-51918226D01*
X158647774Y-51774063D01*
X158478256Y-51660795D01*
X158289898Y-51582774D01*
X158089939Y-51543000D01*
X157886061Y-51543000D01*
X157686102Y-51582774D01*
X157497744Y-51660795D01*
X157328226Y-51774063D01*
X157184063Y-51918226D01*
X157070795Y-52087744D01*
X156992774Y-52276102D01*
X156953000Y-52476061D01*
X156953000Y-52679939D01*
X156992774Y-52879898D01*
X157070795Y-53068256D01*
X157099001Y-53110469D01*
X157099000Y-60845764D01*
X156286265Y-61658500D01*
X150285657Y-61658500D01*
X150176922Y-61549765D01*
X150149082Y-61515842D01*
X150013714Y-61404748D01*
X149859274Y-61322198D01*
X149691697Y-61271365D01*
X149561090Y-61258501D01*
X149561083Y-61258501D01*
X149517423Y-61254201D01*
X149473763Y-61258501D01*
X149287658Y-61258501D01*
X149243998Y-61254201D01*
X149200338Y-61258501D01*
X149200332Y-61258501D01*
X149088072Y-61269558D01*
X149069724Y-61271365D01*
X149016768Y-61287429D01*
X148902148Y-61322198D01*
X148747708Y-61404748D01*
X148612340Y-61515842D01*
X148590311Y-61542685D01*
X148542102Y-61552274D01*
X148353744Y-61630295D01*
X148184226Y-61743563D01*
X148040063Y-61887726D01*
X147926795Y-62057244D01*
X147848774Y-62245602D01*
X147809000Y-62445561D01*
X147809000Y-62649439D01*
X147848774Y-62849398D01*
X147926795Y-63037756D01*
X148040063Y-63207274D01*
X148184226Y-63351437D01*
X148353744Y-63464705D01*
X148542102Y-63542726D01*
X148742061Y-63582500D01*
X148825000Y-63582500D01*
X148825000Y-63728939D01*
X148864774Y-63928898D01*
X148935722Y-64100181D01*
X148754574Y-64025147D01*
X148477335Y-63970000D01*
X148194665Y-63970000D01*
X147917426Y-64025147D01*
X147656273Y-64133320D01*
X147421241Y-64290363D01*
X147221363Y-64490241D01*
X147064320Y-64725273D01*
X146956147Y-64986426D01*
X146901000Y-65263665D01*
X146901000Y-65546335D01*
X146956147Y-65823574D01*
X147064320Y-66084727D01*
X147153928Y-66218836D01*
X146040337Y-67332428D01*
X144996000Y-67332428D01*
X144871518Y-67344688D01*
X144751820Y-67380998D01*
X144641506Y-67439963D01*
X144544815Y-67519315D01*
X144465463Y-67616006D01*
X144406498Y-67726320D01*
X144370188Y-67846018D01*
X144357928Y-67970500D01*
X144357928Y-68564697D01*
X144348364Y-68596226D01*
X144331199Y-68770500D01*
X144348364Y-68944774D01*
X144357928Y-68976303D01*
X144357928Y-69570500D01*
X144370188Y-69694982D01*
X144406498Y-69814680D01*
X144465463Y-69924994D01*
X144544815Y-70021685D01*
X144641506Y-70101037D01*
X144751820Y-70160002D01*
X144871518Y-70196312D01*
X144996000Y-70208572D01*
X146593193Y-70208572D01*
X144178759Y-72623006D01*
X144144842Y-72650841D01*
X144117007Y-72684758D01*
X144117005Y-72684760D01*
X144033748Y-72786209D01*
X143951198Y-72940648D01*
X143900364Y-73108226D01*
X143891000Y-73203303D01*
X143891000Y-61182866D01*
X144145000Y-60928866D01*
X144145001Y-62205531D01*
X144116795Y-62247744D01*
X144038774Y-62436102D01*
X143999000Y-62636061D01*
X143999000Y-62839939D01*
X144038774Y-63039898D01*
X144116795Y-63228256D01*
X144230063Y-63397774D01*
X144374226Y-63541937D01*
X144543744Y-63655205D01*
X144732102Y-63733226D01*
X144932061Y-63773000D01*
X145135939Y-63773000D01*
X145335898Y-63733226D01*
X145524256Y-63655205D01*
X145693774Y-63541937D01*
X145837937Y-63397774D01*
X145951205Y-63228256D01*
X146029226Y-63039898D01*
X146069000Y-62839939D01*
X146069000Y-62636061D01*
X146029226Y-62436102D01*
X145951205Y-62247744D01*
X145923000Y-62205532D01*
X145923000Y-61074235D01*
X146568533Y-60428702D01*
X149126903Y-60428702D01*
X149198486Y-60672671D01*
X149453996Y-60793571D01*
X149728184Y-60862300D01*
X150010512Y-60876217D01*
X150290130Y-60834787D01*
X150556292Y-60739603D01*
X150681514Y-60672671D01*
X150753097Y-60428702D01*
X149940000Y-59615605D01*
X149126903Y-60428702D01*
X146568533Y-60428702D01*
X147490723Y-59506512D01*
X148499783Y-59506512D01*
X148541213Y-59786130D01*
X148636397Y-60052292D01*
X148703329Y-60177514D01*
X148947298Y-60249097D01*
X149760395Y-59436000D01*
X150119605Y-59436000D01*
X150932702Y-60249097D01*
X151176671Y-60177514D01*
X151297571Y-59922004D01*
X151366300Y-59647816D01*
X151380217Y-59365488D01*
X151338787Y-59085870D01*
X151243603Y-58819708D01*
X151176671Y-58694486D01*
X150932702Y-58622903D01*
X150119605Y-59436000D01*
X149760395Y-59436000D01*
X148947298Y-58622903D01*
X148703329Y-58694486D01*
X148582429Y-58949996D01*
X148513700Y-59224184D01*
X148499783Y-59506512D01*
X147490723Y-59506512D01*
X147967742Y-59029494D01*
X148001659Y-59001659D01*
X148112753Y-58866291D01*
X148195303Y-58711851D01*
X148246136Y-58544274D01*
X148256081Y-58443298D01*
X149126903Y-58443298D01*
X149940000Y-59256395D01*
X150753097Y-58443298D01*
X150681514Y-58199329D01*
X150426004Y-58078429D01*
X150151816Y-58009700D01*
X149869488Y-57995783D01*
X149589870Y-58037213D01*
X149323708Y-58132397D01*
X149198486Y-58199329D01*
X149126903Y-58443298D01*
X148256081Y-58443298D01*
X148259000Y-58413667D01*
X148259000Y-58413660D01*
X148263300Y-58370000D01*
X148259000Y-58326340D01*
X148259000Y-54252117D01*
X148348505Y-54192312D01*
X148562312Y-53978505D01*
X148640000Y-53862237D01*
X148717688Y-53978505D01*
X148931495Y-54192312D01*
X149182905Y-54360299D01*
X149462257Y-54476011D01*
X149758816Y-54535000D01*
X150061184Y-54535000D01*
X150357743Y-54476011D01*
X150637095Y-54360299D01*
X150888505Y-54192312D01*
X151102312Y-53978505D01*
X151180000Y-53862237D01*
X151257688Y-53978505D01*
X151471495Y-54192312D01*
X151722905Y-54360299D01*
X152002257Y-54476011D01*
X152298816Y-54535000D01*
X152601184Y-54535000D01*
X152897743Y-54476011D01*
X153177095Y-54360299D01*
X153339000Y-54252117D01*
X153339001Y-59026272D01*
X153312890Y-59112348D01*
X153281012Y-59436000D01*
X153312890Y-59759652D01*
X153407296Y-60070867D01*
X153560602Y-60357683D01*
X153766919Y-60609081D01*
X154018317Y-60815398D01*
X154305133Y-60968704D01*
X154616348Y-61063110D01*
X154940000Y-61094988D01*
X155263652Y-61063110D01*
X155574867Y-60968704D01*
X155861683Y-60815398D01*
X156050084Y-60660782D01*
X156100077Y-60610788D01*
X156163082Y-60559082D01*
X156369398Y-60307684D01*
X156522705Y-60020867D01*
X156617111Y-59709653D01*
X156641000Y-59467104D01*
X156641000Y-59467101D01*
X156648988Y-59386000D01*
X156641000Y-59304899D01*
X156641000Y-51455184D01*
X156880185Y-51215999D01*
X164197133Y-51215999D01*
X168962213Y-55981079D01*
G04 #@! TA.AperFunction,Conductor*
D28*
G36*
X168962213Y-55981079D02*
G01*
X168997635Y-56024241D01*
X169008662Y-56040744D01*
X169264256Y-56296338D01*
X169564801Y-56497156D01*
X169799001Y-56594165D01*
X169799000Y-67310000D01*
X163842085Y-67310000D01*
X163896808Y-67158913D01*
X162941000Y-66203105D01*
X161985192Y-67158913D01*
X162039915Y-67310000D01*
X161625100Y-67310000D01*
X161543999Y-67302012D01*
X161462898Y-67310000D01*
X161462896Y-67310000D01*
X161220347Y-67333889D01*
X160909133Y-67428295D01*
X160887304Y-67439963D01*
X160622315Y-67581602D01*
X160475008Y-67702494D01*
X160370918Y-67787918D01*
X160319218Y-67850915D01*
X153956916Y-74213218D01*
X153893919Y-74264918D01*
X153842219Y-74327915D01*
X153842218Y-74327916D01*
X153687602Y-74516317D01*
X153534296Y-74803133D01*
X153439890Y-75114348D01*
X153408012Y-75438000D01*
X153416001Y-75519111D01*
X153416000Y-83438378D01*
X153359890Y-83623348D01*
X153328012Y-83947000D01*
X153359890Y-84270652D01*
X153454296Y-84581867D01*
X153607602Y-84868683D01*
X153762218Y-85057084D01*
X153762222Y-85057088D01*
X153813919Y-85120081D01*
X153876912Y-85171778D01*
X155702001Y-86996868D01*
X155702000Y-89906101D01*
X155222250Y-89908500D01*
X155063500Y-90067250D01*
X155063500Y-91316500D01*
X155083500Y-91316500D01*
X155083500Y-91570500D01*
X155063500Y-91570500D01*
X155063500Y-91590500D01*
X154809500Y-91590500D01*
X154809500Y-91570500D01*
X154789500Y-91570500D01*
X154789500Y-91316500D01*
X154809500Y-91316500D01*
X154809500Y-90067250D01*
X154650750Y-89908500D01*
X154036500Y-89905428D01*
X153912018Y-89917688D01*
X153792320Y-89953998D01*
X153682006Y-90012963D01*
X153585315Y-90092315D01*
X153505963Y-90189006D01*
X153446998Y-90299320D01*
X153441444Y-90317627D01*
X153375005Y-90251188D01*
X153123595Y-90083201D01*
X152844243Y-89967489D01*
X152547684Y-89908500D01*
X152245316Y-89908500D01*
X151948757Y-89967489D01*
X151669405Y-90083201D01*
X151417995Y-90251188D01*
X151204188Y-90464995D01*
X151126500Y-90581263D01*
X151048812Y-90464995D01*
X150835005Y-90251188D01*
X150583595Y-90083201D01*
X150304243Y-89967489D01*
X150007684Y-89908500D01*
X149705316Y-89908500D01*
X149408757Y-89967489D01*
X149129405Y-90083201D01*
X148877995Y-90251188D01*
X148664188Y-90464995D01*
X148586500Y-90581263D01*
X148508812Y-90464995D01*
X148295005Y-90251188D01*
X148043595Y-90083201D01*
X147764243Y-89967489D01*
X147467684Y-89908500D01*
X147165316Y-89908500D01*
X146868757Y-89967489D01*
X146589405Y-90083201D01*
X146337995Y-90251188D01*
X146124188Y-90464995D01*
X146046500Y-90581263D01*
X145968812Y-90464995D01*
X145755005Y-90251188D01*
X145665500Y-90191383D01*
X145665500Y-84939702D01*
X149173903Y-84939702D01*
X149245486Y-85183671D01*
X149500996Y-85304571D01*
X149775184Y-85373300D01*
X150057512Y-85387217D01*
X150337130Y-85345787D01*
X150603292Y-85250603D01*
X150728514Y-85183671D01*
X150800097Y-84939702D01*
X149987000Y-84126605D01*
X149173903Y-84939702D01*
X145665500Y-84939702D01*
X145665500Y-84017512D01*
X148546783Y-84017512D01*
X148588213Y-84297130D01*
X148683397Y-84563292D01*
X148750329Y-84688514D01*
X148994298Y-84760097D01*
X149807395Y-83947000D01*
X150166605Y-83947000D01*
X150979702Y-84760097D01*
X151223671Y-84688514D01*
X151344571Y-84433004D01*
X151413300Y-84158816D01*
X151427217Y-83876488D01*
X151385787Y-83596870D01*
X151290603Y-83330708D01*
X151223671Y-83205486D01*
X150979702Y-83133903D01*
X150166605Y-83947000D01*
X149807395Y-83947000D01*
X148994298Y-83133903D01*
X148750329Y-83205486D01*
X148629429Y-83460996D01*
X148560700Y-83735184D01*
X148546783Y-84017512D01*
X145665500Y-84017512D01*
X145665500Y-82954298D01*
X149173903Y-82954298D01*
X149987000Y-83767395D01*
X150800097Y-82954298D01*
X150728514Y-82710329D01*
X150473004Y-82589429D01*
X150198816Y-82520700D01*
X149916488Y-82506783D01*
X149636870Y-82548213D01*
X149370708Y-82643397D01*
X149245486Y-82710329D01*
X149173903Y-82954298D01*
X145665500Y-82954298D01*
X145665500Y-73650735D01*
X146923879Y-72392356D01*
X146956147Y-72554574D01*
X147064320Y-72815727D01*
X147221363Y-73050759D01*
X147421241Y-73250637D01*
X147447000Y-73267849D01*
X147447001Y-74560151D01*
X147421241Y-74577363D01*
X147221363Y-74777241D01*
X147064320Y-75012273D01*
X146956147Y-75273426D01*
X146901000Y-75550665D01*
X146901000Y-75833335D01*
X146956147Y-76110574D01*
X147064320Y-76371727D01*
X147221363Y-76606759D01*
X147421241Y-76806637D01*
X147656273Y-76963680D01*
X147917426Y-77071853D01*
X148194665Y-77127000D01*
X148477335Y-77127000D01*
X148754574Y-77071853D01*
X149015727Y-76963680D01*
X149250759Y-76806637D01*
X149450637Y-76606759D01*
X149607680Y-76371727D01*
X149715853Y-76110574D01*
X149771000Y-75833335D01*
X149771000Y-75550665D01*
X149715853Y-75273426D01*
X149607680Y-75012273D01*
X149450637Y-74777241D01*
X149250759Y-74577363D01*
X149225000Y-74560151D01*
X149225000Y-73267849D01*
X149250759Y-73250637D01*
X149450637Y-73050759D01*
X149607680Y-72815727D01*
X149715853Y-72554574D01*
X149771000Y-72277335D01*
X149771000Y-71994665D01*
X149715853Y-71717426D01*
X149607680Y-71456273D01*
X149450637Y-71221241D01*
X149250759Y-71021363D01*
X149015727Y-70864320D01*
X148754574Y-70756147D01*
X148592356Y-70723879D01*
X150457743Y-68858493D01*
X150491659Y-68830659D01*
X150602753Y-68695291D01*
X150685303Y-68540851D01*
X150736136Y-68373274D01*
X150749000Y-68242667D01*
X150749000Y-68242660D01*
X150753300Y-68199000D01*
X150749000Y-68155340D01*
X150749000Y-66086095D01*
X161299282Y-66086095D01*
X161343039Y-66405175D01*
X161448205Y-66709588D01*
X161541186Y-66883544D01*
X161805587Y-66979308D01*
X162761395Y-66023500D01*
X163120605Y-66023500D01*
X164076413Y-66979308D01*
X164340814Y-66883544D01*
X164481704Y-66593929D01*
X164563384Y-66282392D01*
X164582718Y-65960905D01*
X164538961Y-65641825D01*
X164433795Y-65337412D01*
X164340814Y-65163456D01*
X164076413Y-65067692D01*
X163120605Y-66023500D01*
X162761395Y-66023500D01*
X161805587Y-65067692D01*
X161541186Y-65163456D01*
X161400296Y-65453071D01*
X161318616Y-65764608D01*
X161299282Y-66086095D01*
X150749000Y-66086095D01*
X150749000Y-64888087D01*
X161985192Y-64888087D01*
X162941000Y-65843895D01*
X163896808Y-64888087D01*
X163801044Y-64623686D01*
X163511429Y-64482796D01*
X163199892Y-64401116D01*
X162878405Y-64381782D01*
X162559325Y-64425539D01*
X162254912Y-64530705D01*
X162080956Y-64623686D01*
X161985192Y-64888087D01*
X150749000Y-64888087D01*
X150749000Y-64159468D01*
X150777205Y-64117256D01*
X150855226Y-63928898D01*
X150895000Y-63728939D01*
X150895000Y-63525061D01*
X150877384Y-63436500D01*
X156610840Y-63436500D01*
X156654500Y-63440800D01*
X156698160Y-63436500D01*
X156698167Y-63436500D01*
X156828774Y-63423636D01*
X156996351Y-63372803D01*
X157150791Y-63290253D01*
X157286159Y-63179159D01*
X157313999Y-63145236D01*
X158585743Y-61873493D01*
X158619659Y-61845659D01*
X158652495Y-61805649D01*
X158730752Y-61710292D01*
X158730754Y-61710290D01*
X158813303Y-61555851D01*
X158854305Y-61420683D01*
X158864136Y-61388275D01*
X158870644Y-61322198D01*
X158877000Y-61257667D01*
X158877000Y-61257660D01*
X158881300Y-61214000D01*
X158877000Y-61170340D01*
X158877000Y-55228311D01*
X158905363Y-55270759D01*
X159105241Y-55470637D01*
X159127996Y-55485841D01*
X159126700Y-55499000D01*
X159131000Y-55542660D01*
X159131000Y-55542666D01*
X159143864Y-55673273D01*
X159194697Y-55840850D01*
X159277247Y-55995290D01*
X159388341Y-56130659D01*
X159422264Y-56158499D01*
X162052001Y-58788237D01*
X162052001Y-59385428D01*
X161941000Y-59385428D01*
X161816518Y-59397688D01*
X161696820Y-59433998D01*
X161586506Y-59492963D01*
X161489815Y-59572315D01*
X161410463Y-59669006D01*
X161351498Y-59779320D01*
X161315188Y-59899018D01*
X161302928Y-60023500D01*
X161302928Y-62023500D01*
X161315188Y-62147982D01*
X161351498Y-62267680D01*
X161410463Y-62377994D01*
X161489815Y-62474685D01*
X161586506Y-62554037D01*
X161696820Y-62613002D01*
X161816518Y-62649312D01*
X161941000Y-62661572D01*
X163941000Y-62661572D01*
X164065482Y-62649312D01*
X164185180Y-62613002D01*
X164295494Y-62554037D01*
X164392185Y-62474685D01*
X164471537Y-62377994D01*
X164530502Y-62267680D01*
X164566812Y-62147982D01*
X164579072Y-62023500D01*
X164579072Y-60023500D01*
X164566812Y-59899018D01*
X164530502Y-59779320D01*
X164471537Y-59669006D01*
X164392185Y-59572315D01*
X164295494Y-59492963D01*
X164185180Y-59433998D01*
X164065482Y-59397688D01*
X163941000Y-59385428D01*
X163830000Y-59385428D01*
X163830000Y-58463660D01*
X163834300Y-58420000D01*
X163830000Y-58376340D01*
X163830000Y-58376333D01*
X163817136Y-58245726D01*
X163813171Y-58232653D01*
X163785650Y-58141929D01*
X163766303Y-58078149D01*
X163683753Y-57923709D01*
X163572659Y-57788341D01*
X163538742Y-57760506D01*
X161091816Y-55313580D01*
X161134637Y-55270759D01*
X161291680Y-55035727D01*
X161399853Y-54774574D01*
X161455000Y-54497335D01*
X161455000Y-54214665D01*
X161399853Y-53937426D01*
X161291680Y-53676273D01*
X161134637Y-53441241D01*
X160934759Y-53241363D01*
X160699727Y-53084320D01*
X160438574Y-52976147D01*
X160161335Y-52921000D01*
X159878665Y-52921000D01*
X159601426Y-52976147D01*
X159340273Y-53084320D01*
X159105241Y-53241363D01*
X158905363Y-53441241D01*
X158877000Y-53483689D01*
X158877000Y-53110468D01*
X158905205Y-53068256D01*
X158983226Y-52879898D01*
X159023000Y-52679939D01*
X159023000Y-52476061D01*
X158983226Y-52276102D01*
X158905205Y-52087744D01*
X158791937Y-51918226D01*
X158647774Y-51774063D01*
X158478256Y-51660795D01*
X158289898Y-51582774D01*
X158089939Y-51543000D01*
X157886061Y-51543000D01*
X157686102Y-51582774D01*
X157497744Y-51660795D01*
X157328226Y-51774063D01*
X157184063Y-51918226D01*
X157070795Y-52087744D01*
X156992774Y-52276102D01*
X156953000Y-52476061D01*
X156953000Y-52679939D01*
X156992774Y-52879898D01*
X157070795Y-53068256D01*
X157099001Y-53110469D01*
X157099000Y-60845764D01*
X156286265Y-61658500D01*
X150285657Y-61658500D01*
X150176922Y-61549765D01*
X150149082Y-61515842D01*
X150013714Y-61404748D01*
X149859274Y-61322198D01*
X149691697Y-61271365D01*
X149561090Y-61258501D01*
X149561083Y-61258501D01*
X149517423Y-61254201D01*
X149473763Y-61258501D01*
X149287658Y-61258501D01*
X149243998Y-61254201D01*
X149200338Y-61258501D01*
X149200332Y-61258501D01*
X149088072Y-61269558D01*
X149069724Y-61271365D01*
X149016768Y-61287429D01*
X148902148Y-61322198D01*
X148747708Y-61404748D01*
X148612340Y-61515842D01*
X148590311Y-61542685D01*
X148542102Y-61552274D01*
X148353744Y-61630295D01*
X148184226Y-61743563D01*
X148040063Y-61887726D01*
X147926795Y-62057244D01*
X147848774Y-62245602D01*
X147809000Y-62445561D01*
X147809000Y-62649439D01*
X147848774Y-62849398D01*
X147926795Y-63037756D01*
X148040063Y-63207274D01*
X148184226Y-63351437D01*
X148353744Y-63464705D01*
X148542102Y-63542726D01*
X148742061Y-63582500D01*
X148825000Y-63582500D01*
X148825000Y-63728939D01*
X148864774Y-63928898D01*
X148935722Y-64100181D01*
X148754574Y-64025147D01*
X148477335Y-63970000D01*
X148194665Y-63970000D01*
X147917426Y-64025147D01*
X147656273Y-64133320D01*
X147421241Y-64290363D01*
X147221363Y-64490241D01*
X147064320Y-64725273D01*
X146956147Y-64986426D01*
X146901000Y-65263665D01*
X146901000Y-65546335D01*
X146956147Y-65823574D01*
X147064320Y-66084727D01*
X147153928Y-66218836D01*
X146040337Y-67332428D01*
X144996000Y-67332428D01*
X144871518Y-67344688D01*
X144751820Y-67380998D01*
X144641506Y-67439963D01*
X144544815Y-67519315D01*
X144465463Y-67616006D01*
X144406498Y-67726320D01*
X144370188Y-67846018D01*
X144357928Y-67970500D01*
X144357928Y-68564697D01*
X144348364Y-68596226D01*
X144331199Y-68770500D01*
X144348364Y-68944774D01*
X144357928Y-68976303D01*
X144357928Y-69570500D01*
X144370188Y-69694982D01*
X144406498Y-69814680D01*
X144465463Y-69924994D01*
X144544815Y-70021685D01*
X144641506Y-70101037D01*
X144751820Y-70160002D01*
X144871518Y-70196312D01*
X144996000Y-70208572D01*
X146593193Y-70208572D01*
X144178759Y-72623006D01*
X144144842Y-72650841D01*
X144117007Y-72684758D01*
X144117005Y-72684760D01*
X144033748Y-72786209D01*
X143951198Y-72940648D01*
X143900364Y-73108226D01*
X143891000Y-73203303D01*
X143891000Y-61182866D01*
X144145000Y-60928866D01*
X144145001Y-62205531D01*
X144116795Y-62247744D01*
X144038774Y-62436102D01*
X143999000Y-62636061D01*
X143999000Y-62839939D01*
X144038774Y-63039898D01*
X144116795Y-63228256D01*
X144230063Y-63397774D01*
X144374226Y-63541937D01*
X144543744Y-63655205D01*
X144732102Y-63733226D01*
X144932061Y-63773000D01*
X145135939Y-63773000D01*
X145335898Y-63733226D01*
X145524256Y-63655205D01*
X145693774Y-63541937D01*
X145837937Y-63397774D01*
X145951205Y-63228256D01*
X146029226Y-63039898D01*
X146069000Y-62839939D01*
X146069000Y-62636061D01*
X146029226Y-62436102D01*
X145951205Y-62247744D01*
X145923000Y-62205532D01*
X145923000Y-61074235D01*
X146568533Y-60428702D01*
X149126903Y-60428702D01*
X149198486Y-60672671D01*
X149453996Y-60793571D01*
X149728184Y-60862300D01*
X150010512Y-60876217D01*
X150290130Y-60834787D01*
X150556292Y-60739603D01*
X150681514Y-60672671D01*
X150753097Y-60428702D01*
X149940000Y-59615605D01*
X149126903Y-60428702D01*
X146568533Y-60428702D01*
X147490723Y-59506512D01*
X148499783Y-59506512D01*
X148541213Y-59786130D01*
X148636397Y-60052292D01*
X148703329Y-60177514D01*
X148947298Y-60249097D01*
X149760395Y-59436000D01*
X150119605Y-59436000D01*
X150932702Y-60249097D01*
X151176671Y-60177514D01*
X151297571Y-59922004D01*
X151366300Y-59647816D01*
X151380217Y-59365488D01*
X151338787Y-59085870D01*
X151243603Y-58819708D01*
X151176671Y-58694486D01*
X150932702Y-58622903D01*
X150119605Y-59436000D01*
X149760395Y-59436000D01*
X148947298Y-58622903D01*
X148703329Y-58694486D01*
X148582429Y-58949996D01*
X148513700Y-59224184D01*
X148499783Y-59506512D01*
X147490723Y-59506512D01*
X147967742Y-59029494D01*
X148001659Y-59001659D01*
X148112753Y-58866291D01*
X148195303Y-58711851D01*
X148246136Y-58544274D01*
X148256081Y-58443298D01*
X149126903Y-58443298D01*
X149940000Y-59256395D01*
X150753097Y-58443298D01*
X150681514Y-58199329D01*
X150426004Y-58078429D01*
X150151816Y-58009700D01*
X149869488Y-57995783D01*
X149589870Y-58037213D01*
X149323708Y-58132397D01*
X149198486Y-58199329D01*
X149126903Y-58443298D01*
X148256081Y-58443298D01*
X148259000Y-58413667D01*
X148259000Y-58413660D01*
X148263300Y-58370000D01*
X148259000Y-58326340D01*
X148259000Y-54252117D01*
X148348505Y-54192312D01*
X148562312Y-53978505D01*
X148640000Y-53862237D01*
X148717688Y-53978505D01*
X148931495Y-54192312D01*
X149182905Y-54360299D01*
X149462257Y-54476011D01*
X149758816Y-54535000D01*
X150061184Y-54535000D01*
X150357743Y-54476011D01*
X150637095Y-54360299D01*
X150888505Y-54192312D01*
X151102312Y-53978505D01*
X151180000Y-53862237D01*
X151257688Y-53978505D01*
X151471495Y-54192312D01*
X151722905Y-54360299D01*
X152002257Y-54476011D01*
X152298816Y-54535000D01*
X152601184Y-54535000D01*
X152897743Y-54476011D01*
X153177095Y-54360299D01*
X153339000Y-54252117D01*
X153339001Y-59026272D01*
X153312890Y-59112348D01*
X153281012Y-59436000D01*
X153312890Y-59759652D01*
X153407296Y-60070867D01*
X153560602Y-60357683D01*
X153766919Y-60609081D01*
X154018317Y-60815398D01*
X154305133Y-60968704D01*
X154616348Y-61063110D01*
X154940000Y-61094988D01*
X155263652Y-61063110D01*
X155574867Y-60968704D01*
X155861683Y-60815398D01*
X156050084Y-60660782D01*
X156100077Y-60610788D01*
X156163082Y-60559082D01*
X156369398Y-60307684D01*
X156522705Y-60020867D01*
X156617111Y-59709653D01*
X156641000Y-59467104D01*
X156641000Y-59467101D01*
X156648988Y-59386000D01*
X156641000Y-59304899D01*
X156641000Y-51455184D01*
X156880185Y-51215999D01*
X164197133Y-51215999D01*
X168962213Y-55981079D01*
G37*
G04 #@! TD.AperFunction*
D27*
X152527688Y-48898505D02*
X152741495Y-49112312D01*
X152992905Y-49280299D01*
X153272257Y-49396011D01*
X153568816Y-49455000D01*
X153871184Y-49455000D01*
X153996349Y-49430103D01*
X153879921Y-49546531D01*
X153816918Y-49598236D01*
X153610602Y-49849635D01*
X153457295Y-50136452D01*
X153362889Y-50447666D01*
X153339000Y-50690214D01*
X153331012Y-50771318D01*
X153339000Y-50852419D01*
X153339000Y-51747883D01*
X153177095Y-51639701D01*
X152897743Y-51523989D01*
X152601184Y-51465000D01*
X152298816Y-51465000D01*
X152002257Y-51523989D01*
X151722905Y-51639701D01*
X151471495Y-51807688D01*
X151257688Y-52021495D01*
X151180000Y-52137763D01*
X151102312Y-52021495D01*
X150888505Y-51807688D01*
X150637095Y-51639701D01*
X150357743Y-51523989D01*
X150061184Y-51465000D01*
X149758816Y-51465000D01*
X149462257Y-51523989D01*
X149182905Y-51639701D01*
X148931495Y-51807688D01*
X148717688Y-52021495D01*
X148640000Y-52137763D01*
X148562312Y-52021495D01*
X148348505Y-51807688D01*
X148097095Y-51639701D01*
X147817743Y-51523989D01*
X147521184Y-51465000D01*
X147218816Y-51465000D01*
X146922257Y-51523989D01*
X146642905Y-51639701D01*
X146391495Y-51807688D01*
X146177688Y-52021495D01*
X146170991Y-52031517D01*
X146003082Y-51826918D01*
X145751683Y-51620602D01*
X145464866Y-51467295D01*
X145153652Y-51372889D01*
X144830000Y-51341012D01*
X144506347Y-51372889D01*
X144195133Y-51467295D01*
X143908316Y-51620602D01*
X143656918Y-51826918D01*
X143489009Y-52031518D01*
X143482312Y-52021495D01*
X143268505Y-51807688D01*
X143017095Y-51639701D01*
X142737743Y-51523989D01*
X142441184Y-51465000D01*
X142138816Y-51465000D01*
X141842257Y-51523989D01*
X141562905Y-51639701D01*
X141311495Y-51807688D01*
X141097688Y-52021495D01*
X141020000Y-52137763D01*
X140942312Y-52021495D01*
X140728505Y-51807688D01*
X140477095Y-51639701D01*
X140197743Y-51523989D01*
X139901184Y-51465000D01*
X139598816Y-51465000D01*
X139302257Y-51523989D01*
X139022905Y-51639701D01*
X138771495Y-51807688D01*
X138705056Y-51874127D01*
X138699502Y-51855820D01*
X138640537Y-51745506D01*
X138561185Y-51648815D01*
X138464494Y-51569463D01*
X138354180Y-51510498D01*
X138234482Y-51474188D01*
X138110000Y-51461928D01*
X137495750Y-51465000D01*
X137337000Y-51623750D01*
X137337000Y-52873000D01*
X137357000Y-52873000D01*
X137357000Y-53127000D01*
X137337000Y-53127000D01*
X137337000Y-54376250D01*
X137495750Y-54535000D01*
X138110000Y-54538072D01*
X138234482Y-54525812D01*
X138354180Y-54489502D01*
X138464494Y-54430537D01*
X138561185Y-54351185D01*
X138640537Y-54254494D01*
X138699502Y-54144180D01*
X138705056Y-54125873D01*
X138771495Y-54192312D01*
X138824821Y-54227944D01*
X137553765Y-55499000D01*
X131077432Y-55499000D01*
X131102312Y-55416982D01*
X131114572Y-55292500D01*
X131114572Y-53911663D01*
X131126235Y-53900000D01*
X135671928Y-53900000D01*
X135684188Y-54024482D01*
X135720498Y-54144180D01*
X135779463Y-54254494D01*
X135858815Y-54351185D01*
X135955506Y-54430537D01*
X136065820Y-54489502D01*
X136185518Y-54525812D01*
X136310000Y-54538072D01*
X136924250Y-54535000D01*
X137083000Y-54376250D01*
X137083000Y-53127000D01*
X135833750Y-53127000D01*
X135675000Y-53285750D01*
X135671928Y-53900000D01*
X131126235Y-53900000D01*
X132926235Y-52100000D01*
X135671928Y-52100000D01*
X135675000Y-52714250D01*
X135833750Y-52873000D01*
X137083000Y-52873000D01*
X137083000Y-51623750D01*
X136924250Y-51465000D01*
X136310000Y-51461928D01*
X136185518Y-51474188D01*
X136065820Y-51510498D01*
X135955506Y-51569463D01*
X135858815Y-51648815D01*
X135779463Y-51745506D01*
X135720498Y-51855820D01*
X135684188Y-51975518D01*
X135671928Y-52100000D01*
X132926235Y-52100000D01*
X134099236Y-50927000D01*
X143085340Y-50927000D01*
X143129000Y-50931300D01*
X143172660Y-50927000D01*
X143172667Y-50927000D01*
X143303274Y-50914136D01*
X143470851Y-50863303D01*
X143625291Y-50780753D01*
X143760659Y-50669659D01*
X143788499Y-50635736D01*
X144157736Y-50266499D01*
X144191659Y-50238659D01*
X144302753Y-50103291D01*
X144385303Y-49948851D01*
X144436136Y-49781274D01*
X144449000Y-49650667D01*
X144449000Y-49650661D01*
X144453300Y-49607001D01*
X144449000Y-49563341D01*
X144449000Y-49172117D01*
X144538505Y-49112312D01*
X144752312Y-48898505D01*
X144759009Y-48888482D01*
X144926918Y-49093082D01*
X145178316Y-49299398D01*
X145465133Y-49452705D01*
X145776347Y-49547111D01*
X146100000Y-49578988D01*
X146423652Y-49547111D01*
X146734866Y-49452705D01*
X147021683Y-49299398D01*
X147273082Y-49093082D01*
X147440991Y-48888483D01*
X147447688Y-48898505D01*
X147661495Y-49112312D01*
X147912905Y-49280299D01*
X148192257Y-49396011D01*
X148488816Y-49455000D01*
X148791184Y-49455000D01*
X149087743Y-49396011D01*
X149367095Y-49280299D01*
X149618505Y-49112312D01*
X149832312Y-48898505D01*
X149910000Y-48782237D01*
X149987688Y-48898505D01*
X150201495Y-49112312D01*
X150452905Y-49280299D01*
X150732257Y-49396011D01*
X151028816Y-49455000D01*
X151331184Y-49455000D01*
X151627743Y-49396011D01*
X151907095Y-49280299D01*
X152158505Y-49112312D01*
X152372312Y-48898505D01*
X152450000Y-48782237D01*
X152527688Y-48898505D01*
G04 #@! TA.AperFunction,Conductor*
D28*
G36*
X152527688Y-48898505D02*
G01*
X152741495Y-49112312D01*
X152992905Y-49280299D01*
X153272257Y-49396011D01*
X153568816Y-49455000D01*
X153871184Y-49455000D01*
X153996349Y-49430103D01*
X153879921Y-49546531D01*
X153816918Y-49598236D01*
X153610602Y-49849635D01*
X153457295Y-50136452D01*
X153362889Y-50447666D01*
X153339000Y-50690214D01*
X153331012Y-50771318D01*
X153339000Y-50852419D01*
X153339000Y-51747883D01*
X153177095Y-51639701D01*
X152897743Y-51523989D01*
X152601184Y-51465000D01*
X152298816Y-51465000D01*
X152002257Y-51523989D01*
X151722905Y-51639701D01*
X151471495Y-51807688D01*
X151257688Y-52021495D01*
X151180000Y-52137763D01*
X151102312Y-52021495D01*
X150888505Y-51807688D01*
X150637095Y-51639701D01*
X150357743Y-51523989D01*
X150061184Y-51465000D01*
X149758816Y-51465000D01*
X149462257Y-51523989D01*
X149182905Y-51639701D01*
X148931495Y-51807688D01*
X148717688Y-52021495D01*
X148640000Y-52137763D01*
X148562312Y-52021495D01*
X148348505Y-51807688D01*
X148097095Y-51639701D01*
X147817743Y-51523989D01*
X147521184Y-51465000D01*
X147218816Y-51465000D01*
X146922257Y-51523989D01*
X146642905Y-51639701D01*
X146391495Y-51807688D01*
X146177688Y-52021495D01*
X146170991Y-52031517D01*
X146003082Y-51826918D01*
X145751683Y-51620602D01*
X145464866Y-51467295D01*
X145153652Y-51372889D01*
X144830000Y-51341012D01*
X144506347Y-51372889D01*
X144195133Y-51467295D01*
X143908316Y-51620602D01*
X143656918Y-51826918D01*
X143489009Y-52031518D01*
X143482312Y-52021495D01*
X143268505Y-51807688D01*
X143017095Y-51639701D01*
X142737743Y-51523989D01*
X142441184Y-51465000D01*
X142138816Y-51465000D01*
X141842257Y-51523989D01*
X141562905Y-51639701D01*
X141311495Y-51807688D01*
X141097688Y-52021495D01*
X141020000Y-52137763D01*
X140942312Y-52021495D01*
X140728505Y-51807688D01*
X140477095Y-51639701D01*
X140197743Y-51523989D01*
X139901184Y-51465000D01*
X139598816Y-51465000D01*
X139302257Y-51523989D01*
X139022905Y-51639701D01*
X138771495Y-51807688D01*
X138705056Y-51874127D01*
X138699502Y-51855820D01*
X138640537Y-51745506D01*
X138561185Y-51648815D01*
X138464494Y-51569463D01*
X138354180Y-51510498D01*
X138234482Y-51474188D01*
X138110000Y-51461928D01*
X137495750Y-51465000D01*
X137337000Y-51623750D01*
X137337000Y-52873000D01*
X137357000Y-52873000D01*
X137357000Y-53127000D01*
X137337000Y-53127000D01*
X137337000Y-54376250D01*
X137495750Y-54535000D01*
X138110000Y-54538072D01*
X138234482Y-54525812D01*
X138354180Y-54489502D01*
X138464494Y-54430537D01*
X138561185Y-54351185D01*
X138640537Y-54254494D01*
X138699502Y-54144180D01*
X138705056Y-54125873D01*
X138771495Y-54192312D01*
X138824821Y-54227944D01*
X137553765Y-55499000D01*
X131077432Y-55499000D01*
X131102312Y-55416982D01*
X131114572Y-55292500D01*
X131114572Y-53911663D01*
X131126235Y-53900000D01*
X135671928Y-53900000D01*
X135684188Y-54024482D01*
X135720498Y-54144180D01*
X135779463Y-54254494D01*
X135858815Y-54351185D01*
X135955506Y-54430537D01*
X136065820Y-54489502D01*
X136185518Y-54525812D01*
X136310000Y-54538072D01*
X136924250Y-54535000D01*
X137083000Y-54376250D01*
X137083000Y-53127000D01*
X135833750Y-53127000D01*
X135675000Y-53285750D01*
X135671928Y-53900000D01*
X131126235Y-53900000D01*
X132926235Y-52100000D01*
X135671928Y-52100000D01*
X135675000Y-52714250D01*
X135833750Y-52873000D01*
X137083000Y-52873000D01*
X137083000Y-51623750D01*
X136924250Y-51465000D01*
X136310000Y-51461928D01*
X136185518Y-51474188D01*
X136065820Y-51510498D01*
X135955506Y-51569463D01*
X135858815Y-51648815D01*
X135779463Y-51745506D01*
X135720498Y-51855820D01*
X135684188Y-51975518D01*
X135671928Y-52100000D01*
X132926235Y-52100000D01*
X134099236Y-50927000D01*
X143085340Y-50927000D01*
X143129000Y-50931300D01*
X143172660Y-50927000D01*
X143172667Y-50927000D01*
X143303274Y-50914136D01*
X143470851Y-50863303D01*
X143625291Y-50780753D01*
X143760659Y-50669659D01*
X143788499Y-50635736D01*
X144157736Y-50266499D01*
X144191659Y-50238659D01*
X144302753Y-50103291D01*
X144385303Y-49948851D01*
X144436136Y-49781274D01*
X144449000Y-49650667D01*
X144449000Y-49650661D01*
X144453300Y-49607001D01*
X144449000Y-49563341D01*
X144449000Y-49172117D01*
X144538505Y-49112312D01*
X144752312Y-48898505D01*
X144759009Y-48888482D01*
X144926918Y-49093082D01*
X145178316Y-49299398D01*
X145465133Y-49452705D01*
X145776347Y-49547111D01*
X146100000Y-49578988D01*
X146423652Y-49547111D01*
X146734866Y-49452705D01*
X147021683Y-49299398D01*
X147273082Y-49093082D01*
X147440991Y-48888483D01*
X147447688Y-48898505D01*
X147661495Y-49112312D01*
X147912905Y-49280299D01*
X148192257Y-49396011D01*
X148488816Y-49455000D01*
X148791184Y-49455000D01*
X149087743Y-49396011D01*
X149367095Y-49280299D01*
X149618505Y-49112312D01*
X149832312Y-48898505D01*
X149910000Y-48782237D01*
X149987688Y-48898505D01*
X150201495Y-49112312D01*
X150452905Y-49280299D01*
X150732257Y-49396011D01*
X151028816Y-49455000D01*
X151331184Y-49455000D01*
X151627743Y-49396011D01*
X151907095Y-49280299D01*
X152158505Y-49112312D01*
X152372312Y-48898505D01*
X152450000Y-48782237D01*
X152527688Y-48898505D01*
G37*
G04 #@! TD.AperFunction*
M02*
